<?xml version="1.0" standalone="no"?><!-- Generator: Adobe Fireworks CS5, Export SVG Extension by Aaron Beall (http://fireworks.abeall.com) . Version: 0.6.1  --><!DOCTYPE svg PUBLIC "-//W3C//DTD SVG 1.1//EN" "http://www.w3.org/Graphics/SVG/1.1/DTD/svg11.dtd"><svg id="Untitled-Page%201" viewBox="0 0 400 1600" style="background-color:#ffffff00" version="1.1"	xmlns="http://www.w3.org/2000/svg" xmlns:xlink="http://www.w3.org/1999/xlink" xml:space="preserve"	x="0px" y="0px" width="400px" height="1600px">	<path id="Add" d="M 351.0251 1554.5897 C 350.3401 1554.7446 349.6323 1554.7469 348.9468 1554.5946 L 348.9468 1551.0221 L 345.3651 1551.0221 C 345.2108 1550.3369 345.2093 1549.629 345.3622 1548.9437 L 348.9468 1548.9437 L 348.9468 1545.3613 C 349.6323 1545.2089 350.3401 1545.2113 351.0251 1545.3661 L 351.0251 1548.9437 L 354.5935 1548.9437 C 354.7464 1549.629 354.7449 1550.3369 354.5905 1551.0221 L 351.0251 1551.0221 L 351.0251 1554.5897 Z" fill="#717171"/>	<path id="Contact%20Detail" d="M 257.1549 1454.5192 C 257.1548 1456.5004 256.7609 1458.3446 256.0899 1459.9163 L 243.9102 1459.9163 C 243.2391 1458.3446 242.8453 1456.5004 242.8451 1454.5192 L 242.8489 1454.5192 C 242.8489 1454.5188 242.8488 1454.5186 242.8488 1454.5182 C 242.8488 1452.5428 244.4964 1450.8405 246.8808 1450.031 L 250.0011 1453.1514 L 253.1208 1450.0316 C 255.5044 1450.8412 257.1513 1452.5432 257.1513 1454.5182 C 257.1513 1454.5186 257.1512 1454.5188 257.1512 1454.5192 L 257.1549 1454.5192 ZM 250 1448.9213 C 247.7455 1448.9213 245.9179 1447.0936 245.9179 1444.8392 C 245.9179 1442.5847 247.7455 1440.7572 250 1440.7572 C 252.2545 1440.7572 254.0821 1442.5847 254.0821 1444.8392 C 254.0821 1447.0936 252.2545 1448.9213 250 1448.9213 Z" fill="#ffffff"/>	<path id="Stop%20Alarm%20copy" d="M 360.744 1143.2499 L 341.4411 1162.5529 C 340.7841 1162.1201 340.2218 1161.5575 339.7892 1160.9004 L 341.9208 1158.7688 L 341.9112 1158.7688 C 341.9117 1158.7679 341.9116 1158.7667 341.9122 1158.7659 C 341.0605 1158.7494 340.3744 1158.0565 340.3744 1157.2009 C 340.3744 1156.6646 340.6444 1156.1921 341.0552 1155.9094 L 341.0552 1155.8707 C 342.4947 1154.8362 343.4167 1153.3529 343.4167 1151.6853 C 343.4167 1151.6846 343.4164 1151.6838 343.4164 1151.6831 L 343.4164 1146.9629 L 343.4164 1146.9629 C 343.4164 1144.7061 345.0859 1142.7737 347.4828 1141.8677 C 347.7655 1140.4644 349.0043 1139.4072 350.4909 1139.4072 C 351.9746 1139.4072 353.2124 1140.4601 353.4982 1141.8594 C 354.7897 1142.3436 355.8675 1143.1274 356.5916 1144.0981 L 359.0916 1141.5981 C 359.7487 1142.0306 360.3112 1142.593 360.744 1143.2499 ZM 350.5 1143.3549 C 347.7732 1143.3549 345.5627 1144.9695 345.561 1146.9615 L 345.5318 1146.9615 L 345.5318 1152.4575 C 345.5193 1154.0393 344.6361 1155.4835 343.1868 1156.6198 L 344.0699 1156.6198 L 355.0745 1145.6151 C 354.3427 1144.2913 352.5742 1143.3549 350.5 1143.3549 ZM 350.4909 1162.5469 C 349.0406 1162.5469 347.8325 1161.5378 347.5116 1160.1857 L 353.4702 1160.1857 C 353.1493 1161.5378 351.9412 1162.5469 350.4909 1162.5469 ZM 348.8684 1158.7688 L 351.0093 1156.6279 L 355.4683 1156.6279 L 355.4683 1156.6198 L 357.8133 1156.6198 C 356.364 1155.4835 355.4808 1154.0394 355.4683 1152.4576 L 355.4683 1152.1689 L 357.5837 1150.0536 L 357.5837 1151.6831 C 357.5837 1151.6838 357.5834 1151.6846 357.5834 1151.6853 C 357.5834 1153.3529 358.5054 1154.8362 359.9449 1155.8707 L 359.9449 1155.9094 C 360.3556 1156.1921 360.6257 1156.6646 360.6257 1157.2009 C 360.6257 1158.0565 359.9396 1158.7494 359.0879 1158.7659 C 359.0884 1158.7667 359.0883 1158.7679 359.0888 1158.7688 L 348.8684 1158.7688 Z" fill="#ffffff"/>	<path id="Incoming%20SMS" d="M 63.7414 1443.8336 L 56.7065 1443.8336 L 56.7065 1446.4894 C 56.3885 1446.5546 56.0477 1446.4821 55.8009 1446.2352 L 52.7799 1443.2142 C 52.3895 1442.8239 52.3895 1442.1909 52.7799 1441.8004 L 55.8009 1438.7794 C 56.0477 1438.5327 56.3885 1438.4602 56.7065 1438.5254 L 56.7065 1441.1973 L 63.7419 1441.1973 C 63.9207 1442.0665 63.9205 1442.9642 63.7414 1443.8336 ZM 56.3086 1448.0779 C 56.6735 1448.4427 57.1774 1448.5499 57.6477 1448.4536 L 57.6477 1444.8336 L 58.4405 1444.8336 L 58.4405 1456.6986 C 58.4405 1457.3849 57.8842 1457.9413 57.1979 1457.9413 L 49.8366 1457.9413 L 44.8599 1462.9181 L 44.8599 1457.9413 L 39.801 1457.9413 C 39.1146 1457.9413 38.5582 1457.3849 38.5582 1456.6986 L 38.5582 1443.3016 C 38.5582 1442.6152 39.1146 1442.059 39.801 1442.059 L 51.5077 1442.059 C 51.3162 1442.5825 51.4218 1443.1909 51.8419 1443.6111 L 56.3086 1448.0779 Z" fill="#373d45"/>	<path id="Outgoing%20SMS" d="M 163.5951 1443.2142 L 160.5741 1446.2352 C 160.3273 1446.4821 159.9865 1446.5546 159.6685 1446.4894 L 159.6685 1443.8336 L 152.6336 1443.8336 C 152.5139 1443.2528 152.5041 1442.6614 152.5442 1442.0721 L 151.5394 1442.0721 C 151.3606 1442.9415 151.3607 1443.8392 151.5398 1444.7086 L 158.4405 1444.7086 L 158.4405 1456.6986 C 158.4405 1457.3849 157.8842 1457.9413 157.1979 1457.9413 L 149.8366 1457.9413 L 144.8599 1462.9181 L 144.8599 1457.9413 L 139.801 1457.9413 C 139.1146 1457.9413 138.5582 1457.3849 138.5582 1456.6986 L 138.5582 1443.3016 C 138.5582 1442.6152 139.1146 1442.059 139.801 1442.059 L 152.5456 1442.059 C 152.5658 1441.7708 152.5747 1441.4813 152.6332 1441.1973 L 159.6685 1441.1973 L 159.6685 1438.5254 C 159.9865 1438.4602 160.3273 1438.5327 160.5741 1438.7794 L 163.5951 1441.8004 C 163.9855 1442.1909 163.9855 1442.8239 163.5951 1443.2142 Z" fill="#373d45"/>	<path id="Refresh" d="M 163.4258 1249.1824 L 160.1875 1252.4208 C 159.7855 1252.8228 159.1336 1252.8228 158.7316 1252.4208 L 155.49 1249.1792 C 156.3112 1248.8464 157.2966 1248.6146 158.3749 1248.5205 C 157.6735 1244.5261 154.1955 1241.488 150 1241.488 C 145.2989 1241.488 141.4879 1245.2991 141.4879 1250.0001 C 141.4879 1254.7012 145.2989 1258.5121 150 1258.5121 C 152.3515 1258.5121 154.4802 1257.5585 156.0208 1256.0171 L 157.6856 1257.6819 C 155.719 1259.6495 153.0017 1260.8667 150 1260.8667 C 143.9986 1260.8667 139.1335 1256.0015 139.1335 1250.0001 C 139.1335 1243.9988 143.9986 1239.1335 150 1239.1335 C 155.5081 1239.1335 160.0475 1243.2355 160.7584 1248.549 C 161.7502 1248.655 162.6619 1248.8718 163.4258 1249.1824 Z" fill="#ffffff"/>	<path id="Move%20%28to%20Folder%29" d="M 259.6657 1159.9142 L 240.3297 1159.9142 C 239.5975 1159.9142 239.004 1159.3207 239.004 1158.5887 L 239.004 1142.0338 C 239.004 1141.3016 239.5975 1140.7083 240.3297 1140.7083 L 244.7157 1140.7083 L 247.7313 1143.7239 L 260.9912 1143.7239 L 260.9912 1158.5887 C 260.9912 1159.3207 260.3978 1159.9142 259.6657 1159.9142 ZM 245.8717 1149.172 C 245.804 1149.502 245.8793 1149.8553 246.1352 1150.1113 L 249.2686 1153.2446 C 249.6737 1153.6497 250.3301 1153.6497 250.7351 1153.2446 L 253.8685 1150.1113 C 254.1245 1149.8553 254.1997 1149.502 254.1321 1149.172 L 245.8717 1149.172 Z" fill="#ffffff"/>	<path id="Unlock" d="M 162.6979 1162.4413 L 147.301 1162.4413 C 146.6146 1162.4413 146.0582 1161.8849 146.0582 1161.1986 L 146.0582 1148.8018 C 146.0582 1148.1151 146.6146 1147.5588 147.301 1147.5588 L 147.9688 1147.5588 L 147.9688 1144 L 148.0021 1144 C 148.0008 1141.5159 145.9868 1139.5023 143.5023 1139.5023 C 141.0178 1139.5023 139.0038 1141.5159 139.0025 1144 L 139.0313 1144 L 139.0313 1148.0834 L 136.5 1148.0834 L 136.5 1144 L 136.501 1144 C 136.5016 1140.1344 139.6354 1137.0009 143.5011 1137.0009 C 147.3672 1137.0009 150.5013 1140.135 150.5013 1144.0012 C 150.5013 1144.0056 150.5 1144.0096 150.5 1144.0139 L 150.5 1147.5588 L 162.6979 1147.5588 C 163.3842 1147.5588 163.9405 1148.1151 163.9405 1148.8018 L 163.9405 1161.1986 C 163.9405 1161.8849 163.3842 1162.4413 162.6979 1162.4413 Z" fill="#ffffff"/>	<path id="Lock" d="M 57.6979 1162.4413 L 42.301 1162.4413 C 41.6146 1162.4413 41.0582 1161.8849 41.0582 1161.1986 L 41.0582 1148.8018 C 41.0582 1148.1151 41.6146 1147.5588 42.301 1147.5588 L 43 1147.5588 L 43 1144 L 43.0009 1144 C 43.0015 1140.1344 46.1354 1137.0009 50.0011 1137.0009 C 53.8672 1137.0009 57.0013 1140.135 57.0013 1144.0012 C 57.0013 1144.0098 57 1144.0181 57 1144.0267 L 57 1147.5588 L 57.6979 1147.5588 C 58.3842 1147.5588 58.9405 1148.1151 58.9405 1148.8018 L 58.9405 1161.1986 C 58.9405 1161.8849 58.3842 1162.4413 57.6979 1162.4413 ZM 54.5021 1144 C 54.5008 1141.5159 52.4868 1139.5023 50.0023 1139.5023 C 47.5178 1139.5023 45.5038 1141.5159 45.5025 1144 L 45.5313 1144 L 45.5313 1147.5588 L 54.4688 1147.5588 L 54.4688 1144 L 54.5021 1144 Z" fill="#ffffff"/>	<path id="Add%20Alarm" d="M 364.4148 1050.339 L 360.9787 1050.339 L 360.9787 1053.7751 C 360.2404 1053.9557 359.474 1053.9548 358.7358 1053.7734 L 358.7358 1050.339 L 355.3051 1050.339 C 355.1246 1049.6006 355.1253 1048.8344 355.3067 1048.0962 L 358.7358 1048.0962 L 358.7358 1044.667 C 359.474 1044.4857 360.2403 1044.4849 360.9786 1044.6654 L 360.9787 1048.0962 L 364.4132 1048.0962 C 364.5946 1048.8344 364.5953 1049.6006 364.4148 1050.339 ZM 354.0696 1056.8138 C 354.0702 1056.8147 354.0701 1056.8158 354.0705 1056.8167 L 337.9406 1056.8167 C 337.9411 1056.8158 337.941 1056.8147 337.9415 1056.8138 C 337.1418 1056.7983 336.4975 1056.1478 336.4975 1055.3444 C 336.4975 1054.8407 336.7511 1054.3971 337.1368 1054.1316 L 337.1368 1054.0953 C 338.4884 1053.1239 339.3542 1051.7311 339.3542 1050.1652 C 339.3542 1050.1646 339.354 1050.1639 339.354 1050.1633 L 339.354 1045.7308 L 339.354 1045.7308 C 339.3541 1043.6116 340.9217 1041.797 343.1723 1040.9463 C 343.4377 1039.6287 344.6011 1038.636 345.997 1038.636 C 347.3903 1038.636 348.5526 1039.6246 348.8209 1040.9385 C 351.0816 1041.7863 352.6571 1043.6057 352.6572 1045.7308 L 352.6572 1045.7308 L 352.6572 1050.1631 C 352.6572 1050.1638 352.657 1050.1644 352.657 1050.1652 C 352.657 1051.7311 353.5227 1053.1239 354.8744 1054.0953 L 354.8744 1054.1316 C 355.2601 1054.3971 355.5137 1054.8407 355.5137 1055.3444 C 355.5137 1056.1478 354.8694 1056.7983 354.0696 1056.8138 ZM 350.6708 1050.8903 L 350.6708 1045.7295 L 350.6433 1045.7295 C 350.6418 1043.8589 348.5662 1042.3428 346.0056 1042.3428 C 343.445 1042.3428 341.3694 1043.8589 341.3678 1045.7295 L 341.3404 1045.7295 L 341.3404 1050.8901 C 341.3286 1052.3755 340.4993 1053.7317 339.1383 1054.7986 L 341.3404 1054.7986 L 341.3404 1054.8063 L 350.6708 1054.8063 L 350.6708 1054.7986 L 352.8728 1054.7986 C 351.5119 1053.7317 350.6826 1052.3756 350.6708 1050.8903 ZM 345.997 1060.3641 C 344.6351 1060.3641 343.5008 1059.4167 343.1994 1058.1471 L 348.7946 1058.1471 C 348.4932 1059.4167 347.3589 1060.3641 345.997 1060.3641 Z" fill="#7c7f7f"/>	<path id="Bookmark%20/%20Favorite" d="M 260.8072 1048.1575 C 260.8076 1048.1593 260.8084 1048.161 260.8089 1048.1627 L 255.8626 1052.855 L 257.1086 1059.5707 C 257.1064 1059.5725 257.1038 1059.5739 257.1016 1059.5757 C 257.1516 1059.8522 257.0509 1060.1455 256.8084 1060.3217 C 256.5626 1060.5004 256.2466 1060.505 255.9976 1060.3661 C 255.9959 1060.3672 255.9944 1060.3685 255.9928 1060.3695 L 250 1057.1144 L 244.0073 1060.3695 C 244.0054 1060.3683 244.0037 1060.3667 244.0018 1060.3655 C 243.7527 1060.5044 243.4368 1060.4998 243.1909 1060.3213 C 242.9483 1060.1449 242.8475 1059.8516 242.8977 1059.575 C 242.8957 1059.5734 242.8934 1059.5721 242.8914 1059.5706 L 244.1374 1052.855 L 239.1913 1048.163 C 239.1918 1048.1609 239.1927 1048.1589 239.1933 1048.1569 C 238.9828 1047.963 238.8891 1047.6599 238.9833 1047.37 C 239.077 1047.0819 239.3287 1046.8931 239.6108 1046.8582 C 239.6116 1046.8562 239.612 1046.8541 239.6127 1046.8522 L 246.3767 1045.9629 L 249.3096 1039.8113 C 249.3116 1039.8112 249.3136 1039.8112 249.3157 1039.811 C 249.4345 1039.5498 249.6948 1039.3662 250.0005 1039.3662 C 250.3061 1039.3662 250.5664 1039.5498 250.6853 1039.811 C 250.687 1039.8112 250.6887 1039.8112 250.6904 1039.8113 L 253.6233 1045.9629 L 260.3875 1046.8522 C 260.3884 1046.8545 260.3888 1046.8569 260.3897 1046.8591 C 260.6717 1046.894 260.9234 1047.0828 261.017 1047.3708 C 261.1111 1047.6606 261.0175 1047.9636 260.8072 1048.1575 Z" fill="#f9f9f9"/>	<path id="Settings" d="M 159.444 1050.0001 C 159.444 1051.1217 159.809 1052.1591 160.328 1052.3411 L 161.1596 1052.6327 C 160.873 1053.8516 160.3885 1054.9928 159.7487 1056.0277 L 158.9583 1055.6477 C 158.4627 1055.4095 157.4711 1055.8849 156.6779 1056.6779 C 155.8848 1057.4712 155.4094 1058.4628 155.6477 1058.9585 L 156.0284 1059.7502 C 154.9947 1060.3925 153.8439 1060.8529 152.6266 1061.1425 L 152.341 1060.3281 C 152.159 1059.8091 151.1217 1059.4441 150 1059.4441 C 148.8783 1059.4441 147.841 1059.8091 147.659 1060.3281 L 147.3674 1061.1595 C 146.1486 1060.873 145.0073 1060.3885 143.9724 1059.7487 L 144.3523 1058.9585 C 144.5906 1058.4628 144.1152 1057.4712 143.3221 1056.6779 C 142.5289 1055.8849 141.5374 1055.4095 141.0417 1055.6477 L 140.2498 1056.0284 C 139.6076 1054.9948 139.1472 1053.844 138.8576 1052.6267 L 139.672 1052.3411 C 140.191 1052.1591 140.556 1051.1217 140.556 1050.0001 C 140.556 1048.8784 140.191 1047.8411 139.672 1047.6591 L 138.8386 1047.3668 C 139.126 1046.1469 139.6269 1045.0156 140.2687 1043.9807 L 141.0417 1044.3523 C 141.5374 1044.5907 142.5289 1044.1154 143.3221 1043.3221 C 144.1152 1042.5291 144.5906 1041.5374 144.3523 1041.0417 L 143.981 1040.2693 C 145.0158 1039.6279 146.1471 1039.1274 147.3674 1038.8405 L 147.659 1039.6721 C 147.841 1040.191 148.8783 1040.556 150 1040.556 C 151.1217 1040.556 152.159 1040.191 152.341 1039.6721 L 152.6326 1038.8405 C 153.8514 1039.1271 154.9928 1039.6116 156.0276 1040.2515 L 155.6477 1041.0417 C 155.4094 1041.5374 155.8848 1042.5291 156.6779 1043.3221 C 157.4711 1044.1154 158.4627 1044.5907 158.9583 1044.3523 L 159.7502 1043.9717 C 160.3924 1045.0054 160.8529 1046.1561 161.1425 1047.3735 L 160.328 1047.6591 C 159.809 1047.8411 159.444 1048.8784 159.444 1050.0001 ZM 150 1043.9464 C 146.6566 1043.9464 143.9463 1046.6566 143.9463 1050.0001 C 143.9463 1053.3435 146.6566 1056.0538 150 1056.0538 C 153.3434 1056.0538 156.0538 1053.3435 156.0538 1050.0001 C 156.0538 1046.6566 153.3434 1043.9464 150 1043.9464 Z" fill="#ffffff"/>	<path id="Forward%20%28Browser%29" d="M 57.7269 1051.8518 L 49.5388 1060.04 C 49.1226 1059.0164 48.7691 1057.8907 48.4886 1056.6851 L 53.5506 1051.6232 L 41.6762 1051.6232 C 41.4563 1050.5542 41.4564 1049.4504 41.6767 1048.3815 L 53.5235 1048.3815 L 48.4816 1043.3395 C 48.7612 1042.1305 49.1143 1041.002 49.5302 1039.9752 L 57.7269 1048.1718 C 58.7431 1049.188 58.7431 1050.8357 57.7269 1051.8518 Z" fill="#ffffff"/>	<path id="Done" d="M 359.9527 948.864 L 359.9527 958.707 C 359.9527 959.3931 359.3964 959.9496 358.7101 959.9496 L 341.3131 959.9496 C 340.6268 959.9496 340.0704 959.3931 340.0704 958.707 L 340.0704 941.31 C 340.0704 940.6237 340.6268 940.0673 341.3131 940.0673 L 358.7101 940.0673 C 359.3964 940.0673 359.9527 940.6237 359.9527 941.31 L 359.9527 944.5326 L 364.738 939.7473 L 364.738 944.0784 L 359.9527 948.864 ZM 358.3503 950.4665 L 352.0422 956.775 C 351.197 957.6204 349.9111 957.7423 348.9289 957.1578 L 344.3245 952.5533 L 344.328 952.541 L 346.4285 950.4405 L 349.609 953.621 C 349.6155 953.628 349.6201 953.636 349.6269 953.6428 C 349.9508 953.9667 350.4672 953.9748 350.8046 953.6733 L 350.8082 953.6771 L 358.3503 946.135 L 358.3503 942.1752 C 358.3503 941.8969 358.1248 941.6714 357.8465 941.6714 L 342.1783 941.6714 C 341.9 941.6714 341.6745 941.8969 341.6745 942.1752 L 341.6745 957.8434 C 341.6745 958.1217 341.9 958.3472 342.1783 958.3472 L 357.8465 958.3472 C 358.1248 958.3472 358.3503 958.1217 358.3503 957.8434 L 358.3503 950.4665 Z" fill="#ffffff"/>	<path id="Contact%20Detail2" d="M 259.4579 955.953 C 259.4577 958.572 258.9371 961.0098 258.0501 963.0873 L 241.95 963.0873 C 241.063 961.0098 240.5423 958.572 240.5421 955.953 L 240.5471 955.953 C 240.5471 955.9526 240.547 955.9521 240.547 955.9517 C 240.547 953.3405 242.7249 951.0901 245.8768 950.0201 L 250.0014 954.1448 L 254.1253 950.0209 C 257.2761 951.0912 259.4531 953.341 259.4531 955.9517 C 259.4531 955.9521 259.453 955.9526 259.453 955.953 L 259.4579 955.953 ZM 250 948.5533 C 247.0199 948.5533 244.604 946.1375 244.604 943.1573 C 244.604 940.1771 247.0199 937.7613 250 937.7613 C 252.9802 937.7613 255.3961 940.1771 255.3961 943.1573 C 255.3961 946.1375 252.9802 948.5533 250 948.5533 Z" fill="#ffffff"/>	<path id="Search" d="M 161.2128 958.5109 C 161.59 958.8888 161.2941 959.7968 160.5515 960.5396 C 159.8088 961.282 158.9009 961.578 158.5231 961.2006 L 158.5227 961.201 L 152.7823 955.4606 C 151.3449 956.3962 149.6326 956.9449 147.7897 956.9449 C 142.7248 956.9449 138.6188 952.8391 138.6188 947.7741 C 138.6188 942.7092 142.7248 938.6032 147.7897 938.6032 C 152.8546 938.6032 156.9605 942.7092 156.9605 947.7741 C 156.9605 949.6188 156.4108 951.3329 155.4736 952.7711 L 161.2131 958.5107 L 161.2128 958.5109 ZM 147.7897 940.7854 C 143.9299 940.7854 140.8009 943.9144 140.8009 947.7741 C 140.8009 951.6339 143.9299 954.7628 147.7897 954.7628 C 151.6494 954.7628 154.7783 951.6339 154.7783 947.7741 C 154.7783 943.9144 151.6494 940.7854 147.7897 940.7854 Z" fill="#ffffff"/>	<path id="SMS" d="M 59.1979 957.9412 L 51.8366 957.9412 L 46.8599 962.9181 L 46.8599 957.9412 L 41.801 957.9412 C 41.1146 957.9412 40.5582 957.3849 40.5582 956.6986 L 40.5582 943.3017 C 40.5582 942.6152 41.1146 942.059 41.801 942.059 L 59.1979 942.059 C 59.8842 942.059 60.4405 942.6152 60.4405 943.3017 L 60.4405 956.6986 C 60.4405 957.3849 59.8842 957.9412 59.1979 957.9412 Z" fill="#ffffff"/>	<path id="Voicemail" d="M 357.4289 855.9172 C 357.4288 855.9172 357.4287 855.9172 357.4286 855.9172 L 357.4286 855.9172 L 342.5712 855.9172 C 339.3032 855.9172 336.654 853.2681 336.654 850.0001 C 336.654 846.7322 339.3032 844.083 342.5712 844.083 C 345.8391 844.083 348.4883 846.7322 348.4883 850.0001 C 348.4883 851.5178 347.9121 852.8975 346.9727 853.9449 L 353.0273 853.9449 C 352.0879 852.8975 351.5117 851.5178 351.5117 850.0001 C 351.5117 846.7322 354.1609 844.083 357.4289 844.083 C 360.6968 844.083 363.346 846.7322 363.346 850.0001 C 363.346 853.2681 360.6968 855.9172 357.4289 855.9172 ZM 342.5712 846.0554 C 340.3926 846.0554 338.6266 847.8215 338.6266 850.0001 C 338.6266 852.1786 340.3926 853.9448 342.5712 853.9448 C 344.7497 853.9448 346.5158 852.1786 346.5158 850.0001 C 346.5158 847.8215 344.7497 846.0554 342.5712 846.0554 ZM 357.4289 846.0554 C 355.2503 846.0554 353.4842 847.8215 353.4842 850.0001 C 353.4842 852.1786 355.2503 853.9448 357.4289 853.9448 C 359.6074 853.9448 361.3735 852.1786 361.3735 850.0001 C 361.3735 847.8215 359.6074 846.0554 357.4289 846.0554 Z" fill="#ffffff"/>	<path id="Phone" d="M 252.4953 852.4969 C 248.3088 856.6833 243.6468 859.3887 240.0091 860.0613 C 238.6393 859.4213 237.3396 858.5716 236.1396 857.5359 L 241.8256 852.501 C 242.4197 852.9329 243.0201 853.3358 243.6281 853.6713 L 243.6501 853.6494 C 244.9441 854.2394 247.7613 852.8752 250.3137 850.3228 C 252.866 847.7704 254.2302 844.9533 253.6402 843.6592 L 253.6624 843.6371 C 253.3269 843.0292 252.924 842.4288 252.4922 841.8348 L 257.5304 836.145 C 258.5675 837.3466 259.4182 838.6481 260.0585 840.0199 C 259.383 843.6562 256.6783 848.3139 252.4953 852.4969 Z" fill="#ffffff"/>	<path id="Select" d="M 160.4023 852.5001 L 160.4023 847.5002 L 161.9402 847.5002 L 161.9402 852.5001 L 160.4023 852.5001 ZM 160.4023 840.079 C 160.4023 839.8121 160.1858 839.5955 159.9188 839.5955 L 157.5 839.5955 L 157.5 838.056 L 160.7476 838.056 C 161.4063 838.056 161.9402 838.5898 161.9402 839.2488 L 161.9402 842.5 L 160.4023 842.5 L 160.4023 840.079 ZM 147.5001 838.056 L 152.5 838.056 L 152.5 839.5955 L 147.5001 839.5955 L 147.5001 838.056 ZM 139.5982 840.079 L 139.5982 842.5 L 138.0585 842.5 L 138.0585 839.2488 C 138.0585 838.5898 138.5926 838.056 139.2513 838.056 L 142.5 838.056 L 142.5 839.5955 L 140.0817 839.5955 C 139.8146 839.5955 139.5982 839.8121 139.5982 840.079 ZM 139.5982 852.5001 L 138.0585 852.5001 L 138.0585 847.5002 L 139.5982 847.5002 L 139.5982 852.5001 ZM 139.5982 857.5002 L 139.5982 859.9162 C 139.5982 860.1832 139.8146 860.3997 140.0817 860.3997 L 142.5 860.3997 L 142.5 861.9377 L 139.2513 861.9377 C 138.5926 861.9377 138.0585 861.4036 138.0585 860.7451 L 138.0585 857.5002 L 139.5982 857.5002 ZM 152.5 861.9377 L 147.5001 861.9377 L 147.5001 860.3997 L 152.5 860.3997 L 152.5 861.9377 ZM 160.4023 859.9162 L 160.4023 857.5002 L 161.9402 857.5002 L 161.9402 860.7451 C 161.9402 861.4036 161.4063 861.9377 160.7476 861.9377 L 157.5 861.9377 L 157.5 860.3997 L 159.9188 860.3997 C 160.1858 860.3997 160.4023 860.1832 160.4023 859.9162 Z" fill="#ffffff"/>	<path id="Dial%20Pad" d="M 59.8696 851.2239 C 59.7686 851.6681 59.39 852.0065 58.9152 852.007 L 58.914 852.0081 L 56.485 852.0081 L 56.4837 852.007 C 56.0089 852.0065 55.6304 851.6681 55.5294 851.2239 L 55.5072 851.2056 C 55.3235 850.2474 55.197 849.1638 55.1471 847.9989 L 60.2518 847.9989 C 60.2019 849.1638 60.0754 850.2474 59.8918 851.2056 L 59.8696 851.2239 ZM 59.8696 843.2239 C 59.7686 843.6682 59.39 844.0065 58.9152 844.007 L 58.914 844.0081 L 56.485 844.0081 L 56.4837 844.007 C 56.0089 844.0065 55.6304 843.6682 55.5294 843.2239 L 55.5072 843.2056 C 55.3235 842.2474 55.197 841.1638 55.1471 839.9989 L 60.2518 839.9989 C 60.2019 841.1638 60.0754 842.2474 59.8918 843.2056 L 59.8696 843.2239 ZM 52.1701 859.2238 C 52.0691 859.6681 51.6906 860.0065 51.2158 860.0069 L 51.2146 860.0081 L 48.7856 860.0081 L 48.7843 860.0069 C 48.3095 860.0065 47.9309 859.6681 47.8299 859.2238 L 47.8078 859.2056 C 47.6241 858.2474 47.4976 857.1638 47.4476 855.9989 L 52.5524 855.9989 C 52.5025 857.1638 52.376 858.2474 52.1923 859.2056 L 52.1701 859.2238 ZM 52.1701 851.2239 C 52.0691 851.6681 51.6906 852.0065 51.2158 852.007 L 51.2146 852.0081 L 48.7856 852.0081 L 48.7843 852.007 C 48.3095 852.0065 47.9309 851.6681 47.8299 851.2239 L 47.8078 851.2056 C 47.6241 850.2474 47.4976 849.1638 47.4476 847.9989 L 52.5524 847.9989 C 52.5025 849.1638 52.376 850.2474 52.1923 851.2056 L 52.1701 851.2239 ZM 52.1701 843.2239 C 52.0691 843.6682 51.6906 844.0065 51.2158 844.007 L 51.2146 844.0081 L 48.7856 844.0081 L 48.7843 844.007 C 48.3095 844.0065 47.9309 843.6682 47.8299 843.2239 L 47.8078 843.2056 C 47.6241 842.2474 47.4976 841.1638 47.4476 839.9989 L 52.5524 839.9989 C 52.5025 841.1638 52.376 842.2474 52.1923 843.2056 L 52.1701 843.2239 ZM 44.4707 859.2238 C 44.3697 859.6681 43.9911 860.0065 43.5163 860.0069 L 43.515 860.0081 L 41.0861 860.0081 L 41.0848 860.0069 C 40.61 860.0065 40.2315 859.6681 40.1305 859.2238 L 40.1083 859.2056 C 39.9246 858.2474 39.7981 857.1638 39.7482 855.9989 L 44.8529 855.9989 C 44.803 857.1638 44.6765 858.2474 44.4928 859.2056 L 44.4707 859.2238 ZM 44.4707 851.2239 C 44.3697 851.6681 43.9911 852.0065 43.5163 852.007 L 43.515 852.0081 L 41.0861 852.0081 L 41.0848 852.007 C 40.61 852.0065 40.2315 851.6681 40.1305 851.2239 L 40.1083 851.2056 C 39.9246 850.2474 39.7981 849.1638 39.7482 847.9989 L 44.8529 847.9989 C 44.803 849.1638 44.6765 850.2474 44.4928 851.2056 L 44.4707 851.2239 ZM 44.4707 843.2239 C 44.3697 843.6682 43.9911 844.0065 43.5163 844.007 L 43.515 844.0081 L 41.0861 844.0081 L 41.0848 844.007 C 40.61 844.0065 40.2315 843.6682 40.1305 843.2239 L 40.1083 843.2056 C 39.9246 842.2474 39.7981 841.1638 39.7482 839.9989 L 44.8529 839.9989 C 44.803 841.1638 44.6765 842.2474 44.4928 843.2056 L 44.4707 843.2239 ZM 59.8918 859.2056 L 59.8696 859.2238 C 59.7686 859.6681 59.39 860.0065 58.9152 860.0069 L 58.914 860.0081 L 56.485 860.0081 L 56.4837 860.0069 C 56.0089 860.0065 55.6304 859.6681 55.5294 859.2238 L 55.5072 859.2056 C 55.3235 858.2474 55.197 857.1638 55.1471 855.9989 L 60.2518 855.9989 C 60.2019 857.1638 60.0754 858.2474 59.8918 859.2056 Z" fill="#ffffff"/>	<path id="Messaging%202%20copy" d="M 259.1979 757.9412 L 251.8366 757.9412 L 246.8599 762.9181 L 246.8599 757.9412 L 241.801 757.9412 C 241.1146 757.9412 240.5582 757.3849 240.5582 756.6986 L 240.5582 743.3017 C 240.5582 742.6152 241.1146 742.059 241.801 742.059 L 259.1979 742.059 C 259.8842 742.059 260.4405 742.6152 260.4405 743.3017 L 260.4405 756.6986 C 260.4405 757.3849 259.8842 757.9412 259.1979 757.9412 Z" fill="#ffffff"/>	<path id="Recents" d="M 150 761.9358 C 143.4082 761.9358 138.0644 756.592 138.0644 750 C 138.0644 743.4083 143.4082 738.0646 150 738.0646 C 156.5919 738.0646 161.9357 743.4083 161.9357 750 C 161.9357 756.592 156.5919 761.9358 150 761.9358 ZM 151.0894 750.1597 C 150.3988 750.1597 149.839 749.5999 149.839 748.9092 L 149.839 741.5334 C 149.1018 741.5474 148.3891 741.6568 147.7095 741.8474 L 147.7095 749.2184 C 147.7095 750.9122 149.0823 752.2849 150.7758 752.2849 L 158.1543 752.2849 C 158.3441 751.6066 158.453 750.8954 158.4667 750.1597 L 151.0894 750.1597 Z" fill="#ffffff"/>	<path id="Contacts" d="M 359.4579 755.953 C 359.4577 758.572 358.937 761.0098 358.05 763.0873 L 341.95 763.0873 C 341.063 761.0098 340.5423 758.572 340.5421 755.953 L 340.5471 755.953 C 340.5471 755.9526 340.547 755.9521 340.547 755.9517 C 340.547 753.3405 342.7249 751.0902 345.8768 750.0201 L 350.0015 754.1448 L 354.1253 750.0209 C 357.2761 751.0912 359.4531 753.3411 359.4531 755.9517 C 359.4531 755.9521 359.453 755.9526 359.453 755.953 L 359.4579 755.953 ZM 350 748.5533 C 347.0199 748.5533 344.604 746.1375 344.604 743.1573 C 344.604 740.1771 347.0199 737.7612 350 737.7612 C 352.9802 737.7612 355.3961 740.1771 355.3961 743.1573 C 355.3961 746.1375 352.9802 748.5533 350 748.5533 Z" fill="#ffffff"/>	<path id="Mark%20Unread" d="M 352.8856 656.7172 C 352.4529 657.1462 351.7515 657.1462 351.3188 656.7172 L 343.3276 648.81 C 343.4919 648.6403 343.7202 648.5325 343.9762 648.5325 L 360.2388 648.5325 C 360.4876 648.5325 360.7128 648.6325 360.876 648.794 L 352.8856 656.7172 ZM 355.9396 640.9087 C 355.9398 640.916 355.9438 640.9221 355.9438 640.9295 L 355.9438 647.8558 L 348.9924 647.8558 L 355.9396 640.9087 ZM 352.9921 640.0425 C 352.9921 639.8422 352.8297 639.6797 352.6294 639.6797 L 341.3483 639.6797 C 341.1479 639.6797 340.9856 639.8422 340.9856 640.0425 L 340.9856 643.001 L 338.2869 640.3024 C 338.4492 640.1377 338.6739 640.0349 338.9234 640.0349 L 339.8306 640.0349 L 339.8306 638.9196 C 339.8306 638.4254 340.2312 638.0248 340.7253 638.0248 L 353.2511 638.0248 C 353.7453 638.0248 354.1458 638.4254 354.1458 638.9196 L 354.1458 640.0349 L 355.0491 640.0349 C 355.2959 640.0349 355.5191 640.1348 355.681 640.2963 L 352.9921 642.9852 L 352.9921 640.0425 ZM 343.9825 647.8558 C 343.3336 647.8558 342.7876 648.2313 342.5062 648.7643 L 342.4019 648.7643 L 342.4643 648.826 C 342.3633 649.0404 342.298 649.2737 342.298 649.526 L 342.298 654.35 L 338.9234 654.35 C 338.4292 654.35 338.0286 653.9495 338.0286 653.4553 L 338.0286 640.9295 C 338.0286 640.9255 338.0308 640.9223 338.0308 640.9183 L 344.9683 647.8558 L 343.9825 647.8558 ZM 350.9311 657.2048 C 351.5775 657.8459 352.6257 657.8459 353.2722 657.2048 L 361.1368 649.4063 C 361.137 649.4137 361.1411 649.4198 361.1411 649.4272 L 361.1411 661.9531 C 361.1411 662.4471 360.7372 662.8477 360.2388 662.8477 L 343.9762 662.8477 C 343.4778 662.8477 343.0739 662.4471 343.0739 661.9531 L 343.0739 649.4293 L 350.9311 657.2048 Z" fill="#ffffff"/>	<path id="Mark%20Read" d="M 57.9921 751.5477 L 57.9921 748.605 C 57.9921 748.4047 57.8297 748.2423 57.6294 748.2423 L 46.3483 748.2423 C 46.1479 748.2423 45.9856 748.4047 45.9856 748.605 L 45.9856 751.5635 L 43.4075 748.9854 L 43.2056 748.9854 C 43.3677 748.7565 43.6215 748.5974 43.9234 748.5974 L 44.8306 748.5974 L 44.8306 747.4821 C 44.8306 746.9879 45.2312 746.5873 45.7253 746.5873 L 58.2511 746.5873 C 58.7453 746.5873 59.1458 746.9879 59.1458 747.4821 L 59.1458 748.5974 L 60.0491 748.5974 C 60.2959 748.5974 60.5191 748.6973 60.681 748.8588 L 57.9921 751.5477 ZM 56.1368 740.7064 C 56.137 740.7137 56.1411 740.7198 56.1411 740.7272 L 56.1411 746.0784 L 50.7192 746.0784 L 56.1368 740.7064 ZM 45.3254 746.0784 C 45.0555 746.0784 44.8188 746.1842 44.6188 746.335 L 38.3276 740.11 C 38.4919 739.9402 38.7203 739.8325 38.9762 739.8325 L 55.2388 739.8325 C 55.4876 739.8325 55.7128 739.9325 55.876 740.094 L 49.8409 746.0784 L 45.3254 746.0784 ZM 44.1299 747.2739 L 44.1299 747.8558 L 43.9825 747.8558 C 43.0522 747.8558 42.298 748.6035 42.298 749.526 L 42.298 754.1477 L 38.9762 754.1477 C 38.4779 754.1477 38.0738 753.7471 38.0738 753.2531 L 38.0738 740.7292 L 44.2227 746.8142 C 44.1636 746.9558 44.1299 747.1108 44.1299 747.2739 ZM 50.8197 757.2698 C 51.4607 757.9107 52.5001 757.9107 53.1411 757.2698 L 60.9396 749.4712 C 60.9398 749.4785 60.9438 749.4846 60.9438 749.492 L 60.9438 762.0179 C 60.9438 762.5119 60.5433 762.9125 60.0491 762.9125 L 43.9234 762.9125 C 43.4292 762.9125 43.0286 762.5119 43.0286 762.0179 L 43.0286 749.492 C 43.0286 749.488 43.0308 749.4847 43.0308 749.4808 L 50.8197 757.2698 Z" fill="#ffffff"/>	<path id="Bookmark%20/%20Favorite%20copy" d="M 160.8213 648.1575 C 160.8217 648.1593 160.8225 648.1609 160.8229 648.1627 L 155.8767 652.8548 L 157.1226 659.5706 C 157.1204 659.5724 157.1178 659.5738 157.1156 659.5756 C 157.1658 659.8521 157.065 660.1455 156.8225 660.3218 C 156.5766 660.5004 156.2607 660.5049 156.0116 660.366 C 156.01 660.3671 156.0085 660.3684 156.0068 660.3694 L 150.0141 657.1143 L 144.0214 660.3694 C 144.0195 660.3682 144.0179 660.3667 144.016 660.3655 C 143.7669 660.5045 143.4509 660.4999 143.2049 660.3212 C 142.9623 660.145 142.8616 659.8515 142.9118 659.5749 C 142.9098 659.5733 142.9075 659.5721 142.9055 659.5704 L 144.1514 652.8548 L 139.2054 648.1629 C 139.2059 648.1608 139.2068 648.1589 139.2073 648.1569 C 138.9969 647.963 138.9032 647.6599 138.9974 647.3699 C 139.091 647.0818 139.3428 646.8931 139.6248 646.8582 C 139.6256 646.8563 139.626 646.8541 139.6268 646.8522 L 146.3908 645.9629 L 149.3236 639.8113 C 149.3256 639.8112 149.3277 639.8111 149.3297 639.811 C 149.4486 639.5498 149.7088 639.3663 150.0145 639.3663 C 150.3202 639.3663 150.5805 639.5498 150.6993 639.811 C 150.7011 639.8111 150.7028 639.8112 150.7046 639.8113 L 153.6374 645.9629 L 160.4016 646.8522 C 160.4025 646.8544 160.4029 646.8568 160.4038 646.8591 C 160.6858 646.894 160.9374 647.0827 161.031 647.3708 C 161.1252 647.6606 161.0315 647.9636 160.8213 648.1575 ZM 152.469 647.5169 L 150.0141 642.3677 L 147.5591 647.5169 L 141.9032 648.2605 L 146.0419 652.1865 L 145.0013 657.7953 L 150.0141 655.0725 L 155.0268 657.7953 L 153.9863 652.1865 L 158.1249 648.2605 L 152.469 647.5169 Z" fill="#ffffff"/>	<path id="Send%20New" d="M 264.473 650.7775 L 261.1615 654.089 C 260.8909 654.3594 260.5174 654.439 260.1687 654.3674 L 260.1687 652.024 L 256.9527 652.024 L 256.9527 658.707 C 256.9527 659.3932 256.3964 659.9496 255.7101 659.9496 L 238.3132 659.9496 C 237.6268 659.9496 237.0704 659.3932 237.0704 658.707 L 237.0704 645.3561 L 238.6745 643.752 L 238.6745 657.8435 C 238.6745 658.1217 238.9 658.3471 239.1783 658.3471 L 254.8465 658.3471 C 255.1248 658.3471 255.3503 658.1217 255.3503 657.8435 L 255.3503 652.024 L 252.2983 652.024 C 252.0246 650.6941 252.0249 649.3206 252.2989 647.9905 L 255.3503 647.9905 L 255.3503 642.1752 C 255.3503 641.8969 255.1248 641.6714 254.8465 641.6714 L 240.7552 641.6714 L 242.3593 640.0673 L 255.7101 640.0673 C 256.3964 640.0673 256.9527 640.6237 256.9527 641.31 L 256.9527 647.9905 L 260.1687 647.9905 L 260.1687 645.6374 C 260.5174 645.566 260.8909 645.6455 261.1615 645.916 L 264.473 649.2276 C 264.901 649.6555 264.901 650.3493 264.473 650.7775 Z" fill="#ffffff"/>	<path id="Edit" d="M 62.5281 641.3285 L 62.5283 641.3287 L 59.9527 643.9044 L 59.9527 658.707 C 59.9527 659.3932 59.3964 659.9496 58.7101 659.9496 L 41.3131 659.9496 C 40.6268 659.9496 40.0704 659.3932 40.0704 658.707 L 40.0704 645.3561 L 41.6745 643.752 L 41.6745 657.8435 C 41.6745 658.1217 41.9 658.3471 42.1783 658.3471 L 57.8466 658.3471 C 58.1248 658.3471 58.3503 658.1217 58.3503 657.8435 L 58.3503 645.5068 L 47.8532 656.004 L 47.8532 656.0045 L 43.977 656.0045 L 43.977 652.1282 L 43.9774 652.1282 L 43.9806 652.125 L 47.8563 656.0008 L 48.8252 655.0318 L 44.9496 651.1561 L 54.4343 641.6714 L 43.7552 641.6714 L 45.3593 640.0673 L 56.0384 640.0673 L 58.6526 637.4531 L 58.6528 637.4532 C 59.1973 636.9099 60.5054 637.3364 61.5752 638.4061 C 62.6451 639.476 63.0714 640.7841 62.5281 641.3285 Z" fill="#ffffff"/>	<path id="Select%20All" d="M 360.7476 561.9377 L 357.5001 561.9377 L 357.5001 560.3997 L 359.9188 560.3997 C 360.1858 560.3997 360.4023 560.1832 360.4023 559.9162 L 360.4023 557.5001 L 361.9402 557.5001 L 361.9402 560.7451 C 361.9402 561.4036 361.4063 561.9377 360.7476 561.9377 ZM 360.4023 547.5001 L 361.9402 547.5001 L 361.9402 552.5001 L 360.4023 552.5001 L 360.4023 547.5001 ZM 360.4023 540.079 C 360.4023 539.8121 360.1858 539.5955 359.9188 539.5955 L 357.5001 539.5955 L 357.5001 538.056 L 360.7476 538.056 C 361.4063 538.056 361.9402 538.5898 361.9402 539.2488 L 361.9402 542.5 L 360.4023 542.5 L 360.4023 540.079 ZM 347.5001 538.056 L 352.5 538.056 L 352.5 539.5955 L 347.5001 539.5955 L 347.5001 538.056 ZM 357.5099 545.3751 L 342.5103 545.3751 L 342.5103 543.1251 L 357.5099 543.1251 L 357.5099 545.3751 ZM 338.0585 560.7451 L 338.0585 557.5001 L 339.5982 557.5001 L 339.5982 559.9162 C 339.5982 560.1832 339.8146 560.3997 340.0817 560.3997 L 342.4999 560.3997 L 342.4999 561.9377 L 339.2513 561.9377 C 338.5926 561.9377 338.0585 561.4036 338.0585 560.7451 ZM 339.5982 540.079 L 339.5982 542.5 L 338.0585 542.5 L 338.0585 539.2488 C 338.0585 538.5898 338.5926 538.056 339.2513 538.056 L 342.4999 538.056 L 342.4999 539.5955 L 340.0817 539.5955 C 339.8146 539.5955 339.5982 539.8121 339.5982 540.079 ZM 339.5982 552.5001 L 338.0585 552.5001 L 338.0585 547.5001 L 339.5982 547.5001 L 339.5982 552.5001 ZM 357.5099 551.1251 L 342.5103 551.1251 L 342.5103 548.8751 L 357.5099 548.8751 L 357.5099 551.1251 ZM 357.5099 556.8751 L 342.5103 556.8751 L 342.5103 554.6251 L 357.5099 554.6251 L 357.5099 556.8751 ZM 352.5 561.9377 L 347.5001 561.9377 L 347.5001 560.3997 L 352.5 560.3997 L 352.5 561.9377 Z" fill="#ffffff"/>	<path id="Video%20Recorder" d="M 261.2497 557.0343 L 256 551.7846 L 256 556.4845 C 256 557.8652 254.8807 558.9845 253.5 558.9845 L 240.5 558.9845 C 239.1193 558.9845 238 557.8652 238 556.4845 L 238 543.4845 C 238 542.1039 239.1193 540.9846 240.5 540.9846 L 253.5 540.9846 C 254.8807 540.9846 256 542.1039 256 543.4845 L 256 548.1774 L 261.2497 542.9277 C 261.7166 542.4608 262.3614 542.3235 262.9632 542.4468 L 262.9632 557.515 C 262.3614 557.6382 261.7166 557.501 261.2497 557.0343 Z" fill="#ffffff"/>	<path id="Camera" d="M 160.5 559.8512 L 139.5 559.8512 C 138.1193 559.8512 137 558.7318 137 557.3511 L 137 542.6178 C 137 541.2372 138.1193 540.1179 139.5 540.1179 L 145.6668 540.1179 C 146.2149 539.4609 147.0293 539.034 147.9518 539.034 L 152.0677 539.034 C 152.9901 539.034 153.8046 539.4609 154.3527 540.1179 L 160.5 540.1179 C 161.8807 540.1179 163 541.2372 163 542.6178 L 163 557.3511 C 163 558.7318 161.8807 559.8512 160.5 559.8512 ZM 150.0054 542.7014 C 145.9744 542.7014 142.7067 545.9691 142.7067 550.0002 C 142.7067 554.0311 145.9744 557.2986 150.0054 557.2986 C 154.0363 557.2986 157.304 554.0311 157.304 550.0002 C 157.304 545.9691 154.0363 542.7014 150.0054 542.7014 ZM 150.0029 554.7904 C 147.3573 554.7904 145.2126 552.6458 145.2126 550.0002 C 145.2126 547.3545 147.3573 545.2098 150.0029 545.2098 C 152.6485 545.2098 154.7932 547.3545 154.7932 550.0002 C 154.7932 552.6458 152.6485 554.7904 150.0029 554.7904 Z" fill="#ffffff"/>	<path id="Agenda%20View" d="M 40.0044 558.7217 L 40.0044 556.4116 L 59.9944 556.4116 L 59.9944 558.7217 L 40.0044 558.7217 ZM 45.3357 553.7335 L 45.3357 552.6547 L 54.6709 552.6547 L 54.6709 553.7335 L 45.3357 553.7335 ZM 40.0044 548.4117 L 59.9944 548.4117 L 59.9944 550.7217 L 40.0044 550.7217 L 40.0044 548.4117 ZM 45.3357 545.7335 L 45.3357 544.6547 L 54.6709 544.6547 L 54.6709 545.7335 L 45.3357 545.7335 ZM 40.0044 540.4117 L 59.9944 540.4117 L 59.9944 542.7217 L 40.0044 542.7217 L 40.0044 540.4117 ZM 54.6709 561.7335 L 45.3357 561.7335 L 45.3357 560.6547 L 54.6709 560.6547 L 54.6709 561.7335 Z" fill="#ffffff"/>	<path id="Day%20View" d="M 353.7375 462.8672 L 339.4879 462.8672 C 338.6591 462.8672 337.9873 462.1953 337.9873 461.3668 L 337.9873 440.8599 C 337.9873 440.0309 338.6591 439.3593 339.4879 439.3593 L 343.2043 439.3593 L 343.2043 440.9744 C 343.2043 441.4098 343.5571 441.7625 343.9922 441.7625 C 344.4274 441.7625 344.7802 441.4098 344.7802 440.9744 L 344.7802 439.3593 L 355.2043 439.3593 L 355.2043 440.9744 C 355.2043 441.4098 355.5571 441.7625 355.9922 441.7625 C 356.4274 441.7625 356.7802 441.4098 356.7802 440.9744 L 356.7802 439.3593 L 360.4946 439.3593 C 361.3234 439.3593 361.9951 440.0309 361.9951 440.8599 L 361.9951 454.6095 L 353.7375 462.8672 ZM 351.003 447.1247 L 349.703 447.1247 L 346.851 449.3665 L 347.6337 450.3548 C 348.4782 449.6694 348.9745 449.2626 349.1227 449.1343 C 349.2708 449.0061 349.3957 448.889 349.4974 448.7828 C 349.462 449.2206 349.4443 449.8132 349.4443 450.5604 L 349.4443 456.8214 L 351.003 456.8214 L 351.003 447.1247 ZM 343.2043 437.4945 C 343.2043 437.0593 343.5571 436.7065 343.9922 436.7065 C 344.4274 436.7065 344.7802 437.0593 344.7802 437.4945 L 344.7802 439.3593 L 343.2043 439.3593 L 343.2043 437.4945 ZM 355.2043 437.4945 C 355.2043 437.0593 355.5571 436.7065 355.9922 436.7065 C 356.4274 436.7065 356.7802 437.0593 356.7802 437.4945 L 356.7802 439.3593 L 355.2043 439.3593 L 355.2043 437.4945 Z" fill="#ffffff"/>	<path id="Week%20View" d="M 257.875 458.7296 L 257.875 448.8751 L 261.275 448.8751 L 261.275 448.1251 L 257.875 448.1251 L 257.125 448.1251 L 252.875 448.1251 L 252.125 448.1251 L 247.875 448.1251 L 247.125 448.1251 L 242.875 448.1251 L 242.125 448.1251 L 238.7399 448.1251 L 238.7399 448.8751 L 242.125 448.8751 L 242.125 462.8672 L 239.4879 462.8672 C 238.6591 462.8672 237.9873 462.1953 237.9873 461.3668 L 237.9873 440.8599 C 237.9873 440.0309 238.6591 439.3593 239.4879 439.3593 L 243.2043 439.3593 L 243.2043 440.9744 C 243.2043 441.4098 243.5571 441.7625 243.9922 441.7625 C 244.4274 441.7625 244.7802 441.4098 244.7802 440.9744 L 244.7802 439.3593 L 255.2043 439.3593 L 255.2043 440.9744 C 255.2043 441.4098 255.5571 441.7625 255.9922 441.7625 C 256.4274 441.7625 256.7802 441.4098 256.7802 440.9744 L 256.7802 439.3593 L 260.4946 439.3593 C 261.3234 439.3593 261.9951 440.0309 261.9951 440.8599 L 261.9951 454.6095 L 257.875 458.7296 ZM 243.2043 437.4945 C 243.2043 437.0593 243.5571 436.7065 243.9922 436.7065 C 244.4274 436.7065 244.7802 437.0593 244.7802 437.4945 L 244.7802 439.3593 L 243.2043 439.3593 L 243.2043 437.4945 ZM 255.2043 437.4945 C 255.2043 437.0593 255.5571 436.7065 255.9922 436.7065 C 256.4274 436.7065 256.7802 437.0593 256.7802 437.4945 L 256.7802 439.3593 L 255.2043 439.3593 L 255.2043 437.4945 ZM 247.125 448.8751 L 247.125 462.8672 L 242.875 462.8672 L 242.875 448.8751 L 247.125 448.8751 ZM 252.125 448.8751 L 252.125 462.8672 L 247.875 462.8672 L 247.875 448.8751 L 252.125 448.8751 ZM 257.125 448.8751 L 257.125 459.4796 L 253.7374 462.8672 L 252.875 462.8672 L 252.875 448.8751 L 257.125 448.8751 Z" fill="#ffffff"/>	<path id="Month%20View" d="M 160.875 455.7232 L 160.875 448.0002 L 160.125 448.0002 L 160.125 448.1251 L 155.875 448.1251 L 155.875 448.0002 L 155.125 448.0002 L 155.125 448.1251 L 150.875 448.1251 L 150.875 448.0002 L 150.125 448.0002 L 150.125 448.1251 L 145.875 448.1251 L 145.875 448.0002 L 145.125 448.0002 L 145.125 448.1251 L 140.875 448.1251 L 140.875 448.0002 L 140.125 448.0002 L 140.125 462.8523 L 139.514 462.8523 C 138.6863 462.8523 138.0153 462.1812 138.0153 461.3537 L 138.0153 440.8729 C 138.0153 440.0451 138.6863 439.3741 139.514 439.3741 L 143.2173 439.3741 L 143.2173 440.9744 C 143.2173 441.4098 143.5701 441.7625 144.0052 441.7625 C 144.4404 441.7625 144.7932 441.4098 144.7932 440.9744 L 144.7932 439.3741 L 155.2173 439.3741 L 155.2173 440.9744 C 155.2173 441.4098 155.5701 441.7625 156.0052 441.7625 C 156.4404 441.7625 156.7932 441.4098 156.7932 440.9744 L 156.7932 439.3741 L 160.4947 439.3741 C 161.3224 439.3741 161.9933 440.0451 161.9933 440.8729 L 161.9933 454.6049 L 160.875 455.7232 ZM 156.9493 444.1667 L 143.0743 444.1667 L 143.0743 445.6667 L 156.9493 445.6667 L 156.9493 444.1667 ZM 143.2173 437.4945 C 143.2173 437.0593 143.5701 436.7065 144.0052 436.7065 C 144.4404 436.7065 144.7932 437.0593 144.7932 437.4945 L 144.7932 439.3741 L 143.2173 439.3741 L 143.2173 437.4945 ZM 155.2173 437.4945 C 155.2173 437.0593 155.5701 436.7065 156.0052 436.7065 C 156.4404 436.7065 156.7932 437.0593 156.7932 437.4945 L 156.7932 439.3741 L 155.2173 439.3741 L 155.2173 437.4945 ZM 145.125 452.1252 L 140.875 452.1252 L 140.875 448.8751 L 145.125 448.8751 L 145.125 452.1252 ZM 145.125 456.1252 L 140.875 456.1252 L 140.875 452.8751 L 145.125 452.8751 L 145.125 456.1252 ZM 145.125 460.1252 L 140.875 460.1252 L 140.875 456.8751 L 145.125 456.8751 L 145.125 460.1252 ZM 145.125 462.8523 L 140.875 462.8523 L 140.875 460.8751 L 145.125 460.8751 L 145.125 462.8523 ZM 150.125 452.1252 L 145.875 452.1252 L 145.875 448.8751 L 150.125 448.8751 L 150.125 452.1252 ZM 150.125 456.1252 L 145.875 456.1252 L 145.875 452.8751 L 150.125 452.8751 L 150.125 456.1252 ZM 150.125 460.1252 L 145.875 460.1252 L 145.875 456.8751 L 150.125 456.8751 L 150.125 460.1252 ZM 150.125 462.8523 L 145.875 462.8523 L 145.875 460.8751 L 150.125 460.8751 L 150.125 462.8523 ZM 155.125 452.1252 L 150.875 452.1252 L 150.875 448.8751 L 155.125 448.8751 L 155.125 452.1252 ZM 155.125 456.1252 L 150.875 456.1252 L 150.875 452.8751 L 155.125 452.8751 L 155.125 456.1252 ZM 155.125 460.1252 L 150.875 460.1252 L 150.875 456.8751 L 155.125 456.8751 L 155.125 460.1252 ZM 155.125 461.4732 L 153.7459 462.8523 L 150.875 462.8523 L 150.875 460.8751 L 155.125 460.8751 L 155.125 461.4732 ZM 160.125 452.1252 L 155.875 452.1252 L 155.875 448.8751 L 160.125 448.8751 L 160.125 452.1252 ZM 160.125 456.1252 L 155.875 456.1252 L 155.875 452.8751 L 160.125 452.8751 L 160.125 456.1252 ZM 156.473 460.1252 L 155.875 460.1252 L 155.875 456.8751 L 159.7231 456.8751 L 156.473 460.1252 Z" fill="#ffffff"/>	<path id="Today%20%28Goto%29" d="M 53.7459 462.8523 L 40.6203 462.8523 L 44.9379 458.5348 L 47.4569 461.0537 C 47.8182 460.8153 48.0711 460.4257 48.0712 459.9604 L 48.0711 454.2639 C 48.0711 453.5277 47.4744 452.931 46.7382 452.931 L 41.0418 452.931 C 40.5764 452.9309 40.1867 453.1837 39.9483 453.5452 L 42.4522 456.0491 L 38.0153 460.4861 L 38.0153 440.8729 C 38.0153 440.0451 38.6863 439.3742 39.514 439.3742 L 43.2173 439.3742 L 43.2173 440.9744 C 43.2173 441.4098 43.5701 441.7625 44.0052 441.7625 C 44.4404 441.7625 44.7932 441.4098 44.7932 440.9744 L 44.7932 439.3742 L 55.2173 439.3742 L 55.2173 440.9744 C 55.2173 441.4098 55.5701 441.7625 56.0052 441.7625 C 56.4404 441.7625 56.7932 441.4098 56.7932 440.9744 L 56.7932 439.3742 L 60.4947 439.3742 C 61.3224 439.3742 61.9933 440.0451 61.9933 440.8729 L 61.9933 454.6049 L 53.7459 462.8523 ZM 50 452.5 C 50.8284 452.5 51.4999 451.8285 51.4999 451.0001 C 51.4999 450.1717 50.8284 449.5002 50 449.5002 C 49.1716 449.5002 48.5001 450.1717 48.5001 451.0001 C 48.5001 451.8285 49.1716 452.5 50 452.5 ZM 60.6563 448.1251 L 40.3229 448.1251 L 40.3229 448.8751 L 60.6563 448.8751 L 60.6563 448.1251 ZM 43.2173 437.4945 C 43.2173 437.0593 43.5701 436.7065 44.0052 436.7065 C 44.4404 436.7065 44.7932 437.0593 44.7932 437.4945 L 44.7932 439.3742 L 43.2173 439.3742 L 43.2173 437.4945 ZM 55.2173 437.4945 C 55.2173 437.0593 55.5701 436.7065 56.0052 436.7065 C 56.4404 436.7065 56.7932 437.0593 56.7932 437.4945 L 56.7932 439.3742 L 55.2173 439.3742 L 55.2173 437.4945 Z" fill="#ffffff"/>	<path id="Forward" d="M 354.2206 352.5616 C 353.905 352.8771 353.469 352.97 353.0621 352.8866 L 353.0621 349.5695 L 349.588 349.5695 L 349.588 349.6971 C 349.2032 349.6219 348.8072 349.5774 348.4004 349.5774 C 345.0008 349.5774 342.2448 352.3335 342.2448 355.7331 C 342.2448 356.6696 342.4701 357.5476 342.8442 358.3423 L 342.4729 358.3423 C 341.783 357.1406 341.3827 355.7516 341.3827 354.2666 C 341.3827 349.7351 345.0563 346.0614 349.588 346.0614 L 349.588 346.0685 L 353.0621 346.0685 L 353.0621 342.6987 C 353.469 342.6153 353.905 342.7081 354.2206 343.0238 L 358.0852 346.8884 C 358.5847 347.3878 358.5847 348.1974 358.0852 348.697 L 354.2206 352.5616 Z" fill="#ffffff"/>	<path id="Paste" d="M 61.71 362.9496 L 44.3131 362.9496 C 43.6268 362.9496 43.0704 362.3932 43.0704 361.7069 L 43.0704 357.9496 L 39.3131 357.9496 C 38.6268 357.9496 38.0704 357.3933 38.0704 356.7069 L 38.0704 339.31 C 38.0704 338.6235 38.6268 338.0674 39.3131 338.0674 L 42.5501 338.0674 L 42.5501 337.9818 C 42.5501 337.2954 43.1065 336.7392 43.7928 336.7392 L 46.4567 336.7392 C 46.4838 335.9115 47.1543 335.2459 47.9886 335.2459 C 48.8228 335.2459 49.4934 335.9115 49.5205 336.7392 L 52.1898 336.7392 C 52.8761 336.7392 53.4324 337.2954 53.4324 337.9818 L 53.4324 338.0674 L 56.7101 338.0674 C 57.3964 338.0674 57.9527 338.6235 57.9527 339.31 L 57.9527 343.0673 L 61.71 343.0673 C 62.3964 343.0673 62.9527 343.6235 62.9527 344.31 L 62.9527 361.7069 C 62.9527 362.3932 62.3964 362.9496 61.71 362.9496 ZM 61.3503 345.1752 C 61.3503 344.8969 61.1248 344.6714 60.8466 344.6714 L 46.7551 344.6714 L 48.3593 343.0673 L 56.3503 343.0673 L 56.3503 340.1751 C 56.3503 339.897 56.1248 339.6714 55.8466 339.6714 L 53.4375 339.6714 L 53.4375 341.4209 L 42.5469 341.4209 L 42.5469 339.6714 L 40.1783 339.6714 C 39.9 339.6714 39.6745 339.897 39.6745 340.1751 L 39.6745 355.8434 C 39.6745 356.1216 39.9 356.3472 40.1783 356.3472 L 43.0704 356.3472 L 43.0704 348.356 L 44.6745 346.752 L 44.6745 360.8434 C 44.6745 361.1216 44.9001 361.3472 45.1783 361.3472 L 60.8466 361.3472 C 61.1248 361.3472 61.3503 361.1216 61.3503 360.8434 L 61.3503 345.1752 Z" fill="#ffffff"/>	<path id="Cut" d="M 363.3499 253.4489 C 362.5587 255.1457 360.5417 255.8799 358.8448 255.0885 C 358.1042 254.7432 357.5611 254.1578 357.2341 253.474 L 353.8061 251.8756 L 351.85 252.0467 L 351.6788 254.0029 L 353.2969 257.4728 C 353.9626 257.8022 354.5315 258.3381 354.8698 259.0636 C 355.661 260.7605 354.9269 262.7775 353.23 263.5688 C 351.5331 264.36 349.5162 263.6259 348.7249 261.929 C 347.9336 260.2322 348.6678 258.2151 350.3647 257.424 C 350.8138 257.2144 351.2846 257.1185 351.7499 257.1124 L 349.8723 253.0857 C 349.8721 253.0857 349.8719 253.0858 349.8716 253.0858 L 349.1404 251.5177 L 338.621 245.4127 C 337.6229 244.8335 337.0838 243.7812 337.0944 242.7042 L 347.2371 247.4339 L 342.5075 237.2911 C 343.5844 237.2806 344.6367 237.8197 345.216 238.8177 L 351.321 249.3372 L 352.8891 250.0684 C 352.8891 250.0686 352.889 250.0688 352.889 250.069 L 356.8915 251.9354 C 356.902 251.481 357.0007 251.0218 357.2051 250.5835 C 357.9963 248.8866 360.0133 248.1525 361.7102 248.9438 C 363.4071 249.735 364.1412 251.752 363.3499 253.4489 ZM 350.6945 258.131 C 349.3882 258.7401 348.8231 260.2929 349.4322 261.5992 C 350.0413 262.9055 351.5941 263.4707 352.9003 262.8615 C 354.2066 262.2524 354.7718 260.6996 354.1627 259.3933 C 353.5535 258.0872 352.0008 257.5219 350.6945 258.131 ZM 361.3804 249.651 C 360.0741 249.0418 358.5213 249.6071 357.9122 250.9133 C 357.3031 252.2196 357.8683 253.7723 359.1746 254.3815 C 360.4808 254.9906 362.0336 254.4254 362.6427 253.1192 C 363.2518 251.8129 362.6866 250.2601 361.3804 249.651 Z" fill="#ffffff"/>	<path id="Reply%20All" d="M 257.8155 353.5115 C 257.8155 356.2798 255.7624 358.5476 253.0999 358.9302 L 253.0999 358.5395 C 255.003 358.1736 256.4422 356.504 256.4422 354.494 C 256.4422 352.2162 254.5957 350.3698 252.3179 350.3698 L 252.3179 350.3644 L 249.9903 350.3644 L 249.9903 352.5869 C 249.7176 352.6427 249.4256 352.5805 249.214 352.3691 L 246.6248 349.7799 C 246.2902 349.4452 246.2902 348.9027 246.6248 348.5681 L 249.214 345.9787 C 249.2547 345.938 249.3087 345.9281 249.3546 345.8982 C 249.2012 345.81 249.0617 345.7009 248.8962 345.6328 L 248.8962 344.6912 C 248.6236 344.6353 248.3315 344.6975 248.12 344.909 L 247.6849 345.3441 C 247.5728 345.3348 247.4625 345.3195 247.3479 345.3195 L 247.3479 345.3141 L 245.0202 345.3141 L 245.0202 347.5366 C 244.7476 347.5925 244.4555 347.5303 244.244 347.3188 L 241.6547 344.7296 C 241.3201 344.3949 241.3201 343.8524 241.6547 343.5178 L 244.244 340.9286 C 244.4555 340.717 244.7476 340.6548 245.0202 340.7107 L 245.0202 342.9685 L 247.3479 342.9685 L 247.3479 342.9637 C 249.9278 342.9637 252.0528 344.7548 252.6427 347.1524 C 252.1874 347.0303 251.7178 346.9442 251.2239 346.9442 L 251.2239 346.949 L 250.6033 346.949 C 250.4263 346.7168 250.2106 346.5204 249.9903 346.3308 L 249.9903 348.0187 L 252.3179 348.0187 L 252.3179 348.014 C 255.3542 348.014 257.8155 350.4753 257.8155 353.5115 Z" fill="#ffffff"/>	<path id="Reply" d="M 152.214 360.3795 L 152.214 359.7711 C 155.0545 359.2249 157.2026 356.733 157.2026 353.7331 C 157.2026 350.3334 154.4467 347.5775 151.047 347.5775 L 151.047 347.5695 L 147.5728 347.5695 L 147.5728 350.8866 C 147.1659 350.9701 146.7299 350.8772 146.4142 350.5615 L 142.5497 346.6971 C 142.0502 346.1974 142.0502 345.3878 142.5497 344.8884 L 146.4142 341.0238 C 146.7299 340.7081 147.1659 340.6154 147.5728 340.6986 L 147.5728 344.0685 L 151.047 344.0685 L 151.047 344.0614 C 155.5786 344.0614 159.2522 347.735 159.2522 352.2667 C 159.2522 356.401 156.1913 359.8116 152.214 360.3795 Z" fill="#ffffff"/>	<path id="Copy" d="M 260.6983 261.9847 L 243.3014 261.9847 C 242.6151 261.9847 242.0587 261.4283 242.0587 260.7422 L 242.0587 257.9847 L 239.3014 257.9847 C 238.6151 257.9847 238.0587 257.4283 238.0587 256.7422 L 238.0587 243.3912 L 239.6628 241.7872 L 239.6628 255.8786 C 239.6628 256.1569 239.8883 256.3824 240.1666 256.3824 L 242.0587 256.3824 L 242.0587 247.3913 L 243.6628 245.7872 L 243.6628 259.8786 C 243.6628 260.1569 243.8883 260.3824 244.1666 260.3824 L 259.8348 260.3824 C 260.113 260.3824 260.3386 260.1569 260.3386 259.8786 L 260.3386 244.2103 C 260.3386 243.9321 260.113 243.7065 259.8348 243.7065 L 245.7435 243.7065 L 247.3476 242.1024 L 256.3386 242.1024 L 256.3386 240.2103 C 256.3386 239.9322 256.1131 239.7065 255.8348 239.7065 L 241.7434 239.7065 L 243.3475 238.1024 L 256.6983 238.1024 C 257.3847 238.1024 257.9409 238.6588 257.9409 239.3452 L 257.9409 242.1024 L 260.6983 242.1024 C 261.3847 242.1024 261.9409 242.6588 261.9409 243.3452 L 261.9409 260.7422 C 261.9409 261.4283 261.3847 261.9847 260.6983 261.9847 Z" fill="#ffffff"/>	<path id="New%20/%20Add" d="M 152.0533 259.0928 C 151.0281 259.2787 149.9773 259.2796 148.9514 259.098 L 148.9514 252.0487 L 141.8757 252.0487 C 141.6904 251.0233 141.6897 249.9725 141.8719 248.9468 L 148.9514 248.9468 L 148.9514 241.8714 C 149.9773 241.6898 151.0281 241.6907 152.0533 241.8766 L 152.0533 248.9468 L 159.0971 248.9468 C 159.2793 249.9725 159.2786 251.0233 159.0933 252.0487 L 152.0533 252.0487 L 152.0533 259.0928 Z" fill="#ffffff"/>	<path id="Delete" d="M 41.0748 245.8516 L 41.0748 244.063 C 41.0748 242.5842 42.2736 241.3854 43.7524 241.3854 L 45.0524 241.3854 L 45.0524 240.7392 C 45.0524 239.3191 46.2035 238.168 47.6235 238.168 L 52.3765 238.168 C 53.7965 238.168 54.9476 239.3191 54.9476 240.7392 L 54.9476 241.3854 L 56.2477 241.3854 C 57.7265 241.3854 58.9252 242.5842 58.9252 244.063 L 58.9252 245.8516 L 41.0748 245.8516 ZM 53.5532 240.8265 C 53.5532 240.0801 52.9481 239.4749 52.2016 239.4749 L 47.7974 239.4749 C 47.0509 239.4749 46.4457 240.0801 46.4457 240.8265 L 46.4457 241.3854 L 53.5532 241.3854 L 53.5532 240.8265 ZM 56.2785 260.1356 C 56.1836 261.109 55.3287 261.8767 54.3664 261.8767 L 45.6544 261.8767 C 44.6921 261.8767 43.8374 261.109 43.7429 260.1356 L 42.4349 246.6685 L 57.5912 246.6685 L 56.2785 260.1356 Z" fill="#ffffff"/>	<path id="Cancel%20%28New%20-%20Thinner%29" d="M 345.6296 147.3776 L 341.589 143.337 C 341.8978 142.1731 342.323 141.1102 342.834 140.1689 L 348.5134 145.8483 L 354.1758 140.1859 C 354.6856 141.1287 355.1091 142.1934 355.4166 143.3582 L 351.3972 147.3776 C 351.3901 147.3843 351.382 147.389 351.375 147.3958 C 351.0457 147.7253 351.0375 148.2503 351.3439 148.5934 L 351.3402 148.5971 L 355.4152 152.672 C 355.1079 153.8345 354.6848 154.8968 354.176 155.8379 L 348.5134 150.1754 L 342.8337 155.855 C 342.3237 154.9154 341.8993 153.8544 341.5907 152.693 L 345.6866 148.5971 L 345.6829 148.5934 C 345.9893 148.2503 345.9811 147.7253 345.6518 147.3958 C 345.6449 147.389 345.6367 147.3843 345.6296 147.3776 Z" fill="#ffffff"/>	<path id="Dismiss%20Keyboard" d="M 251.4086 163.2468 C 250.6285 164.027 249.3638 164.027 248.5836 163.2468 L 242.2996 156.9629 L 242.2996 156.9378 L 257.7005 156.9378 L 257.7005 156.955 L 251.4086 163.2468 ZM 256.9615 151.2159 C 256.8903 151.5292 256.6232 151.7679 256.2883 151.7682 L 256.2875 151.769 L 254.5742 151.769 L 254.5732 151.7682 C 254.2384 151.7679 253.9714 151.5292 253.9001 151.2159 L 253.8845 151.203 C 253.7549 150.5271 253.6657 149.7629 253.6305 148.9411 L 257.2311 148.9411 C 257.1959 149.7629 257.1066 150.5271 256.9771 151.203 L 256.9615 151.2159 ZM 256.9615 145.2421 C 256.8903 145.5554 256.6232 145.794 256.2883 145.7944 L 256.2875 145.7952 L 254.5742 145.7952 L 254.5732 145.7944 C 254.2384 145.794 253.9714 145.5554 253.9001 145.2421 L 253.8845 145.2292 C 253.7549 144.5533 253.6657 143.789 253.6305 142.9673 L 257.2311 142.9673 C 257.1959 143.789 257.1066 144.5533 256.9771 145.2292 L 256.9615 145.2421 ZM 256.9615 139.268 C 256.8903 139.5815 256.6232 139.8202 256.2883 139.8205 L 256.2875 139.8213 L 254.5742 139.8213 L 254.5732 139.8205 C 254.2384 139.8202 253.9714 139.5815 253.9001 139.268 L 253.8845 139.2553 C 253.7549 138.5794 253.6657 137.8152 253.6305 136.9934 L 257.2311 136.9934 C 257.1959 137.8152 257.1066 138.5794 256.9771 139.2553 L 256.9615 139.268 ZM 251.5307 151.2159 C 251.4595 151.5292 251.1924 151.7679 250.8576 151.7682 L 250.8567 151.769 L 249.1434 151.769 L 249.1425 151.7682 C 248.8076 151.7679 248.5406 151.5292 248.4694 151.2159 L 248.4537 151.203 C 248.3242 150.5271 248.235 149.7629 248.1998 148.9411 L 251.8003 148.9411 C 251.7651 149.7629 251.6759 150.5271 251.5464 151.203 L 251.5307 151.2159 ZM 251.5307 145.2421 C 251.4595 145.5554 251.1924 145.794 250.8576 145.7944 L 250.8567 145.7952 L 249.1434 145.7952 L 249.1425 145.7944 C 248.8076 145.794 248.5406 145.5554 248.4694 145.2421 L 248.4537 145.2292 C 248.3242 144.5533 248.235 143.789 248.1998 142.9673 L 251.8003 142.9673 C 251.7651 143.789 251.6759 144.5533 251.5464 145.2292 L 251.5307 145.2421 ZM 251.5307 139.268 C 251.4595 139.5815 251.1924 139.8202 250.8576 139.8205 L 250.8567 139.8213 L 249.1434 139.8213 L 249.1425 139.8205 C 248.8076 139.8202 248.5406 139.5815 248.4694 139.268 L 248.4537 139.2553 C 248.3242 138.5794 248.235 137.8152 248.1998 136.9934 L 251.8003 136.9934 C 251.7651 137.8152 251.6759 138.5794 251.5464 139.2553 L 251.5307 139.268 ZM 246.0999 151.2159 C 246.0287 151.5292 245.7617 151.7679 245.4268 151.7682 L 245.4259 151.769 L 243.7126 151.769 L 243.7117 151.7682 C 243.3768 151.7679 243.1098 151.5292 243.0386 151.2159 L 243.0229 151.203 C 242.8934 150.5271 242.8042 149.7629 242.769 148.9411 L 246.3695 148.9411 C 246.3343 149.7629 246.2451 150.5271 246.1156 151.203 L 246.0999 151.2159 ZM 246.0999 145.2421 C 246.0287 145.5554 245.7617 145.794 245.4268 145.7944 L 245.4259 145.7952 L 243.7126 145.7952 L 243.7117 145.7944 C 243.3768 145.794 243.1098 145.5554 243.0386 145.2421 L 243.0229 145.2292 C 242.8934 144.5533 242.8042 143.789 242.769 142.9673 L 246.3695 142.9673 C 246.3343 143.789 246.2451 144.5533 246.1156 145.2292 L 246.0999 145.2421 ZM 246.0999 139.268 C 246.0287 139.5815 245.7617 139.8202 245.4268 139.8205 L 245.4259 139.8213 L 243.7126 139.8213 L 243.7117 139.8205 C 243.3768 139.8202 243.1098 139.5815 243.0386 139.268 L 243.0229 139.2553 C 242.8934 138.5794 242.8042 137.8152 242.769 136.9934 L 246.3695 136.9934 C 246.3343 137.8152 246.2451 138.5794 246.1156 139.2553 L 246.0999 139.268 Z" fill="#ffffff"/>	<path id="Sync" d="M 163.4258 149.1824 L 160.1875 152.4208 C 159.7855 152.8228 159.1336 152.8228 158.7316 152.4208 L 155.49 149.1792 C 156.3112 148.8465 157.2966 148.6147 158.3749 148.5205 C 157.6735 144.5261 154.1955 141.488 150 141.488 C 147.6485 141.488 145.5198 142.4416 143.9793 143.9831 L 142.3145 142.3183 C 144.2811 140.3507 146.9984 139.1335 150 139.1335 C 155.5081 139.1335 160.0475 143.2355 160.7584 148.549 C 161.7502 148.655 162.6619 148.8719 163.4258 149.1824 ZM 141.6251 151.4798 C 142.3266 155.4742 145.8046 158.5121 150 158.5121 C 152.3515 158.5121 154.4802 157.5585 156.0208 156.0171 L 157.6856 157.6819 C 155.719 159.6495 153.0017 160.8666 150 160.8666 C 144.492 160.8666 139.9526 156.7648 139.2417 151.4513 C 138.2499 151.3453 137.3382 151.1284 136.5743 150.8178 L 139.8126 147.5794 C 140.2147 147.1773 140.8665 147.1773 141.2685 147.5794 L 144.5101 150.8211 C 143.689 151.1537 142.7035 151.3856 141.6251 151.4798 Z" fill="#ffffff"/>	<path id="Share" d="M 58.0288 145.4217 C 56.8721 146.0895 55.4771 145.9634 54.4679 145.2164 L 46.8176 149.6332 C 46.8312 149.7539 46.8542 149.8717 46.8542 149.996 C 46.8542 150.1203 46.8312 150.2381 46.8176 150.3587 L 54.4678 154.7756 C 55.477 154.0287 56.8721 153.9025 58.0288 154.5703 C 59.5842 155.4684 60.1171 157.4572 59.2191 159.0125 C 58.3211 160.5679 56.3322 161.1008 54.7769 160.2028 C 53.6199 159.5349 53.0316 158.2634 53.1742 157.0156 L 45.5299 152.6022 C 44.9893 153.0029 44.3268 153.2479 43.6023 153.2479 C 41.8063 153.2479 40.3503 151.7921 40.3503 149.996 C 40.3503 148.1999 41.8063 146.7441 43.6023 146.7441 C 44.3269 146.7441 44.9894 146.9891 45.53 147.3898 L 53.1742 142.9764 C 53.0316 141.7287 53.6199 140.4572 54.7769 139.7891 C 56.3322 138.8912 58.3211 139.4241 59.2191 140.9795 C 60.1171 142.5347 59.5842 144.5237 58.0288 145.4217 Z" fill="#ffffff"/>	<path id="Menu" d="M 341.6742 51.1737 C 341.4635 50.1501 341.4638 49.0952 341.6748 48.0718 L 358.3271 48.0718 C 358.5381 49.0952 358.5384 50.1501 358.3277 51.1737 L 341.6742 51.1737 ZM 341.6742 44.1736 C 341.4635 43.1501 341.4638 42.0953 341.6748 41.0717 L 358.3271 41.0717 C 358.5381 42.0953 358.5384 43.1501 358.3277 44.1736 L 341.6742 44.1736 ZM 358.3271 55.0717 C 358.5381 56.0952 358.5384 57.1501 358.3277 58.1737 L 341.6742 58.1737 C 341.4635 57.1501 341.4638 56.0952 341.6748 55.0717 L 358.3271 55.0717 Z" fill="#ffffff"/>	<path id="Back%20%28Browser%29" d="M 258.3082 51.6232 L 246.4338 51.6232 L 251.4957 56.6851 C 251.2153 57.8908 250.8618 59.0163 250.4456 60.04 L 242.2574 51.8519 C 241.2412 50.8357 241.2412 49.188 242.2574 48.1718 L 250.4542 39.9751 C 250.8701 41.0019 251.2232 42.1305 251.5028 43.3395 L 246.4608 48.3815 L 258.3077 48.3815 C 258.528 49.4504 258.5281 50.5542 258.3082 51.6232 Z" fill="#ffffff"/>	<path id="Forward%20%28Nav%29" d="M 146.9948 43.3591 L 153.0153 49.3795 C 153.0223 49.3861 153.0304 49.3908 153.0373 49.3977 C 153.3657 49.726 153.3739 50.2496 153.0683 50.5917 L 153.0721 50.5954 L 147.0019 56.6654 C 147.2815 57.8676 147.6339 58.9899 148.049 60.0106 L 156.2131 51.8464 C 157.2263 50.8332 157.2263 49.1904 156.2131 48.1771 L 148.0404 40.0045 C 147.6256 41.0282 147.2736 42.1535 146.9948 43.3591 Z" fill="#ffffff"/>	<path id="Back%20%28Nav%29" d="M 53.0067 43.3395 L 46.9686 49.3776 C 46.9615 49.3843 46.9534 49.389 46.9465 49.3958 C 46.6171 49.7252 46.6089 50.2503 46.9154 50.5934 L 46.9117 50.5971 L 52.9996 56.6851 C 52.7192 57.8908 52.3657 59.0163 51.9495 60.04 L 43.7613 51.8519 C 42.7452 50.8357 42.7452 49.188 43.7613 48.1718 L 51.9581 39.9751 C 52.374 41.0019 52.7271 42.1305 53.0067 43.3395 Z" fill="#ffffff"/>	<path id="Edit%20List" d="M 53.2858 1555.4792 C 52.6116 1556.1536 51.586 1556.2506 50.8025 1555.7844 L 46.8738 1550.4976 L 48.2992 1548.8237 L 51.3451 1552.9634 C 51.3503 1552.9691 51.3538 1552.9752 51.3592 1552.981 C 51.6177 1553.2391 52.0294 1553.2458 52.2986 1553.0054 L 52.3015 1553.0081 L 61.9913 1541.6541 L 61.9913 1545.1326 L 53.2858 1555.4792 ZM 40.0469 1559.3195 C 39.0432 1559.3195 38.2295 1558.5059 38.2295 1557.5022 C 38.2295 1556.4984 39.0432 1555.6848 40.0469 1555.6848 C 41.0506 1555.6848 41.8643 1556.4984 41.8643 1557.5022 C 41.8643 1558.5059 41.0506 1559.3195 40.0469 1559.3195 ZM 40.0469 1551.3276 C 39.0432 1551.3276 38.2295 1550.5139 38.2295 1549.5103 C 38.2295 1548.5066 39.0432 1547.6929 40.0469 1547.6929 C 41.0506 1547.6929 41.8643 1548.5066 41.8643 1549.5103 C 41.8643 1550.5139 41.0506 1551.3276 40.0469 1551.3276 ZM 40.0469 1543.3202 C 39.0432 1543.3202 38.2295 1542.5065 38.2295 1541.5028 C 38.2295 1540.499 39.0432 1539.6853 40.0469 1539.6853 C 41.0506 1539.6853 41.8643 1540.499 41.8643 1541.5028 C 41.8643 1542.5065 41.0506 1543.3202 40.0469 1543.3202 Z" fill="#ffffff"/>	<path id="Base%20copy" d="M 157.2635 1557.1603 L 142.7339 1557.1603 C 141.573 1557.1603 140.5829 1556.3169 140.1833 1555.1277 L 159.8139 1555.1277 C 159.4144 1556.3169 158.4244 1557.1603 157.2635 1557.1603 Z" fill="#717171"/>	<path id="1" d="M 159.0685 1544.7504 L 151.7397 1552.079 C 150.7927 1553.0262 149.2571 1553.0262 148.3098 1552.079 L 140.9809 1544.7504 C 140.7067 1544.4761 140.5313 1544.1509 140.4259 1543.808 C 141.3752 1543.6093 142.3569 1543.4344 143.3793 1543.2955 L 144.1301 1544.0463 C 144.1412 1544.0608 144.1432 1544.0791 144.1566 1544.0925 L 149.7064 1549.6425 C 149.8802 1549.8163 150.162 1549.8163 150.3357 1549.6425 L 155.8857 1544.0925 C 155.8983 1544.08 155.9001 1544.0626 155.9107 1544.0488 L 156.6647 1543.2948 C 157.6891 1543.434 158.6725 1543.6091 159.6236 1543.8082 C 159.5182 1544.151 159.3427 1544.4761 159.0685 1544.7504 Z" fill="#717171"/>	<path id="Base%20copy2" d="M 257.2635 1557.1603 L 242.7339 1557.1603 C 241.573 1557.1603 240.5829 1556.3169 240.1833 1555.1277 L 259.8139 1555.1277 C 259.4144 1556.3169 258.4244 1557.1603 257.2635 1557.1603 Z" fill="#ffffff"/>	<path id="12" d="M 259.0685 1544.7504 L 251.7397 1552.079 C 250.7927 1553.0262 249.2571 1553.0262 248.3098 1552.079 L 240.9809 1544.7504 C 240.7067 1544.4761 240.5313 1544.1509 240.4259 1543.808 C 241.3752 1543.6093 242.3569 1543.4344 243.3793 1543.2955 L 244.1301 1544.0463 C 244.1412 1544.0608 244.1432 1544.0791 244.1566 1544.0925 L 249.7064 1549.6425 C 249.8802 1549.8163 250.162 1549.8163 250.3357 1549.6425 L 255.8857 1544.0925 C 255.8983 1544.08 255.9001 1544.0626 255.9107 1544.0488 L 256.6647 1543.2948 C 257.6891 1543.434 258.6725 1543.6091 259.6236 1543.8082 C 259.5182 1544.151 259.3427 1544.4761 259.0685 1544.7504 Z" fill="#ffffff"/>	<path id="zZz" d="M 62.1386 1256 L 55.3676 1256 L 55.3676 1254.8298 L 59.8789 1248.527 L 55.6419 1248.527 L 55.6419 1247.0742 L 62.0094 1247.0742 L 62.0094 1248.3978 L 57.595 1254.5474 L 62.1386 1254.5474 L 62.1386 1256 ZM 45.8158 1254.4397 L 51.8311 1246.0354 L 46.1816 1246.0354 L 46.1816 1244.0984 L 54.672 1244.0984 L 54.672 1245.8633 L 48.7858 1254.063 L 54.8442 1254.063 L 54.8442 1256 L 45.8158 1256 L 45.8158 1254.4397 ZM 38.3317 1254.8298 L 42.843 1248.527 L 38.6061 1248.527 L 38.6061 1247.0742 L 44.9736 1247.0742 L 44.9736 1248.3978 L 40.5591 1254.5474 L 45.1027 1254.5474 L 45.1027 1256 L 38.3317 1256 L 38.3317 1254.8298 Z" fill="#ffffff"/>	<path id="Incoming%20Call%202" d="M 53.7065 1341.8336 L 53.7065 1344.4894 C 53.3885 1344.5546 53.0477 1344.4821 52.8009 1344.2352 L 49.7799 1341.2142 C 49.3895 1340.8239 49.3895 1340.1909 49.7799 1339.8004 L 52.8009 1336.7794 C 53.0477 1336.5327 53.3885 1336.4602 53.7065 1336.5254 L 53.7065 1339.1971 L 60.7419 1339.1971 C 60.9207 1340.0665 60.9205 1340.9642 60.7414 1341.8336 L 53.7065 1341.8336 ZM 54.35 1353.6494 L 54.3719 1353.6713 C 54.9799 1353.3358 55.5803 1352.9329 56.1744 1352.501 L 61.8604 1357.5359 C 60.6604 1358.5715 59.3607 1359.4213 57.9909 1360.0613 C 54.3532 1359.3888 49.6912 1356.6833 45.5047 1352.4968 C 41.3218 1348.314 38.617 1343.6561 37.9415 1340.0199 C 38.5818 1338.6482 39.4325 1337.3466 40.4696 1336.145 L 45.5078 1341.8347 C 45.076 1342.4288 44.6731 1343.0292 44.3377 1343.6371 L 44.3598 1343.6592 C 43.7698 1344.9532 45.134 1347.7704 47.6863 1350.3228 C 50.2387 1352.8752 53.0559 1354.2394 54.35 1353.6494 Z" fill="#40464e"/>	<path id="Incoming%20Call%202%20copy%202" d="M 157.8598 1344.2352 C 157.613 1344.4821 157.2723 1344.5546 156.9542 1344.4894 L 156.9542 1341.8336 L 149.9193 1341.8336 C 149.7402 1340.9642 149.74 1340.0665 149.9189 1339.1971 L 156.9542 1339.1971 L 156.9542 1336.5254 C 157.2723 1336.4602 157.613 1336.5327 157.8598 1336.7794 L 160.8808 1339.8004 C 161.2712 1340.1909 161.2712 1340.8239 160.8808 1341.2142 L 157.8598 1344.2352 ZM 154.3499 1353.6494 L 154.3719 1353.6713 C 154.9799 1353.3358 155.5803 1352.9329 156.1744 1352.501 L 161.8604 1357.5359 C 160.6604 1358.5715 159.3607 1359.4213 157.9909 1360.0613 C 154.3532 1359.3888 149.6912 1356.6833 145.5047 1352.4968 C 141.3217 1348.314 138.617 1343.6561 137.9415 1340.0199 C 138.5818 1338.6482 139.4325 1337.3466 140.4696 1336.145 L 145.5078 1341.8347 C 145.076 1342.4288 144.6731 1343.0292 144.3376 1343.6371 L 144.3598 1343.6592 C 143.7698 1344.9532 145.134 1347.7704 147.6863 1350.3228 C 150.2387 1352.8752 153.0559 1354.2394 154.3499 1353.6494 Z" fill="#40464e"/>	<path id="Missed%20Call%20copy" d="M 258.8793 1340.5487 L 261.2082 1342.8776 C 261.0317 1343.5814 260.7743 1344.2126 260.4618 1344.767 L 257.503 1341.8081 L 254.5402 1344.7709 C 254.228 1344.2179 253.9703 1343.5883 253.7935 1342.8861 L 256.1444 1340.5352 L 256.1425 1340.5331 C 256.1684 1340.5042 256.1828 1340.5007 256.2003 1340.4911 C 256.1794 1340.4834 256.1587 1340.4773 256.1259 1340.4445 C 256.1222 1340.4408 256.1178 1340.4384 256.1141 1340.4348 L 253.7955 1338.1162 C 253.9722 1337.418 254.2295 1336.7922 254.5403 1336.2419 L 257.4904 1339.192 L 260.4531 1336.2292 C 260.7643 1336.7773 261.0229 1337.4005 261.2007 1338.0966 L 258.8489 1340.4484 L 258.8509 1340.4503 C 258.825 1340.4794 258.8105 1340.4827 258.793 1340.4924 C 258.8139 1340.5 258.8347 1340.5061 258.8675 1340.5389 C 258.8712 1340.5426 258.8755 1340.5452 258.8793 1340.5487 ZM 254.3499 1353.6494 L 254.3719 1353.6713 C 254.9799 1353.3358 255.5803 1352.9329 256.1744 1352.501 L 261.8604 1357.5359 C 260.6604 1358.5715 259.3607 1359.4213 257.9909 1360.0613 C 254.3532 1359.3888 249.6912 1356.6833 245.5047 1352.4968 C 241.3217 1348.314 238.617 1343.6561 237.9415 1340.0199 C 238.5818 1338.6482 239.4325 1337.3466 240.4696 1336.145 L 245.5078 1341.8347 C 245.076 1342.4288 244.6731 1343.0292 244.3376 1343.6371 L 244.3598 1343.6592 C 243.7698 1344.9532 245.134 1347.7704 247.6863 1350.3228 C 250.2387 1352.8752 253.0559 1354.2394 254.3499 1353.6494 Z" fill="#363d46"/>	<path id="Missed%20Call%20copy%202" d="M 358.8793 1340.5487 L 361.2082 1342.8776 C 361.0317 1343.5814 360.7743 1344.2126 360.4618 1344.767 L 357.503 1341.8081 L 354.5402 1344.7709 C 354.228 1344.2179 353.9703 1343.5883 353.7935 1342.8861 L 356.1444 1340.5352 L 356.1425 1340.5331 C 356.1684 1340.5042 356.1828 1340.5007 356.2003 1340.4911 C 356.1794 1340.4834 356.1587 1340.4773 356.1259 1340.4445 C 356.1222 1340.4408 356.1178 1340.4384 356.1141 1340.4348 L 353.7955 1338.1162 C 353.9722 1337.418 354.2295 1336.7922 354.5403 1336.2419 L 357.4904 1339.192 L 360.4531 1336.2292 C 360.7643 1336.7773 361.0229 1337.4005 361.2007 1338.0966 L 358.8489 1340.4484 L 358.8509 1340.4503 C 358.825 1340.4794 358.8105 1340.4827 358.793 1340.4924 C 358.8139 1340.5 358.8347 1340.5061 358.8675 1340.5389 C 358.8712 1340.5426 358.8755 1340.5452 358.8793 1340.5487 ZM 354.3499 1353.6494 L 354.3719 1353.6713 C 354.9799 1353.3358 355.5803 1352.9329 356.1744 1352.501 L 361.8604 1357.5359 C 360.6604 1358.5715 359.3607 1359.4213 357.9909 1360.0613 C 354.3532 1359.3888 349.6912 1356.6833 345.5047 1352.4968 C 341.3217 1348.314 338.617 1343.6561 337.9415 1340.0199 C 338.5818 1338.6482 339.4325 1337.3466 340.4696 1336.145 L 345.5078 1341.8347 C 345.076 1342.4288 344.6731 1343.0292 344.3376 1343.6371 L 344.3598 1343.6592 C 343.7698 1344.9532 345.134 1347.7704 347.6863 1350.3228 C 350.2387 1352.8752 353.0559 1354.2394 354.3499 1353.6494 Z" fill="#bb1515"/></svg>