<?xml version="1.0" standalone="no"?><!DOCTYPE svg PUBLIC "-//W3C//DTD SVG 1.1//EN" "http://www.w3.org/Graphics/SVG/1.1/DTD/svg11.dtd"><svg id="icons_sprite" viewBox="0 0 150 150" style="background-color:#ffffff00" version="1.1"	xmlns="http://www.w3.org/2000/svg" xmlns:xlink="http://www.w3.org/1999/xlink" xml:space="preserve"	x="0px" y="0px" width="150px" height="150px">	<defs>	    <linearGradient id="gradient" x1="0%" y1="0%" x2="0%" y2="100%">	      	<stop offset="0%" style="stop-color:rgb(108,124,128);stop-opacity:1" />	      	<stop offset="100%" style="stop-color:rgb(130,149,153);stop-opacity:1" />	    </linearGradient>		<filter id='shadows'><feOffset dx='0' dy='1'/>		    <feComposite operator='out' in='SourceGraphic' result='inverse' />			<feColorMatrix result="color" type="matrix" values="0 0 0 0 0  0 0 0 0 0  0 0 0 0 0  0 0 0 0.5 0"/>		    <feComposite operator='in' in='color' in2='inverse' result='shadow'/>		    <feComposite operator='over' in='shadow' in2='SourceGraphic' result="Inner_Shadow"/>			<feOffset result="out" in="SourceGraphic" dx="0" dy="1"/>			<feColorMatrix result="out" in="out" type="matrix" values="0 0 0 1 0  0 0 0 1 0  0 0 0 1 0  0 0 0 0.25 0"/>			<feComposite in="Inner_Shadow" in2="out" result="Drop_Shadow"/>		</filter>	</defs>			<g id="icons">		<path id="Notifications" d="M 104.9974 58.537 C 97.5397 58.537 91.4943 52.4765 91.4943 45.0001 C 91.4943 37.5237 97.5397 31.4631 104.9974 31.4631 C 112.4551 31.4631 118.5007 37.5237 118.5007 45.0001 C 118.5007 52.4765 112.4551 58.537 104.9974 58.537 ZM 110.7008 39.2066 L 99.2842 39.2066 C 99.1764 39.7295 99.1763 40.2682 99.2839 40.7911 L 110.7012 40.7911 C 110.8088 40.2682 110.8086 39.7295 110.7008 39.2066 ZM 110.7008 44.2066 L 99.2842 44.2066 C 99.1764 44.7295 99.1763 45.2682 99.2839 45.7911 L 110.7012 45.7911 C 110.8088 45.2682 110.8086 44.7295 110.7008 44.2066 ZM 110.7008 49.2066 L 99.2842 49.2066 C 99.1764 49.7295 99.1763 50.2682 99.2839 50.791 L 110.7012 50.791 C 110.8088 50.2682 110.8086 49.7295 110.7008 49.2066 Z" fill="url(#gradient)" filter="url(#shadows)"/>		<path id="Tethering" d="M 22.4969 54.371 L 15.0001 54.371 C 13.1698 54.371 11.5036 53.7042 10.2037 52.6136 L 14.3657 51.9833 C 14.6028 52.0171 14.8392 52.0544 15.086 52.0544 L 22.411 52.0544 C 25.267 52.0544 27.5822 49.7393 27.5822 46.8832 C 27.5822 44.2172 25.557 42.0479 22.9654 41.7678 L 22.9654 41.7397 L 22.687 41.7397 C 22.5937 41.7347 22.5055 41.7119 22.411 41.7119 L 22.3593 41.7119 C 22.3611 41.7209 22.3604 41.7307 22.3621 41.7397 L 19.8686 41.7397 C 19.866 41.7306 19.8647 41.7209 19.8621 41.7119 L 15.086 41.7119 C 12.2299 41.7119 9.9146 44.0272 9.9146 46.8832 C 9.9146 47.3802 10.007 47.8512 10.1378 48.3061 L 14.9141 48.3061 C 17.6261 48.3061 19.8255 46.2112 20.043 43.5554 L 22.4752 43.5554 C 22.2514 47.4947 18.9954 50.6227 15.0001 50.6227 L 11.5296 50.6227 C 11.5388 50.6314 11.5501 50.6376 11.5593 50.6462 L 8.5301 50.6462 C 8.5253 50.6381 8.5191 50.6309 8.5143 50.6227 L 7.5032 50.6227 C 3.3629 50.6227 0.0064 47.2662 0.0064 43.1259 C 0.0064 38.9855 3.3629 35.629 7.5032 35.629 L 15.0001 35.629 C 17.7733 35.629 20.189 37.1388 21.4858 39.3775 L 22.4969 39.3775 C 26.6372 39.3775 29.9936 42.7338 29.9936 46.8742 C 29.9936 51.0146 26.6372 54.371 22.4969 54.371 ZM 14.9141 37.9636 L 7.5891 37.9636 C 4.7331 37.9636 2.4178 40.2788 2.4178 43.1348 C 2.4178 45.9908 4.7331 48.3061 7.5891 48.3061 L 7.6435 48.3061 C 7.5537 47.8422 7.5032 47.3643 7.5032 46.8742 C 7.5032 42.7338 10.8596 39.3775 15.0001 39.3775 L 18.4487 39.3775 C 17.5233 38.5067 16.2852 37.9636 14.9141 37.9636 Z" fill="url(#gradient)" filter="url(#shadows)"/>		<path id="GPS" d="M 59.1376 16.0001 L 55.9446 16.0001 C 55.4692 21.2606 51.2897 25.4514 46.0313 25.9407 L 46.0313 29.106 C 45.3713 29.2421 44.6912 29.2423 44.0312 29.1064 L 44.0312 25.9437 C 38.744 25.4815 34.5331 21.2811 34.0558 16.0001 L 30.8937 16.0001 C 30.7578 15.3401 30.758 14.66 30.894 14 L 34.0558 14 C 34.5331 8.7191 38.744 4.5186 44.0312 4.0564 L 44.0312 0.8624 C 44.6912 0.7266 45.3713 0.7267 46.0313 0.8627 L 46.0313 4.0594 C 51.2896 4.5486 55.4691 8.7396 55.9446 14 L 59.1373 14 C 59.2733 14.66 59.2735 15.3401 59.1376 16.0001 ZM 51.8877 14 L 53.4516 14 C 52.9952 10.1172 49.9137 7.0665 46.0313 6.5934 L 46.0313 8.1124 C 45.3713 8.2484 44.6912 8.2486 44.0312 8.1127 L 44.0312 6.5876 C 40.1197 7.0352 37.0076 10.0967 36.5488 14 L 38.1436 14 C 38.2796 14.66 38.2798 15.3401 38.1439 16.0001 L 36.5488 16.0001 C 37.0075 19.9034 40.1196 22.9648 44.0312 23.4124 L 44.0312 21.8561 C 44.6912 21.7202 45.3713 21.7204 46.0313 21.8564 L 46.0313 23.4066 C 49.9138 22.9337 52.9953 19.8828 53.4517 16.0001 L 51.8873 16.0001 C 51.7514 15.3401 51.7516 14.66 51.8877 14 ZM 45.0002 18.5012 C 43.0714 18.5012 41.5076 16.9337 41.5076 15.0001 C 41.5076 13.0665 43.0714 11.4989 45.0002 11.4989 C 46.929 11.4989 48.4927 13.0665 48.4927 15.0001 C 48.4927 16.9337 46.929 18.5012 45.0002 18.5012 Z" fill="url(#gradient)" filter="url(#shadows)"/>		<path id="Battery" d="M 148 110.0001 L 147 110.0001 L 147 111.0001 C 147 112.1046 146.1046 113.0001 145 113.0001 L 122 113.0001 C 120.8954 113.0001 120 112.1046 120 111.0001 L 120 99.0001 C 120 97.8955 120.8954 97 122 97 L 145 97 C 146.1046 97 147 97.8955 147 99.0001 L 147 100.0001 L 148 100.0001 C 148.5523 100.0001 149 100.4478 149 101.0001 L 149 109.0001 C 149 109.5523 148.5523 110.0001 148 110.0001 ZM 145 100.0001 C 145 99.4478 144.5523 99.0001 144 99.0001 L 123 99.0001 C 122.4477 99.0001 122 99.4478 122 100.0001 L 122 110.0001 C 122 110.5523 122.4477 111.0001 123 111.0001 L 144 111.0001 C 144.5523 111.0001 145 110.5523 145 110.0001 L 145 100.0001 ZM 123 100.0001 L 138.5008 100.0001 L 138.5008 110.0001 L 123 110.0001 L 123 100.0001 Z" fill="url(#gradient)" filter="url(#shadows)"/>		<path id="Help" d="M 105.0001 148.5123 C 97.5375 148.5123 91.4879 142.4626 91.4879 135 C 91.4879 127.5375 97.5375 121.4879 105.0001 121.4879 C 112.4627 121.4879 118.5123 127.5375 118.5123 135 C 118.5123 142.4626 112.4627 148.5123 105.0001 148.5123 ZM 105.0001 123.9901 C 98.9194 123.9901 93.99 128.9194 93.99 135 C 93.99 141.0807 98.9194 146.0101 105.0001 146.0101 C 111.0808 146.0101 116.0101 141.0807 116.0101 135 C 116.0101 128.9194 111.0808 123.9901 105.0001 123.9901 ZM 108.1291 134.7367 C 107.3666 135.3007 106.8841 135.7296 106.6816 136.0233 C 106.4791 136.3172 106.3778 136.7024 106.3778 137.1789 L 106.3778 137.8937 L 103.2208 137.8937 L 103.2208 137.0121 C 103.2208 136.2497 103.3835 135.5866 103.7092 135.0226 C 104.0348 134.4588 104.6305 133.8592 105.4962 133.2237 C 106.3301 132.6281 106.88 132.1437 107.1462 131.7703 C 107.4122 131.397 107.5453 130.9801 107.5453 130.5194 C 107.5453 130.0032 107.3547 129.61 106.9735 129.34 C 106.5923 129.0701 106.0601 128.9349 105.3771 128.9349 C 104.1858 128.9349 102.8277 129.3242 101.3028 130.1024 L 100.0042 127.4935 C 101.7752 126.5007 103.6536 126.0043 105.6392 126.0043 C 107.2752 126.0043 108.5758 126.3974 109.5408 127.1837 C 110.5057 127.97 110.9882 129.0183 110.9882 130.3288 C 110.9882 131.2026 110.7896 131.957 110.3926 132.5923 C 109.9954 133.2278 109.2409 133.9426 108.1291 134.7367 ZM 104.9363 139.9428 C 105.5955 139.9428 106.1057 140.1176 106.4672 140.467 C 106.8285 140.8165 107.0092 141.3169 107.0092 141.968 C 107.0092 142.5955 106.8264 143.0899 106.4612 143.4512 C 106.0958 143.8125 105.5874 143.9933 104.9363 143.9933 C 104.2692 143.9933 103.7528 143.8165 103.3876 143.4631 C 103.0222 143.1099 102.8396 142.6113 102.8396 141.968 C 102.8396 141.3009 103.0183 140.7967 103.3757 140.455 C 103.7331 140.1136 104.2532 139.9428 104.9363 139.9428 Z" fill="url(#gradient)" filter="url(#shadows)"/>		<path id="About%20Phone" d="M 105.0001 118.5123 C 97.5375 118.5123 91.4879 112.4626 91.4879 105 C 91.4879 97.5375 97.5375 91.4879 105.0001 91.4879 C 112.4626 91.4879 118.5123 97.5375 118.5123 105 C 118.5123 112.4626 112.4626 118.5123 105.0001 118.5123 ZM 105.0001 93.9901 C 98.9194 93.9901 93.99 98.9194 93.99 105 C 93.99 111.0807 98.9194 116.0101 105.0001 116.0101 C 111.0807 116.0101 116.0101 111.0807 116.0101 105 C 116.0101 98.9194 111.0807 93.9901 105.0001 93.9901 ZM 104.9885 99.921 C 103.4254 99.921 102.6438 99.2716 102.6438 97.9727 C 102.6438 97.3083 102.8288 96.8138 103.1989 96.489 C 103.5687 96.1644 104.1653 96.002 104.9885 96.002 C 105.8114 96.002 106.4117 96.1681 106.7894 96.5002 C 107.1669 96.8326 107.3558 97.3235 107.3558 97.9727 C 107.3558 99.2716 106.5666 99.921 104.9885 99.921 ZM 107.1859 113.5 L 102.7571 113.5 L 102.7571 101.51 L 107.1859 101.51 L 107.1859 113.5 Z" fill="url(#gradient)" filter="url(#shadows)"/>		<path id="Do%20Not%20Track" d="M 75.0001 118.5123 C 67.5375 118.5123 61.4879 112.4626 61.4879 105 C 61.4879 97.5375 67.5375 91.4879 75.0001 91.4879 C 82.4627 91.4879 88.5123 97.5375 88.5123 105 C 88.5123 112.4626 82.4627 118.5123 75.0001 118.5123 ZM 86.0101 105 C 86.0101 102.6065 85.238 100.398 83.9409 98.5917 L 68.5917 113.9409 C 70.398 115.238 72.6066 116.0101 75.0001 116.0101 C 81.0807 116.0101 86.0101 111.0807 86.0101 105 ZM 75.0001 93.9901 C 68.9194 93.9901 63.99 98.9194 63.99 105 C 63.99 107.2368 64.6613 109.3148 65.8072 111.052 L 81.0519 95.8073 C 79.3148 94.6613 77.2368 93.9901 75.0001 93.9901 Z" fill="url(#gradient)" filter="url(#shadows)"/>		<path id="App%20Permissions" d="M 54.9526 103.8603 L 54.9526 113.7032 C 54.9526 114.3894 54.3964 114.9459 53.7101 114.9459 L 36.3131 114.9459 C 35.6268 114.9459 35.0704 114.3894 35.0704 113.7032 L 35.0704 96.3062 C 35.0704 95.6199 35.6268 95.0635 36.3131 95.0635 L 53.7101 95.0635 C 54.3964 95.0635 54.9526 95.6199 54.9526 96.3062 L 54.9526 99.5287 L 59.738 94.7434 L 59.738 99.0746 L 54.9526 103.8603 ZM 53.3503 105.4627 L 47.0422 111.7713 C 46.197 112.6165 44.9111 112.7384 43.929 112.154 L 39.3245 107.5496 L 39.328 107.5371 L 41.4285 105.4367 L 44.609 108.6172 C 44.6155 108.6242 44.6201 108.6322 44.627 108.639 C 44.9508 108.9629 45.4672 108.971 45.8046 108.6696 L 45.8082 108.6732 L 53.3503 101.1311 L 53.3503 97.1713 C 53.3503 96.8932 53.1248 96.6676 52.8466 96.6676 L 37.1783 96.6676 C 36.9 96.6676 36.6746 96.8932 36.6746 97.1713 L 36.6746 112.8397 C 36.6746 113.1179 36.9 113.3434 37.1783 113.3434 L 52.8466 113.3434 C 53.1248 113.3434 53.3503 113.1179 53.3503 112.8397 L 53.3503 105.4627 Z" fill="url(#gradient)" filter="url(#shadows)"/>		<path id="Sim%20Card%20Lock" d="M 22.9544 118.9714 L 7.9186 118.9714 C 6.8667 118.9714 6.014 118.0618 6.014 116.9398 L 6.014 93.029 C 6.014 91.907 6.8667 90.9974 7.9186 90.9974 L 20.1688 90.9974 L 24.9861 95.8147 L 24.9861 116.9398 C 24.9861 118.0618 24.0765 118.9714 22.9544 118.9714 ZM 15.9904 115.9783 L 17.9133 115.9783 L 17.9133 111.954 L 15.9904 111.954 L 15.9904 115.9783 ZM 13.1492 115.9783 L 15.0722 115.9783 L 15.0722 111.954 L 13.1492 111.954 L 13.1492 115.9783 ZM 9.4718 114.4002 C 9.4718 115.2717 10.1783 115.9783 11.0499 115.9783 L 12.1873 115.9783 L 12.1873 111.954 L 9.4718 111.954 L 9.4718 114.4002 ZM 12.1873 102.9844 L 11.0499 102.9844 C 10.1783 102.9844 9.4718 103.6909 9.4718 104.5625 L 9.4718 106.9082 L 12.1873 106.9082 L 12.1873 102.9844 ZM 15.0722 102.9844 L 13.1492 102.9844 L 13.1492 106.9082 L 15.0722 106.9082 L 15.0722 102.9844 ZM 17.9133 102.9844 L 15.9904 102.9844 L 15.9904 106.9082 L 17.9133 106.9082 L 17.9133 102.9844 ZM 21.4658 104.5625 C 21.4658 103.6909 20.7592 102.9844 19.8876 102.9844 L 18.8752 102.9844 L 18.8752 106.9082 L 21.4658 106.9082 L 21.4658 104.5625 ZM 21.4712 108.8738 L 21.4673 108.8738 L 21.4673 107.8232 L 9.4703 107.8232 L 9.4703 111.0065 L 18.8756 111.0065 L 18.8756 111.954 L 18.8752 111.954 L 18.8752 115.9783 L 19.8876 115.9783 C 20.7592 115.9783 21.4658 115.2717 21.4658 114.4002 L 21.4658 113.7838 L 21.4712 113.7838 L 21.4712 108.8738 Z" fill="url(#gradient)" filter="url(#shadows)"/>		<path id="Pone%20Lock" d="M 143.7433 88.0054 L 128.193 88.0054 C 127.4915 88.0054 126.9228 87.4367 126.9228 86.7353 L 126.9228 74.2871 C 126.9228 73.5854 127.4915 73.0168 128.193 73.0168 L 128.845 73.0168 L 128.845 69.1559 L 128.8459 69.1559 C 128.8466 65.2047 132.0498 62.0019 136.0011 62.0019 C 139.9528 62.0019 143.1563 65.2053 143.1563 69.1571 C 143.1563 69.1659 143.155 69.1743 143.155 69.1832 L 143.155 73.0168 L 143.7433 73.0168 C 144.4449 73.0168 145.0135 73.5854 145.0135 74.2871 L 145.0135 86.7353 C 145.0135 87.4367 144.4449 88.0054 143.7433 88.0054 ZM 140.6018 69.1559 C 140.6005 66.6168 138.5419 64.5587 136.0024 64.5587 C 133.4628 64.5587 131.4042 66.6168 131.403 69.1559 L 131.4323 69.1559 L 131.4323 73.0168 L 140.5677 73.0168 L 140.5677 69.1559 L 140.6018 69.1559 Z" fill="url(#gradient)" filter="url(#shadows)"/>		<path id="Email" d="M 107.071 76.4085 C 106.4752 77.0044 105.5091 77.0044 104.9132 76.4085 L 93.9171 65.4124 C 94.1425 65.1837 94.4545 65.0408 94.801 65.0408 L 117.1979 65.0408 C 117.5406 65.0408 117.8507 65.1797 118.0755 65.404 L 107.071 76.4085 ZM 104.3792 78.0857 C 105.2695 78.9761 106.7131 78.9761 107.6034 78.0857 L 118.4405 67.2487 L 118.4405 83.6805 C 118.4405 84.3667 117.8842 84.9231 117.1979 84.9231 L 94.801 84.9231 C 94.1146 84.9231 93.5582 84.3667 93.5582 83.6805 L 93.5582 67.2648 L 104.3792 78.0857 Z" fill="url(#gradient)" filter="url(#shadows)"/>		<path id="Persona" d="M 90.0024 75.0005 L 80.9967 86.0073 L 64.0024 85.9995 C 64.0016 85.9995 64.0009 86 64 86 L 63 86 C 62.4478 86 62 85.5523 62 85 L 62 65 C 62 64.4478 62.4478 64 63 64 L 64 64 C 64.0011 64 64.0021 64.0006 64.0032 64.0006 L 80.9967 63.9928 L 90.0024 75.0005 ZM 77.2909 77.438 C 75.5916 76.7696 75.1757 76.8642 74.5855 76.5085 C 74.571 76.5004 74.5565 76.4913 74.5421 76.4841 L 74.5421 75.4839 C 75.1073 74.9881 75.5585 74.241 75.8214 73.3863 C 76.1283 73.0568 76.3052 72.6693 76.3052 72.2543 C 76.3052 71.9696 76.2216 71.6984 76.0695 71.4492 C 75.9699 69.3552 74.638 67.9697 73.0074 67.9697 C 71.3782 67.9697 70.0464 69.3552 69.9459 71.4492 C 69.7943 71.6984 69.7097 71.9696 69.7097 72.2543 C 69.7097 72.6693 69.8871 73.0568 70.1939 73.3863 C 70.4573 74.241 70.9081 74.9886 71.4738 75.4843 L 71.4738 76.4841 C 71.4593 76.4913 71.4443 76.5004 71.4294 76.5085 C 70.8406 76.8642 70.4238 76.7696 68.7253 77.438 C 67.026 78.1055 66.783 81.8192 66.783 81.8192 C 66.783 81.8192 68.3475 82.0302 73.0034 82.0302 C 77.6593 82.0302 79.2324 81.8192 79.2324 81.8192 C 79.2324 81.8192 78.9902 78.1055 77.2909 77.438 Z" fill="url(#gradient)" filter="url(#shadows)"/>		<path id="Accessibility" d="M 78.3765 133.174 C 78.0761 133.8345 77.75 134.5218 77.3853 135.2434 C 77.6778 135.7251 77.9706 136.2148 78.2625 136.7205 C 81.8178 142.8785 83.8728 148.3481 82.8524 148.9372 C 81.8732 149.5025 78.4182 145.3637 74.9991 139.5874 C 71.58 145.3637 68.125 149.5025 67.1458 148.9372 C 66.1254 148.3481 68.1804 142.8785 71.7357 136.7205 C 72.0276 136.2148 72.3204 135.7251 72.6129 135.2435 C 72.2482 134.5217 71.9221 133.8344 71.6217 133.1739 C 66.153 132.9579 62.1259 132.2335 62.1259 131.3708 C 62.1259 130.3377 67.8902 129.5004 75.0008 129.5004 C 82.1114 129.5004 87.8757 130.3377 87.8757 131.3708 C 87.8757 132.2337 83.8468 132.9583 78.3765 133.174 ZM 75 128.2477 C 72.9297 128.2477 71.2515 126.5695 71.2515 124.4992 C 71.2515 122.4289 72.9297 120.7507 75 120.7507 C 77.0703 120.7507 78.7485 122.4289 78.7485 124.4992 C 78.7485 126.5695 77.0703 128.2477 75 128.2477 Z" fill="url(#gradient)" filter="url(#shadows)"/>		<path id="Media%20Storage" d="M 53.9999 148.0001 L 35.8749 148.0001 C 34.8394 148.0001 33.9999 147.1047 33.9999 146.0001 L 33.9999 124.0001 C 33.9999 122.8955 34.8394 122.0001 35.8749 122.0001 L 51.0711 122.0001 L 55.9999 126.9289 L 55.9999 146.0001 C 55.9999 147.1047 55.1044 148.0001 53.9999 148.0001 ZM 44.9986 127.5751 C 40.908 127.5751 37.5921 130.8993 37.5921 135.0001 C 37.5921 139.1008 40.908 142.425 44.9986 142.425 C 49.0891 142.425 52.4051 139.1008 52.4051 135.0001 C 52.4051 130.8993 49.0891 127.5751 44.9986 127.5751 ZM 44.9915 141.0391 C 41.6563 141.0391 38.9525 138.3353 38.9525 135 C 38.9525 131.6649 41.6563 128.9611 44.9915 128.9611 C 46.6611 128.9611 48.1723 129.6389 49.2655 130.7341 L 44.9977 135.0019 L 51.0304 135.0019 C 51.0293 138.3364 48.3261 141.0391 44.9915 141.0391 Z" fill="url(#gradient)" filter="url(#shadows)"/>		<path id="Storage" d="M 15.013 148.5369 C 7.5553 148.5369 1.5098 142.4764 1.5098 135.0002 C 1.5098 127.5238 7.5553 121.4632 15.013 121.4632 C 22.4707 121.4632 28.5163 127.5238 28.5163 135.0002 C 28.5163 142.4764 22.4707 148.5369 15.013 148.5369 ZM 15 123.9901 C 8.9194 123.9901 3.99 128.9194 3.99 135 C 3.99 141.0807 8.9194 146.0102 15 146.0102 C 21.0796 146.0102 26.0081 141.0826 26.0099 135.0035 L 15.0114 135.0035 L 22.7923 127.2225 C 20.7993 125.2258 18.0441 123.9901 15 123.9901 Z" fill="url(#gradient)" filter="url(#shadows)"/>		<path id="Keyboard" d="M 59 84.0001 L 33 84.0001 C 31.8954 84.0001 31 83.1607 31 82.1252 L 31 69.0001 C 31 67.8956 31.8954 67.0001 33 67.0001 L 59 67.0001 C 60.1046 67.0001 61 67.8956 61 69.0001 L 61 82.1252 C 61 83.1607 60.1046 84.0001 59 84.0001 ZM 41.9755 80.5014 L 41.9858 80.5098 C 42.033 80.7172 42.2097 80.8752 42.4314 80.8754 L 42.432 80.876 L 53.566 80.876 L 53.5666 80.8754 C 53.7883 80.8752 53.965 80.7172 54.0122 80.5098 L 54.0226 80.5014 C 54.1083 80.054 54.1674 79.5481 54.1907 79.0041 L 41.8073 79.0041 C 41.8307 79.5481 41.8897 80.054 41.9755 80.5014 ZM 43.8074 76.0041 C 43.8307 76.548 43.8897 77.054 43.9755 77.5014 L 43.9858 77.5098 C 44.033 77.7172 44.2097 77.8753 44.4313 77.8754 L 44.4319 77.876 L 45.566 77.876 L 45.5666 77.8754 C 45.7883 77.8753 45.965 77.7172 46.0122 77.5098 L 46.0226 77.5014 C 46.1083 77.054 46.1674 76.548 46.1907 76.0041 L 43.8074 76.0041 ZM 45.1907 73.0041 L 42.8073 73.0041 C 42.8307 73.548 42.8897 74.0539 42.9755 74.5013 L 42.9858 74.5098 C 43.033 74.7172 43.2097 74.8753 43.4314 74.8754 L 43.432 74.876 L 44.566 74.876 L 44.5666 74.8754 C 44.7883 74.8753 44.965 74.7172 45.0122 74.5098 L 45.0225 74.5013 C 45.1083 74.0539 45.1674 73.548 45.1907 73.0041 ZM 45.9755 74.5013 L 45.9858 74.5098 C 46.033 74.7172 46.2097 74.8753 46.4314 74.8754 L 46.4319 74.876 L 47.566 74.876 L 47.5666 74.8754 C 47.7883 74.8753 47.965 74.7172 48.0122 74.5098 L 48.0226 74.5013 C 48.1083 74.0539 48.1674 73.548 48.1906 73.0041 L 45.8074 73.0041 C 45.8307 73.548 45.8897 74.0539 45.9755 74.5013 ZM 46.8073 76.0041 C 46.8307 76.548 46.8897 77.054 46.9755 77.5014 L 46.9858 77.5098 C 47.033 77.7172 47.2097 77.8753 47.4314 77.8754 L 47.4319 77.876 L 48.566 77.876 L 48.5666 77.8754 C 48.7883 77.8753 48.965 77.7172 49.0122 77.5098 L 49.0226 77.5014 C 49.1083 77.054 49.1674 76.548 49.1907 76.0041 L 46.8073 76.0041 ZM 48.9754 74.5013 L 48.9858 74.5098 C 49.033 74.7172 49.2097 74.8753 49.4314 74.8754 L 49.4319 74.876 L 50.566 74.876 L 50.5666 74.8754 C 50.7883 74.8753 50.965 74.7172 51.0122 74.5098 L 51.0226 74.5013 C 51.1083 74.0539 51.1674 73.548 51.1907 73.0041 L 48.8074 73.0041 C 48.8306 73.548 48.8897 74.0539 48.9754 74.5013 ZM 49.8074 76.0041 C 49.8307 76.548 49.8897 77.054 49.9754 77.5014 L 49.9858 77.5098 C 50.033 77.7172 50.2097 77.8753 50.4314 77.8754 L 50.4319 77.876 L 51.5661 77.876 L 51.5666 77.8754 C 51.7883 77.8753 51.965 77.7172 52.0122 77.5098 L 52.0226 77.5014 C 52.1083 77.054 52.1674 76.548 52.1907 76.0041 L 49.8074 76.0041 ZM 41.4319 77.876 L 42.566 77.876 L 42.5667 77.8754 C 42.7883 77.8753 42.9651 77.7172 43.0122 77.5098 L 43.0226 77.5014 C 43.1083 77.054 43.1674 76.548 43.1906 76.0041 L 40.8074 76.0041 C 40.8307 76.548 40.8897 77.054 40.9755 77.5014 L 40.9858 77.5098 C 41.033 77.7172 41.2097 77.8753 41.4314 77.8754 L 41.4319 77.876 ZM 42.1907 73.0041 L 39.8074 73.0041 C 39.8307 73.548 39.8897 74.0539 39.9755 74.5013 L 39.9858 74.5098 C 40.033 74.7172 40.2097 74.8753 40.4313 74.8754 L 40.432 74.876 L 41.566 74.876 L 41.5666 74.8754 C 41.7883 74.8753 41.9651 74.7172 42.0122 74.5098 L 42.0226 74.5013 C 42.1083 74.0539 42.1674 73.548 42.1907 73.0041 ZM 38.9755 80.5014 L 38.9858 80.5098 C 39.033 80.7172 39.2097 80.8752 39.4313 80.8754 L 39.432 80.876 L 40.566 80.876 L 40.5666 80.8754 C 40.7883 80.8752 40.965 80.7172 41.0122 80.5098 L 41.0225 80.5014 C 41.1083 80.054 41.1674 79.5481 41.1907 79.0041 L 38.8073 79.0041 C 38.8307 79.5481 38.8897 80.054 38.9755 80.5014 ZM 38.432 77.876 L 39.566 77.876 L 39.5667 77.8754 C 39.7883 77.8753 39.965 77.7172 40.0122 77.5098 L 40.0225 77.5014 C 40.1083 77.054 40.1674 76.548 40.1906 76.0041 L 37.8073 76.0041 C 37.8307 76.548 37.8897 77.054 37.9755 77.5014 L 37.9858 77.5098 C 38.033 77.7172 38.2097 77.8753 38.4314 77.8754 L 38.432 77.876 ZM 33.9755 80.5014 L 33.9858 80.5098 C 34.033 80.7172 34.2097 80.8752 34.4313 80.8754 L 34.432 80.876 L 37.566 80.876 L 37.5666 80.8754 C 37.7883 80.8752 37.9651 80.7172 38.0122 80.5098 L 38.0226 80.5014 C 38.1083 80.054 38.1674 79.5481 38.1906 79.0041 L 33.8073 79.0041 C 33.8307 79.5481 33.8897 80.054 33.9755 80.5014 ZM 33.9755 77.5014 L 33.9858 77.5098 C 34.033 77.7172 34.2097 77.8753 34.4313 77.8754 L 34.432 77.876 L 36.566 77.876 L 36.5666 77.8754 C 36.7883 77.8753 36.965 77.7172 37.0122 77.5098 L 37.0225 77.5014 C 37.1083 77.054 37.1674 76.548 37.1907 76.0041 L 33.8073 76.0041 C 33.8307 76.548 33.8897 77.054 33.9755 77.5014 ZM 33.9755 74.5013 L 33.9858 74.5098 C 34.033 74.7172 34.2097 74.8753 34.4313 74.8754 L 34.432 74.876 L 38.566 74.876 L 38.5667 74.8754 C 38.7883 74.8753 38.9651 74.7172 39.0122 74.5098 L 39.0226 74.5013 C 39.1083 74.0539 39.1674 73.548 39.1906 73.0041 L 33.8073 73.0041 C 33.8307 73.548 33.8897 74.0539 33.9755 74.5013 ZM 33.8073 70.0042 C 33.8307 70.548 33.8897 71.0539 33.9755 71.5013 L 33.9858 71.5098 C 34.033 71.7172 34.2097 71.8752 34.4313 71.8754 L 34.432 71.876 L 36.566 71.876 L 36.5666 71.8754 C 36.7883 71.8752 36.965 71.7172 37.0122 71.5098 L 37.0225 71.5013 C 37.1083 71.0539 37.1674 70.548 37.1907 70.0042 L 33.8073 70.0042 ZM 37.8073 70.0042 C 37.8307 70.548 37.8897 71.0539 37.9755 71.5013 L 37.9858 71.5098 C 38.033 71.7172 38.2097 71.8752 38.4314 71.8754 L 38.432 71.876 L 39.566 71.876 L 39.5667 71.8754 C 39.7883 71.8752 39.965 71.7172 40.0122 71.5098 L 40.0225 71.5013 C 40.1083 71.0539 40.1674 70.548 40.1906 70.0042 L 37.8073 70.0042 ZM 40.8074 70.0042 C 40.8307 70.548 40.8897 71.0539 40.9755 71.5013 L 40.9858 71.5098 C 41.033 71.7172 41.2097 71.8752 41.4314 71.8754 L 41.4319 71.876 L 42.566 71.876 L 42.5667 71.8754 C 42.7883 71.8752 42.9651 71.7172 43.0122 71.5098 L 43.0226 71.5013 C 43.1083 71.0539 43.1674 70.548 43.1906 70.0042 L 40.8074 70.0042 ZM 43.8074 70.0042 C 43.8307 70.548 43.8897 71.0539 43.9755 71.5013 L 43.9858 71.5098 C 44.033 71.7172 44.2097 71.8752 44.4313 71.8754 L 44.4319 71.876 L 45.566 71.876 L 45.5666 71.8754 C 45.7883 71.8752 45.965 71.7172 46.0122 71.5098 L 46.0226 71.5013 C 46.1083 71.0539 46.1674 70.548 46.1907 70.0042 L 43.8074 70.0042 ZM 46.8073 70.0042 C 46.8307 70.548 46.8897 71.0539 46.9755 71.5013 L 46.9858 71.5098 C 47.033 71.7172 47.2097 71.8752 47.4314 71.8754 L 47.4319 71.876 L 48.566 71.876 L 48.5666 71.8754 C 48.7883 71.8752 48.965 71.7172 49.0122 71.5098 L 49.0226 71.5013 C 49.1083 71.0539 49.1674 70.548 49.1907 70.0042 L 46.8073 70.0042 ZM 49.8074 70.0042 C 49.8307 70.548 49.8897 71.0539 49.9754 71.5013 L 49.9858 71.5098 C 50.033 71.7172 50.2097 71.8752 50.4314 71.8754 L 50.4319 71.876 L 51.5661 71.876 L 51.5666 71.8754 C 51.7883 71.8752 51.965 71.7172 52.0122 71.5098 L 52.0226 71.5013 C 52.1083 71.0539 52.1674 70.548 52.1907 70.0042 L 49.8074 70.0042 ZM 52.8074 70.0042 C 52.8307 70.548 52.8897 71.0539 52.9755 71.5013 L 52.9858 71.5098 C 53.033 71.7172 53.2097 71.8752 53.4314 71.8754 L 53.4319 71.876 L 54.566 71.876 L 54.5666 71.8754 C 54.7883 71.8752 54.965 71.7172 55.0122 71.5098 L 55.0226 71.5013 C 55.1083 71.0539 55.1674 70.548 55.1907 70.0042 L 52.8074 70.0042 ZM 55.8073 70.0042 C 55.8307 70.548 55.8897 71.0539 55.9754 71.5013 L 55.9858 71.5098 C 56.033 71.7172 56.2097 71.8752 56.4314 71.8754 L 56.4319 71.876 L 57.5661 71.876 L 57.5666 71.8754 C 57.7883 71.8752 57.965 71.7172 58.0122 71.5098 L 58.0225 71.5013 C 58.1083 71.0539 58.1674 70.548 58.1907 70.0042 L 55.8073 70.0042 ZM 51.8074 73.0041 C 51.8307 73.548 51.8897 74.0539 51.9754 74.5013 L 51.9858 74.5098 C 52.033 74.7172 52.2097 74.8753 52.4314 74.8754 L 52.4319 74.876 L 57.5661 74.876 L 57.5666 74.8754 C 57.7883 74.8753 57.965 74.7172 58.0122 74.5098 L 58.0225 74.5013 C 58.1083 74.0539 58.1674 73.548 58.1907 73.0041 L 51.8074 73.0041 ZM 52.8074 76.0041 C 52.8307 76.548 52.8897 77.054 52.9755 77.5014 L 52.9858 77.5098 C 53.033 77.7172 53.2097 77.8753 53.4314 77.8754 L 53.4319 77.876 L 57.5661 77.876 L 57.5666 77.8754 C 57.7883 77.8753 57.965 77.7172 58.0122 77.5098 L 58.0225 77.5014 C 58.1083 77.054 58.1674 76.548 58.1907 76.0041 L 52.8074 76.0041 ZM 54.8073 79.0041 C 54.8306 79.5481 54.8897 80.054 54.9755 80.5014 L 54.9858 80.5098 C 55.033 80.7172 55.2097 80.8752 55.4314 80.8754 L 55.4319 80.876 L 57.5661 80.876 L 57.5666 80.8754 C 57.7883 80.8752 57.965 80.7172 58.0122 80.5098 L 58.0225 80.5014 C 58.1083 80.054 58.1674 79.5481 58.1907 79.0041 L 54.8073 79.0041 Z" fill="url(#gradient)" filter="url(#shadows)"/>		<path id="Languages" d="M 26.7073 88.3315 L 24.711 82.78 L 17.0673 82.78 L 15.1119 88.3315 L 11.666 88.3315 L 19.1457 68.2582 L 22.7009 68.2582 L 30.1805 88.3315 L 26.7073 88.3315 ZM 21.9762 74.5209 C 21.8394 74.1563 21.6501 73.5821 21.4087 72.798 C 21.1671 72.0141 21.0006 71.4397 20.9096 71.075 C 20.6635 72.1963 20.3033 73.4225 19.8294 74.7534 L 18.0244 79.9631 L 23.8495 79.9631 L 21.9762 74.5209 ZM 16.749 70.0064 L 4.526 70.0064 L 4.526 62.9943 L 19.4662 62.9943 L 19.4662 66.2581 L 18.1457 66.2581 L 16.749 70.0064 ZM 17.33 65.0023 L 6.616 65.0023 L 6.616 68.0046 L 17.33 68.0046 L 17.33 65.0023 ZM 3.2337 70.996 L 16.3803 70.996 L 15.6871 72.8563 L 13.2446 72.8563 C 13.1765 73.7404 13.0632 74.2442 12.9272 75.015 L 14.8828 75.015 L 14.143 77.0002 L 13.4811 77.0002 C 13.5908 77.2716 13.7286 77.5093 13.8633 77.7511 L 13.0974 79.8065 C 12.559 79.0474 12.1741 78.1332 11.9644 77.0289 C 11.223 81.0403 9.07 82.5771 2.7643 83.4278 C 2.6283 83.0423 1.8507 82.0155 1.5787 81.698 C 7.1105 80.9045 9.3776 79.7434 10.3751 77.0002 L 1.7374 77.0002 L 1.7374 75.015 L 10.7605 75.015 C 10.9192 74.2668 11.0326 73.7631 11.1006 72.8563 L 3.2337 72.8563 L 3.2337 70.996 Z" fill="url(#gradient)" filter="url(#shadows)"/>		<path id="Date%20%26%20Time" d="M 135.0001 58.5123 C 127.5375 58.5123 121.4879 52.4626 121.4879 45 C 121.4879 37.5375 127.5375 31.4879 135.0001 31.4879 C 142.4626 31.4879 148.5123 37.5375 148.5123 45 C 148.5123 52.4626 142.4626 58.5123 135.0001 58.5123 ZM 135.0001 33.9901 C 128.9194 33.9901 123.99 38.9194 123.99 45 C 123.99 51.0807 128.9194 56.0101 135.0001 56.0101 C 141.0808 56.0101 146.0101 51.0807 146.0101 45 C 146.0101 38.9194 141.0808 33.9901 135.0001 33.9901 ZM 132.9476 46.8211 L 128.0304 41.9039 C 128.3566 41.3234 128.759 40.1084 129.2416 39.6073 L 134.1617 44.5275 C 134.6224 44.9882 135.3694 44.9882 135.8301 44.5275 L 140.7513 39.6063 C 141.2329 40.1062 141.6346 41.3199 141.9606 41.8991 L 137.0386 46.8211 C 135.9089 47.9509 134.0773 47.9509 132.9476 46.8211 Z" fill="url(#gradient)" filter="url(#shadows)"/>		<path id="Brightness" d="M 87.7509 41.7858 L 83.5822 43.1403 C 83.1216 43.2899 82.6271 43.0379 82.4775 42.5774 C 82.3279 42.1169 82.5798 41.6223 83.0403 41.4727 L 87.2091 40.1182 C 87.6696 39.9686 88.1641 40.2206 88.3137 40.6812 C 88.4633 41.1416 88.2114 41.636 87.7509 41.7858 ZM 80.8458 38.4522 C 80.5613 38.8439 80.013 38.9308 79.6213 38.6462 C 79.2296 38.3616 79.1428 37.8134 79.4274 37.4216 L 82.0038 33.8755 C 82.2884 33.4838 82.8366 33.397 83.2283 33.6815 C 83.62 33.9661 83.7068 34.5143 83.4222 34.9062 L 80.8458 38.4522 ZM 74.9999 37.1445 C 74.5157 37.1445 74.1232 36.752 74.1232 36.2679 L 74.1232 31.8847 C 74.1232 31.4006 74.5157 31.008 74.9999 31.008 C 75.4841 31.008 75.8765 31.4006 75.8765 31.8847 L 75.8765 36.2679 C 75.8765 36.752 75.4841 37.1445 74.9999 37.1445 ZM 69.1539 38.4522 L 66.5776 34.9062 C 66.293 34.5143 66.3798 33.9661 66.7715 33.6815 C 67.1631 33.397 67.7114 33.4838 67.996 33.8755 L 70.5724 37.4216 C 70.857 37.8134 70.7702 38.3616 70.3785 38.6462 C 69.9868 38.9308 69.4385 38.8439 69.1539 38.4522 ZM 67.5223 42.5774 C 67.3727 43.0379 66.8781 43.2899 66.4176 43.1403 L 62.2489 41.7858 C 61.7884 41.636 61.5364 41.1416 61.686 40.6812 C 61.8357 40.2206 62.3302 39.9686 62.7907 40.1182 L 66.9594 41.4727 C 67.4199 41.6223 67.6719 42.1169 67.5223 42.5774 ZM 62.2489 48.2283 L 66.4176 46.8738 C 66.8781 46.7242 67.3727 46.9762 67.5223 47.4367 C 67.6719 47.8972 67.4199 48.3916 66.9594 48.5412 L 62.7907 49.8958 C 62.3302 50.0455 61.8357 49.7933 61.686 49.3329 C 61.5364 48.8725 61.7884 48.3779 62.2489 48.2283 ZM 69.1539 51.5618 C 69.4385 51.17 69.9868 51.0833 70.3785 51.3679 C 70.7702 51.6525 70.857 52.2007 70.5724 52.5923 L 67.996 56.1385 C 67.7114 56.5302 67.1631 56.617 66.7715 56.3325 C 66.3798 56.0479 66.293 55.4997 66.5776 55.1079 L 69.1539 51.5618 ZM 74.9999 52.8694 C 75.4841 52.8694 75.8765 53.2619 75.8765 53.7461 L 75.8765 58.1294 C 75.8765 58.6135 75.4841 59.006 74.9999 59.006 C 74.5157 59.006 74.1232 58.6135 74.1232 58.1294 L 74.1232 53.7461 C 74.1232 53.2619 74.5157 52.8694 74.9999 52.8694 ZM 75.0013 51.5407 C 71.4073 51.5407 68.4939 48.6272 68.4939 45.0334 C 68.4939 41.4395 71.4073 38.5259 75.0013 38.5259 C 78.5952 38.5259 81.5085 41.4395 81.5085 45.0334 C 81.5085 48.6272 78.5952 51.5407 75.0013 51.5407 ZM 80.8458 51.5618 L 83.4222 55.1079 C 83.7068 55.4997 83.62 56.0479 83.2283 56.3325 C 82.8366 56.617 82.2884 56.5302 82.0038 56.1385 L 79.4274 52.5923 C 79.1428 52.2007 79.2296 51.6525 79.6213 51.3679 C 80.013 51.0833 80.5613 51.17 80.8458 51.5618 ZM 82.4775 47.4367 C 82.6271 46.9762 83.1216 46.7242 83.5822 46.8738 L 87.7509 48.2283 C 88.2114 48.3779 88.4633 48.8725 88.3137 49.3329 C 88.1641 49.7933 87.6696 50.0455 87.2091 49.8958 L 83.0403 48.5412 C 82.5798 48.3916 82.3279 47.8972 82.4775 47.4367 Z" fill="url(#gradient)" filter="url(#shadows)"/>		<path id="Sound" d="M 54.9338 54.7811 C 54.548 55.1668 53.9224 55.1668 53.5366 54.7811 C 53.1507 54.3952 53.1507 53.7695 53.5366 53.3837 C 54.3272 52.5931 54.9338 51.6897 54.9338 51.6897 C 57.6906 47.6678 57.6906 42.3322 54.9338 38.3104 C 54.9338 38.3104 54.3272 37.407 53.5366 36.6164 C 53.1507 36.2305 53.1507 35.6049 53.5366 35.2192 C 53.9224 34.8333 54.548 34.8333 54.9338 35.2192 C 60.3357 40.621 60.3357 49.3791 54.9338 54.7811 ZM 51.3785 51.2882 L 51.3785 51.2872 C 51.3784 51.2874 51.3783 51.2876 51.3781 51.2877 C 50.9923 51.6736 50.3667 51.6736 49.9808 51.2877 C 49.5951 50.902 49.5951 50.2764 49.9808 49.8906 C 50.8493 49.0222 51.3785 47.8264 51.3785 47.8264 C 52.1857 46.0288 52.1857 43.9713 51.3785 42.1737 C 51.3785 42.1737 50.9414 41.0701 49.9808 40.1096 C 49.5951 39.7237 49.5951 39.0981 49.9808 38.7123 C 50.3667 38.3264 50.9923 38.3264 51.3781 38.7123 C 51.3783 38.7125 51.3784 38.7127 51.3785 38.7128 L 51.3785 38.7119 C 54.8514 42.1847 54.8514 47.8153 51.3785 51.2882 ZM 47.8225 47.7946 C 47.4366 48.1805 46.811 48.1805 46.4251 47.7946 C 46.0393 47.4088 46.0393 46.7832 46.4251 46.3974 C 46.4251 46.3974 47.8225 45.0001 46.4251 43.6028 C 46.0393 43.2169 46.0393 42.5913 46.4251 42.2056 C 46.811 41.8197 47.4366 41.8197 47.8225 42.2056 C 47.8228 42.2059 47.8229 42.2063 47.8232 42.2066 C 49.3653 43.7497 49.3653 46.2504 47.8232 47.7936 C 47.8229 47.7939 47.8228 47.7943 47.8225 47.7946 ZM 36.3032 50.0022 L 32.6111 50.0022 C 31.7213 50.0022 31 49.2809 31 48.3911 L 31 41.6091 C 31 40.7193 31.7213 39.998 32.6111 39.998 L 36.3077 39.998 L 41.7936 33.9808 C 42.4008 33.3736 43.1971 33.0711 43.993 33.0724 L 43.993 56.9322 C 43.1971 56.9335 42.4008 56.6312 41.7936 56.024 L 36.3032 50.0022 Z" fill="url(#gradient)" filter="url(#shadows)"/>		<path id="Bluetooth" d="M 141.6787 10.7262 L 137.3429 15.004 L 141.6787 19.2818 C 142.6388 20.2288 142.6388 21.7642 141.6787 22.7113 L 134.2949 29.9963 L 134.2949 18.0112 L 128.7363 23.4955 C 128.694 23.5372 128.6457 23.5684 128.601 23.6061 L 128.5514 23.6061 L 128.5514 23.6466 C 128.5005 23.6873 128.4531 23.734 128.4 23.7705 C 128.0972 22.9304 127.8248 22.0469 127.5853 21.1248 L 133.7855 15.0077 L 127.578 8.8833 C 127.817 7.9593 128.0892 7.0737 128.3918 6.2317 C 128.4478 6.27 128.4979 6.319 128.5514 6.3618 L 128.5514 6.3964 L 128.5939 6.3964 C 128.641 6.4359 128.6918 6.4687 128.7363 6.5126 L 134.2949 11.9968 L 134.2949 0.0117 L 141.6787 7.2967 C 142.6388 8.2437 142.6388 9.7792 141.6787 10.7262 ZM 136.8475 23.9718 L 139.3104 21.5419 L 139.3069 21.5385 C 139.5964 21.2187 139.5886 20.7294 139.2775 20.4224 C 139.271 20.416 139.2633 20.4117 139.2567 20.4054 L 136.8475 18.0286 L 136.8475 23.9718 ZM 139.2775 8.4373 C 139.271 8.431 139.2633 8.4266 139.2567 8.4204 L 136.8475 6.0436 L 136.8475 11.9866 L 139.3104 9.5568 L 139.3069 9.5535 C 139.5964 9.2338 139.5886 8.7444 139.2775 8.4373 Z" fill="url(#gradient)" filter="url(#shadows)"/>		<path id="Network" d="M 113.1486 25.0129 L 113.1486 7.6951 C 113.1486 5.6544 114.8026 4 116.8432 3.9994 L 116.8432 21.3172 C 116.8432 23.358 115.1892 25.0122 113.1486 25.0129 ZM 108.1486 25.0129 L 108.1486 11.1951 C 108.1486 9.1544 109.8027 7.5001 111.8431 7.4994 L 111.8431 21.3172 C 111.8431 23.358 110.1891 25.0122 108.1486 25.0129 ZM 103.1485 25.0129 L 103.1485 14.695 C 103.1485 12.6544 104.8026 11 106.8431 10.9994 L 106.8431 21.3172 C 106.8431 23.358 105.1891 25.0122 103.1485 25.0129 ZM 98.1486 25.0129 L 98.1486 18.1951 C 98.1486 16.1544 99.8027 14.5 101.8432 14.4994 L 101.8432 21.3172 C 101.8432 23.358 100.1891 25.0122 98.1486 25.0129 ZM 93.1486 25.0129 L 93.1486 21.695 C 93.1486 19.6545 94.8027 18 96.8431 17.9994 L 96.8431 21.3172 C 96.8431 23.358 95.1891 25.0122 93.1486 25.0129 Z" fill="url(#gradient)" filter="url(#shadows)"/>		<path id="Wifi" d="M 88.9136 13.8904 C 85.9013 10.0709 81.2426 7.6105 76.0005 7.6105 C 70.763 7.6105 66.1074 10.0666 63.0948 13.8805 L 61.0077 11.7934 C 64.5607 7.4559 69.9561 4.6858 76.0005 4.6858 C 82.0494 4.6858 87.4478 7.4603 91.0008 11.8033 L 88.9136 13.8904 ZM 86.8527 15.9514 L 84.768 18.0361 C 82.8485 15.2503 79.6394 13.4216 76.0005 13.4216 C 72.366 13.4216 69.1608 15.2462 67.2405 18.0263 L 65.1558 15.9416 C 67.6296 12.6425 71.5597 10.4982 76.0005 10.4982 C 80.4458 10.4982 84.3794 12.6468 86.8527 15.9514 ZM 76.0005 16.3107 C 78.8448 16.3107 81.3242 17.8477 82.6722 20.1319 L 80.4898 22.3142 C 79.7916 20.51 78.0511 19.2253 76.0005 19.2253 C 73.9547 19.2253 72.2169 20.5036 71.5154 22.3012 L 69.3354 20.1212 C 70.6849 17.843 73.1608 16.3107 76.0005 16.3107 ZM 76.0005 22.1231 C 77.0704 22.1231 77.9377 22.9904 77.9377 24.0602 C 77.9377 25.1301 77.0704 25.9973 76.0005 25.9973 C 74.9307 25.9973 74.0635 25.1301 74.0635 24.0602 C 74.0635 22.9904 74.9307 22.1231 76.0005 22.1231 Z" fill="url(#gradient)" filter="url(#shadows)"/>		<path id="Airplane%20Mode" d="M 24.7754 16.7297 C 24.772 16.7297 24.7689 16.7292 24.7655 16.7292 L 24.7655 16.7304 L 19.0583 16.7304 L 10.2209 27.2758 L 8.5007 27.2758 L 13.1003 16.7228 C 10.4189 16.6899 8.0138 16.5062 6.2114 16.2274 L 2.5083 19.9128 L 0.9679 19.9128 L 2.9745 15.2061 L 3.0128 15.2061 C 2.9614 15.1384 2.9262 15.0699 2.9262 15 C 2.9262 14.9301 2.9614 14.8617 3.0128 14.7939 L 2.9745 14.7939 L 0.9679 10.0872 L 2.5083 10.0872 L 6.2114 13.7727 C 8.0138 13.4938 10.4189 13.3101 13.1004 13.2773 L 8.5007 2.7243 L 10.2209 2.7243 L 19.0583 13.2696 L 24.7655 13.2696 L 24.7655 13.2708 C 24.7689 13.2708 24.772 13.2704 24.7754 13.2704 C 27.1881 13.2704 29.144 14.0448 29.144 15 C 29.144 15.9553 27.1881 16.7297 24.7754 16.7297 Z" fill="url(#gradient)" filter="url(#shadows)"/>		<path id="Sim%20Toolkit" d="M 147.959 132.3431 C 147.8648 132.4465 146.9966 133.482 146.9966 133.482 L 146.9526 134.5111 C 146.9526 134.5111 146.9966 147.0974 146.9966 147.9612 C 146.9966 148.8251 146.382 149.4695 145.4884 149.4695 C 144.5947 149.4695 143.9802 148.8251 143.9801 147.9612 C 143.9801 147.0974 143.9801 143.4365 143.9801 143.4365 L 143.9801 134.6885 L 143.9802 133.482 C 143.9802 133.482 143.1806 132.4682 143.1006 132.3812 C 142.3716 131.6904 141.9122 130.6923 141.9103 129.5826 C 141.9081 128.3138 142.5049 127.1934 143.4202 126.5125 L 143.6785 129.2589 L 145.4883 130.4654 L 146.9966 128.6555 L 146.3834 125.94 C 147.9377 126.3575 149.0893 127.8365 149.0924 129.5952 C 149.0943 130.6804 148.6578 131.657 147.959 132.3431 ZM 138.9544 148.987 L 123.9186 148.987 C 122.8667 148.987 122.0139 148.0775 122.0139 146.9554 L 122.0139 123.0446 C 122.0139 121.9226 122.8667 121.013 123.9186 121.013 L 136.1688 121.013 L 140.9861 125.8303 L 140.9861 146.9554 C 140.9861 148.0775 140.0765 148.987 138.9544 148.987 ZM 131.9904 145.994 L 133.9133 145.994 L 133.9133 141.9697 L 131.9904 141.9697 L 131.9904 145.994 ZM 129.1492 145.994 L 131.0722 145.994 L 131.0722 141.9697 L 129.1492 141.9697 L 129.1492 145.994 ZM 125.4718 144.4158 C 125.4718 145.2874 126.1783 145.994 127.0499 145.994 L 128.1873 145.994 L 128.1873 141.9697 L 125.4718 141.9697 L 125.4718 144.4158 ZM 128.1873 133 L 127.0499 133 C 126.1783 133 125.4718 133.7066 125.4718 134.5781 L 125.4718 136.9238 L 128.1873 136.9238 L 128.1873 133 ZM 131.0722 133 L 129.1492 133 L 129.1492 136.9238 L 131.0722 136.9238 L 131.0722 133 ZM 133.9133 133 L 131.9904 133 L 131.9904 136.9238 L 133.9133 136.9238 L 133.9133 133 ZM 137.4658 134.5781 C 137.4658 133.7066 136.7592 133 135.8876 133 L 134.8752 133 L 134.8752 136.9238 L 137.4658 136.9238 L 137.4658 134.5781 ZM 137.4712 138.8895 L 137.4673 138.8895 L 137.4673 137.8387 L 125.4703 137.8387 L 125.4703 141.0221 L 134.8756 141.0221 L 134.8756 141.9697 L 134.8752 141.9697 L 134.8752 145.994 L 135.8876 145.994 C 136.7592 145.994 137.4658 145.2874 137.4658 144.4158 L 137.4658 143.7994 L 137.4712 143.7994 L 137.4712 138.8895 Z" fill="url(#gradient)" filter="url(#shadows)"/>	</g></svg>