<?xml version="1.0"?>
<svg width="640" height="480" xmlns="http://www.w3.org/2000/svg">
 <!-- Created with SVG-edit - http://svg-edit.googlecode.com/ -->
 <g>
  <g id="svg_1"/>
  <title>Layer 1</title>
  <path id="svg_46" d="m104.137917,421.37326c-0.290947,1.983917 -1.180199,3.596558 -2.216156,4.250275l-0.476883,0l-1.445587,0l-2.612564,0c-0.007027,0.000244 -0.012878,0.004059 -0.019997,0.004059l-1.958321,0c-0.330162,0 -0.597755,-0.26767 -0.597755,-0.597748l0,-3.730072c-0.001472,-0.000397 -0.002914,-0.000946 -0.004402,-0.001343l0,-0.768677c0.029007,0.00946 0.056847,0.02475 0.085968,0.033539c0.050842,0.015472 0.102081,0.028503 0.153557,0.040314c0.143646,0.03186 0.288567,0.056366 0.43692,0.056366c0.389366,0 0.76416,-0.112885 1.115646,-0.320404l-0.002846,0c0.142799,-0.083984 0.281082,-0.185852 0.415413,-0.300415c0.020844,-0.0177 0.04071,-0.03833 0.061363,-0.056763c0.112076,-0.100464 0.221077,-0.210419 0.326241,-0.33078c0.022675,-0.025818 0.045105,-0.052185 0.067436,-0.078888c0.112282,-0.134888 0.220917,-0.279022 0.32412,-0.435211c0.006401,-0.009674 0.013161,-0.018524 0.019524,-0.02829c0.11544,-0.177185 0.225121,-0.366577 0.327835,-0.568207c1.529121,-0.631012 2.732765,-2.263275 3.187721,-4.333038c0.005867,0.00116 0.011841,-0.000061 0.017723,0.001221c0.755554,0.16864 1.165558,1.212769 0.915718,2.332214c-0.000244,0.001038 -0.000679,0.001862 -0.000877,0.002869l0.000198,0.000061c-0.1558,0.697266 -0.380043,1.327637 -0.637558,1.844666l2.424835,0c0.205315,0.864624 0.252357,1.895966 0.092751,2.984253l-0.000023,0zm-6.944229,-0.575989c-0.496635,0.361267 -1.039757,0.569397 -1.61145,0.591461l0,3.225739c0,0.13382 0.10849,0.24231 0.242325,0.24231l1.126801,0c0.133827,0 0.242317,-0.10849 0.242317,-0.24231l0,-3.8172l0.000008,0z" fill="#788a8d"/>
  <path id="svg_45" d="m144.088531,381.810883c-0.296371,1.550659 -0.848801,2.888641 -1.506531,3.817688l-1.387115,0l-2.173111,0l-1.585052,0c-0.00705,0.000244 -0.012909,0.003998 -0.019989,0.003998l-1.958328,0c-0.33017,0 -0.597763,-0.2677 -0.597763,-0.597778l0,-4.030029c-0.00148,-0.000397 -0.00293,-0.000916 -0.004395,-0.001312l0,-0.768738c0.028992,0.009491 0.056839,0.02475 0.085953,0.033539c0.050842,0.015472 0.102081,0.028503 0.153564,0.040314c0.143646,0.03186 0.288559,0.056396 0.43692,0.056396c0.144882,0 0.287201,-0.01889 0.427597,-0.049072c0.044678,-0.009644 0.08812,-0.026093 0.132294,-0.038605c0.095306,-0.0271 0.189911,-0.057983 0.282608,-0.098358c0.049454,-0.021576 0.098022,-0.046967 0.146652,-0.072144c0.085999,-0.044556 0.170776,-0.094238 0.254028,-0.149811c0.047562,-0.031769 0.094925,-0.063995 0.141541,-0.099243c0.083847,-0.063416 0.165436,-0.134155 0.245956,-0.208435c0.044601,-0.041138 0.090118,-0.079254 0.133636,-0.123596c0.118851,-0.121094 0.234406,-0.25174 0.344406,-0.395752c0.014374,-0.018829 0.027283,-0.040863 0.041504,-0.060059c0.097397,-0.131531 0.191269,-0.271057 0.280838,-0.419373c0.00563,-0.009277 0.010818,-0.019348 0.016312,-0.02887c1.614517,-0.55954 2.900787,-2.218964 3.385086,-4.356415c0.667358,0.257141 1.017761,1.231201 0.783432,2.281189c-0.000244,0.001038 -0.000702,0.001892 -0.000931,0.002869l0.000229,0.000092c-0.198746,0.889587 -0.508347,1.671143 -0.857529,2.244629l2.986359,0c0.070404,0.914703 0.01651,1.946106 -0.188156,3.016907l-0.000015,-0.000031zm-6.844849,-1.223999c0,-0.025848 -0.007202,-0.049469 -0.014679,-0.072784c-0.492599,0.354523 -1.030838,0.55777 -1.596771,0.57962l0,3.525726c0,0.13382 0.108475,0.24234 0.242325,0.24234l1.126785,0c0.13385,0 0.242325,-0.108521 0.242325,-0.24234l0,-4.032562l0.000015,0z" fill="#788a8d"/>
  <path id="svg_44" d="m104.543518,380.600922c-0.275505,1.441406 -0.77684,2.684357 -1.373795,3.600586c-0.127327,0.12558 -0.294365,0.207764 -0.485191,0.217041l-1.274643,0l-1.933121,0l-1.181358,0c-0.073921,0.246124 -0.293373,0.429016 -0.563683,0.429016l-1.958321,0c-0.330154,0 -0.597755,-0.26767 -0.597755,-0.597748l0,-5.269043c0,-0.33017 0.267586,-0.597748 0.597755,-0.597748l1.958321,0c0.151085,0 0.28524,0.060913 0.390442,0.15332c1.464401,-0.477295 2.61116,-2.230316 3.162239,-4.61377c0.013199,-0.000458 0.023521,-0.005737 0.036919,-0.005737c0.260284,0 0.483406,0.086121 0.607323,0.211853c0.192444,0.309357 0.302521,0.701477 0.283333,1.130829c-0.000214,0.003998 -0.001015,0.007782 -0.001213,0.011719l0.001038,0.000061c-0.03376,0.890808 -0.194,1.690796 -0.425079,2.312714l2.538284,0l0,0.00351c0.233238,0 0.421761,0.18811 0.424156,0.420807c0.000084,0.002319 0.000214,0.004578 0.000282,0.007019c-0.000641,0.003174 -0.001854,0.006256 -0.001953,0.009705l0.00235,0c0.026123,0.801117 -0.0336,1.672119 -0.206314,2.575867l-0.000015,0zm-6.98484,-1.204041c0,-0.133789 -0.108467,-0.24231 -0.242317,-0.24231l-1.126793,0c-0.13385,0 -0.242317,0.108521 -0.242317,0.24231l0,4.437561c0,0.133789 0.108467,0.24231 0.242317,0.24231l1.126793,0c0.133842,0 0.242317,-0.108521 0.242317,-0.24231l0,-4.437561z" fill="#788a8d"/>
  <path id="svg_43" d="m104.266319,378.226379c-0.007996,0.378143 -0.028282,0.76297 -0.074158,1.158234c-0.21756,1.87439 -0.821014,3.468994 -1.579643,4.4422c-0.556206,0.109711 -1.149887,0.171814 -1.769485,0.171814c-1.174324,0 -2.261284,-0.215179 -3.157074,-0.579742l0,-4.790253c0.008713,-0.00058 0.017273,0.001129 0.026001,0.000488c1.67804,-0.129181 3.00528,-1.971436 3.576752,-4.58728c0.003639,0.003479 0.006477,0.008331 0.010078,0.011932l0.002037,-0.021942c0,0 1.445763,-0.230499 0.261124,3.54599c1.010345,0.076324 1.942078,0.296997 2.704346,0.64856l0.000023,0zm-8.386238,6.533844c-0.070442,0.028931 -0.136238,0.043488 -0.197922,0.045471l0,-6.264252l1.718773,-0.227356c-0.004478,2.305542 -0.209923,4.38266 -0.537201,5.85434c-0.227524,0.20462 -0.543724,0.41098 -0.983643,0.591797l-0.000008,0z" fill="#788a8d"/>
  <path id="svg_42" d="m64.046516,380.798187l0,0c-0.284035,0.355316 -0.606155,0.678864 -0.960236,0.964264c-0.000202,0.000214 -0.000401,0.000336 -0.000641,0.000458c-0.16608,0.133911 -0.340481,0.25769 -0.519958,0.374176c-0.03936,0.025482 -0.080402,0.048492 -0.120361,0.07312c-0.142521,0.08786 -0.288441,0.170685 -0.43824,0.24707c-0.058601,0.029816 -0.118198,0.057709 -0.177799,0.085663c-0.13636,0.064087 -0.27552,0.122925 -0.41708,0.177185c-0.069962,0.026733 -0.140041,0.05307 -0.211201,0.077301c-0.138081,0.04715 -0.279079,0.087585 -0.421322,0.125061c-0.075157,0.019745 -0.149597,0.041077 -0.225838,0.058044c-0.15052,0.033569 -0.304241,0.058136 -0.458679,0.080505c-0.069443,0.01004 -0.13752,0.024017 -0.207642,0.031708c-0.2248,0.02478 -0.452641,0.039673 -0.684078,0.039673c-0.231483,0 -0.459362,-0.014893 -0.6842,-0.039673c-0.07008,-0.00769 -0.138161,-0.021667 -0.20752,-0.031708c-0.15456,-0.022369 -0.308353,-0.046936 -0.458961,-0.080566c-0.07616,-0.016937 -0.150558,-0.0383 -0.225639,-0.058014c-0.142403,-0.037537 -0.28352,-0.078003 -0.421711,-0.125214c-0.070999,-0.0242 -0.140999,-0.050476 -0.210838,-0.077179c-0.1418,-0.054291 -0.28125,-0.113281 -0.417801,-0.177521c-0.059402,-0.027863 -0.118721,-0.055634 -0.17704,-0.085297c-0.15036,-0.07666 -0.296761,-0.15976 -0.43972,-0.248016c-0.03952,-0.024323 -0.08004,-0.047058 -0.118961,-0.072205c-0.562717,-0.365143 -1.063919,-0.817291 -1.481518,-1.339844l0,0c-0.24316,-0.304291 -0.458523,-0.631073 -0.641651,-0.978241c0.183281,-0.347443 0.398838,-0.674561 0.642239,-0.979034c0.41753,-0.522308 0.91856,-0.974182 1.481041,-1.33905c0.039242,-0.025452 0.080162,-0.048431 0.120041,-0.073029c0.142601,-0.087952 0.288601,-0.170807 0.43856,-0.247223c0.058517,-0.029755 0.11808,-0.057678 0.177639,-0.085602c0.136398,-0.064117 0.2756,-0.123016 0.41724,-0.177246c0.06992,-0.026733 0.139999,-0.05307 0.211121,-0.077301c0.138081,-0.047119 0.279118,-0.087646 0.421398,-0.125092c0.075161,-0.019714 0.149559,-0.041138 0.2258,-0.058044c0.15052,-0.033539 0.304283,-0.058197 0.458763,-0.080566c0.069397,-0.01004 0.137478,-0.023987 0.2076,-0.031677c0.224838,-0.02475 0.452679,-0.039642 0.68412,-0.039642c0.2314,0 0.459198,0.014893 0.683998,0.039612c0.070122,0.00769 0.138241,0.021667 0.20768,0.031708c0.1544,0.022369 0.308079,0.046906 0.458519,0.080444c0.076321,0.016998 0.150803,0.038422 0.226002,0.058167c0.142159,0.037445 0.283039,0.077789 0.420959,0.124908c0.071281,0.024292 0.141479,0.05069 0.211559,0.077454c0.141373,0.054108 0.280319,0.112915 0.416481,0.17691c0.059799,0.028015 0.119598,0.056 0.17836,0.085876c0.149441,0.076202 0.29496,0.158752 0.437119,0.24646c0.040363,0.02478 0.081722,0.047974 0.121441,0.073761c0.17852,0.115814 0.351921,0.238953 0.517162,0.37204c0.001118,0.000885 0.002319,0.001617 0.003437,0.002533c0.35384,0.285248 0.675842,0.60849 0.959763,0.963501c0.243759,0.30481 0.459557,0.632263 0.643036,0.980133l0,0c-0.183319,0.347504 -0.398918,0.674683 -0.642426,0.979248l-0.000015,0zm-3.045715,-2.975861c0.3834,0.428497 0.623398,0.988251 0.623398,1.60849c0,1.337799 -1.08448,2.422302 -2.422237,2.422302c-1.337761,0 -2.422241,-1.084503 -2.422241,-2.422302c0,-0.619904 0.239761,-1.179291 0.622761,-1.607727c-1.04063,0.384399 -1.927402,1.08606 -2.533962,1.994598c0.934002,1.398956 2.526043,2.321075 4.33432,2.321075c1.808281,0 3.400322,-0.922119 4.334282,-2.321075c-0.607002,-0.90921 -1.494682,-1.611206 -2.53632,-1.995361z" fill="#788a8d"/>
  <path id="svg_41" d="m64.767197,378.20108c-0.04084,0.725677 0.122635,1.592468 -0.797077,2.842224c-0.981319,1.333496 -1.982479,1.21051 -2.166481,1.229614c-1.38768,0.144043 -0.915867,-0.158569 -1.858597,-0.158569c-0.942722,0 -0.510403,0.296234 -1.836033,0.158569c-0.18396,-0.019104 -1.185169,0.103882 -2.166489,-1.229614c-0.186081,-0.252869 -0.31855,-0.486298 -0.42664,-0.709839l0.09264,1.617218c0.001801,0.002014 0.00404,0.003143 0.005798,0.005219c0.050762,0.059875 0.121201,0.114532 0.121201,0.334503c0,0.203705 -0.075199,0.342926 -0.08672,0.36319l0.081039,1.41449c0.006721,0.008057 0.014839,0.013611 0.021362,0.022644c0.059998,0.082916 0.14328,0.158661 0.14328,0.463318c0,0.304108 -0.107002,0.513245 -0.107361,0.513916l0.019878,0.347046c0,0 -0.073601,0.060425 -0.208481,0.060425c-0.13488,0 -0.220718,-0.060425 -0.220718,-0.060425l-0.033001,-1.251099c-0.071117,-0.102814 -0.167877,-0.302673 -0.167877,-0.62558c0,-0.361084 0.09808,-0.565826 0.13472,-0.630737l-0.023243,-0.881348c-0.059559,-0.063477 -0.15976,-0.207001 -0.15976,-0.469116c0,-0.31778 0.128323,-0.476837 0.128323,-0.476837c0,0 0.000278,0.439697 0.020119,0.517639l-0.056561,-2.14566c-0.084881,-0.47464 -0.054279,-0.881622 -0.075081,-1.25119c-0.040878,-0.725677 -0.18396,-1.511841 -0.18396,-1.511841c0,0 0.306591,0.463654 0.878841,0.503967c0.572281,0.040314 0.817558,-0.201538 2.023399,-0.564392c1.205879,-0.362854 2.084759,0.100769 2.084759,0.100769l0.015682,0c0,0 0.87888,-0.463623 2.084759,-0.100769c1.205841,0.362854 1.451118,0.604706 2.023399,0.564392c0.572281,-0.040314 0.878853,-0.503967 0.878853,-0.503967c0,0 -0.143082,0.786163 -0.18396,1.511841l-0.000015,0zm-8.980206,6.865143c0.00008,-0.009308 0.00185,-0.286896 -0.025002,-0.436737l0.025002,0.436737zm2.229359,-6.286957c-0.713711,-0.162659 -1.01516,0.110413 -1.319,0.233734c-0.301239,0.122223 -0.50956,0.135498 -0.50956,0.135498c0,0 0.040878,0.423309 0.756199,0.786163c0.715363,0.362793 2.18288,0.175568 2.18288,0.175568c0,0 0.1558,-1.042419 -1.110519,-1.330963zm5.198921,0.233734c-0.305801,-0.118469 -0.605282,-0.396393 -1.318962,-0.233734c-1.266319,0.288544 -1.110558,1.330963 -1.110558,1.330963c0,0 1.46751,0.187256 2.18288,-0.175568c0.715317,-0.362854 0.756199,-0.786163 0.756199,-0.786163c0,0 -0.242809,-0.032135 -0.50956,-0.135498z" fill="#788a8d"/>
  <path id="svg_40" d="m22.638359,383.546844l-1.33972,-1.339813c-0.137079,0.143982 -0.28916,0.264526 -0.45192,0.359833l-1.6954,0c-0.161919,-0.095703 -0.31288,-0.21637 -0.449799,-0.359833l-1.33988,1.339813l-0.96104,-0.000153l0,-3.599365l1.378559,-1.378571c0.40856,-2.006836 1.60788,-4.029907 2.221001,-4.030151c0.612841,0 1.81212,2.023499 2.22052,4.030151l1.378759,1.378571l0,3.599365l-0.961081,0.000153zm-2.636959,-6.897919c-0.21452,0 -0.592199,0.60434 -0.826241,1.325378c0.264641,-0.051788 0.548161,-0.081329 0.84436,-0.081329c0.281721,0 0.55192,0.026215 0.805601,0.073273c-0.234282,-0.717499 -0.610041,-1.317322 -0.823721,-1.317322zm-0.366039,6.397705c-0.049961,0.124725 -0.079681,0.276123 -0.079681,0.43985c0,0.422729 0.328281,0.765778 0.437601,0.765778c0.10956,0 0.437599,-0.342896 0.437599,-0.765778c0,-0.163849 -0.02976,-0.315369 -0.07972,-0.43985l0.520281,-0.000153c0.059479,0.219604 0.092999,0.464417 0.092999,0.723724c0.00012,0.932037 -0.72324,1.6875 -0.964439,1.6875c-0.241159,0 -0.964279,-0.755463 -0.964439,-1.687653c0.00016,-0.25885 0.03356,-0.504272 0.093039,-0.723419l0.506762,0z" fill="#788a8d"/>
  <path id="svg_39" d="m145.183609,338.937225c-0.037689,0.041382 -0.384964,0.455566 -0.384964,0.455566l-0.017578,0.411652c0,0 0.017578,5.034515 0.017578,5.380035c0,0.345551 -0.24585,0.603333 -0.603287,0.603333c-0.357483,0 -0.603271,-0.257782 -0.603317,-0.603333c0,-0.34552 0,-1.809875 0,-1.809875l0,-3.499207l0.000046,-0.482605c0,0 -0.319839,-0.405518 -0.351852,-0.440308c-0.29158,-0.276306 -0.475357,-0.675537 -0.476089,-1.119446c-0.0009,-0.507507 0.237839,-0.955658 0.603958,-1.228027l0.103317,1.098572l0.723923,0.482574l0.603317,-0.723938l-0.245285,-1.086212c0.621719,0.166992 1.082367,0.758606 1.083588,1.462097c0.000763,0.434082 -0.173828,0.824707 -0.453339,1.099121l-0.000015,0zm-3.601837,6.657593l-6.014328,0c-0.420761,0 -0.761887,-0.3638 -0.761887,-0.812653l0,-9.564301c0,-0.448822 0.341125,-0.812653 0.761887,-0.812653l4.90007,0l1.926941,1.92691l0,8.450043c0,0.448853 -0.363861,0.812653 -0.812683,0.812653zm-2.785614,-1.197205l0.769165,0l0,-1.609711l-0.769165,0l0,1.609711zm-1.136475,0l0.769211,0l0,-1.609711l-0.769211,0l0,1.609711zm-1.470947,-0.631287c0,0.348633 0.282608,0.631287 0.631241,0.631287l0.454956,0l0,-1.609711l-1.086197,0l0,0.978424zm1.086197,-4.566315l-0.454956,0c-0.348633,0 -0.631241,0.282623 -0.631241,0.631256l0,0.938263l1.086197,0l0,-1.569519zm1.153961,0l-0.769211,0l0,1.569519l0.769211,0l0,-1.569519zm1.136429,0l-0.769165,0l0,1.569519l0.769165,0l0,-1.569519zm1.42099,0.631256c0,-0.348633 -0.282639,-0.631256 -0.631256,-0.631256l-0.404953,0l0,1.569519l1.036209,0l0,-0.938263zm0.002182,1.724548l-0.001572,0l0,-0.420349l-4.798798,0l0,1.273407l3.762131,0l0,0.379059l-0.000153,0l0,1.609711l0.404953,0c0.348618,0 0.631256,-0.282654 0.631256,-0.631317l0,-0.246582l0.002182,0l0,-1.963928z" fill="#788a8d"/>
  <path id="svg_37" d="m25.16548,339.418671c-1.20496,-1.527802 -3.06848,-2.511963 -5.165279,-2.511963c-2.094999,0 -3.957241,0.982452 -5.16228,2.508026l-0.83484,-0.8349c1.4212,-1.734955 3.579359,-2.842987 5.99712,-2.842987c2.419559,0 4.57892,1.109802 6.00012,2.846985l-0.834841,0.834839zm-5.165279,-1.356873c1.77812,0 3.351561,0.859406 4.340879,2.181305l-0.6166,0.616577c1.242281,0.066132 2.23176,1.085052 2.23176,2.343689c0,1.301453 -1.05492,2.356415 -2.356359,2.356415c-1.301321,0 -2.356239,-1.054962 -2.356239,-2.356415c0,-0.347687 0.07984,-0.67511 0.215078,-0.972198c-0.3526,-0.413208 -0.87232,-0.678528 -1.458519,-0.678528c-0.818319,0 -1.513481,0.511322 -1.794041,1.230377l-0.872,-0.872009c0.539801,-0.911285 1.530161,-1.5242 2.66604,-1.5242c0.864241,0 1.64296,0.355957 2.204359,0.927002c0.326962,-0.241943 0.717442,-0.395325 1.1432,-0.441254c-0.77916,-0.99585 -1.985119,-1.641388 -3.347559,-1.641388c-1.4538,0 -2.73588,0.729797 -3.504,1.841888l-0.83388,-0.833954c0.98952,-1.31958 2.561561,-2.177307 4.33788,-2.177307zm3.230841,7.201477l0.712559,0l0,-2.612l-0.712559,0l0,2.612zm-0.030361,-3.287201c0,0.233612 0.12924,0.350433 0.3878,0.350433c0.12928,0 0.22624,-0.030701 0.29088,-0.092285c0.0646,-0.061493 0.09696,-0.147552 0.09696,-0.258148c0,-0.232086 -0.12928,-0.348114 -0.38784,-0.348114c-0.25856,0 -0.3878,0.116028 -0.3878,0.348114zm-3.20048,0.735687c0.427959,0 0.774879,0.346893 0.774879,0.77478c0,0.427979 -0.34692,0.774902 -0.774879,0.774902c-0.427919,0 -0.774799,-0.346924 -0.774799,-0.774902c0,-0.427887 0.34688,-0.77478 0.774799,-0.77478z" fill="#788a8d"/>
  <path id="svg_36" d="m60,345.399963c-2.982201,0 -5.399761,-2.417603 -5.399761,-5.39975c0,-2.982239 2.417561,-5.39978 5.399761,-5.39978c2.982201,0 5.399773,2.417542 5.399773,5.39978c0,2.982147 -2.417564,5.39975 -5.399773,5.39975zm0,-9.718689c-2.385239,0 -4.318878,1.933594 -4.318878,4.318909c0,2.385284 1.93364,4.318878 4.318878,4.318878c2.385281,0 4.318878,-1.933594 4.318878,-4.318878c0,-2.385315 -1.933598,-4.318909 -4.318878,-4.318909zm-3.674591,3.149109l7.34919,0c0.022522,0.070831 0.03968,0.143829 0.058201,0.216339l-7.465561,0c0.018471,-0.07251 0.035641,-0.145508 0.058163,-0.216339l0.000008,0zm0.36375,-0.800018l6.621719,0c0.042282,0.070923 0.083042,0.142578 0.120842,0.21637l-6.8634,0c0.03775,-0.073792 0.07851,-0.145447 0.120831,-0.21637l0.000008,0zm0.631561,-0.799988l5.358559,0c0.07148,0.069122 0.139,0.141907 0.20496,0.21637l-5.76844,0c0.06596,-0.074463 0.13348,-0.147247 0.204922,-0.21637zm1.224277,-0.799988l2.910004,0c0.153477,0.062592 0.301437,0.135254 0.444279,0.216339l-3.798561,0c0.142879,-0.081085 0.290802,-0.153748 0.444279,-0.216339zm-1.347038,4.113464c0.580639,0 1.05127,0.470612 1.05127,1.051208c0,0.580627 -0.470631,1.0513 -1.05127,1.0513c-0.580559,0 -1.051239,-0.470673 -1.051239,-1.0513c0,-0.580597 0.47068,-1.051208 1.051239,-1.051208zm1.2962,0.285522l2.999199,0c0.048122,0 0.087082,0.039032 0.087082,0.087189l0,1.356812c0,0.048126 -0.03896,0.087097 -0.087082,0.087097l-1.295158,0l0,-1.037048l-0.3964,0l0,1.037048l-1.30764,0c-0.048119,0 -0.08712,-0.038971 -0.08712,-0.087097l0,-1.356812c0,-0.048157 0.039001,-0.087189 0.08712,-0.087189zm4.307919,-0.285614c0.580643,0 1.051323,0.470703 1.051323,1.0513c0,0.580658 -0.47068,1.051361 -1.051323,1.051361c-0.580639,0 -1.051319,-0.470703 -1.051319,-1.051361c0,-0.580597 0.47068,-1.0513 1.051319,-1.0513z" fill="#788a8d"/>
  <path id="svg_35" d="m139.998962,305.414795c-2.983078,0 -5.401276,-2.424194 -5.401276,-5.414703c0,-2.990509 2.418198,-5.414795 5.401276,-5.414795c2.983078,0 5.401321,2.424286 5.401321,5.414795c0,2.990509 -2.418243,5.414703 -5.401321,5.414703zm-0.005203,-9.818756c-2.432236,0 -4.403992,1.971771 -4.403992,4.404022c0,2.432281 1.971756,4.404022 4.403992,4.404022c2.431839,0 4.403244,-1.971039 4.403961,-4.402679l-4.399399,0l3.112366,-3.112427c-0.797211,-0.798676 -1.899277,-1.292969 -3.116928,-1.292969l0,0.000031z" fill="#788a8d"/>
  <path id="svg_34" d="m103.867157,302.261566c-0.000076,1.070831 -0.212967,2.067627 -0.575645,2.917114l-6.583,0c-0.362679,-0.849487 -0.575562,-1.846283 -0.575638,-2.917114l0.001999,0c0,-0.000214 -0.000046,-0.000366 -0.000046,-0.000549c0,-1.067688 0.890526,-1.987762 2.179283,-2.425293l1.686493,1.686523l1.686195,-1.686218c1.288292,0.437622 2.178398,1.357544 2.178398,2.424988c0,0.000183 -0.000023,0.000336 -0.000023,0.000549l0.001999,0l-0.000015,0zm-3.867157,-3.025604c-1.218513,0 -2.206306,-0.987793 -2.206306,-2.206268c0,-1.218597 0.987793,-2.20639 2.206306,-2.20639c1.218521,0 2.20636,0.987793 2.20636,2.20639c0,1.218475 -0.987839,2.206268 -2.20636,2.206268z" fill="#788a8d"/>
  <path id="svg_33" d="m64.199997,303.940521l-8.400005,0c-0.55228,0 -1,-0.447754 -1,-1.000031l0,-5.893311c0,-0.552307 0.44772,-0.999969 1,-0.999969l2.466679,0c0.219238,-0.262817 0.54504,-0.433563 0.91404,-0.433563l1.646358,0c0.369003,0 0.694763,0.170746 0.914001,0.433563l2.45892,0c0.552284,0 1,0.447662 1,0.999969l0,5.893311c0,0.552277 -0.447716,1.000031 -1,1.000031l0.000008,0zm-4.197838,-6.859924c-1.6124,0 -2.919479,1.307068 -2.919479,2.919525c0,1.612366 1.307079,2.919403 2.919479,2.919403c1.612362,0 2.919441,-1.307037 2.919441,-2.919403c0,-1.612457 -1.307079,-2.919525 -2.919441,-2.919525zm-0.000999,4.835632c-1.058239,0 -1.916119,-0.85788 -1.916119,-1.916107c0,-1.058258 0.85788,-1.916199 1.916119,-1.916199c1.058239,0 1.916119,0.857941 1.916119,1.916199c0,1.058228 -0.85788,1.916107 -1.916119,1.916107z" fill="#788a8d"/>
  <path id="svg_32" d="m25.642521,300.400055l-1.277161,0c-0.190161,2.104187 -1.862,3.780548 -3.965321,3.976227l0,1.266144c-0.264,0.054382 -0.536079,0.054443 -0.800039,0.000122l0,-1.265045c-2.11492,-0.184937 -3.79928,-1.865051 -3.99016,-3.977448l-1.26488,0c-0.05436,-0.264038 -0.05428,-0.536072 0.00016,-0.80011l1.26472,0c0.19096,-2.112305 1.87528,-3.79248 3.99016,-3.977356l0,-1.277649c0.26396,-0.054352 0.536039,-0.054291 0.800039,0.000092l0,1.278687c2.103281,0.19574 3.77512,1.87207 3.965321,3.976227l1.27704,0c0.05444,0.264038 0.05448,0.536072 0.00012,0.80011zm-2.899961,-0.80011l0.625601,0c-0.1826,-1.55307 -1.415199,-2.773315 -2.968121,-2.962524l0,0.607544c-0.264,0.054413 -0.536079,0.054443 -0.800039,0.000122l0,-0.609985c-1.56464,0.179016 -2.809441,1.403534 -2.99296,2.964844l0.63792,0c0.054399,0.264038 0.05448,0.536072 0.00012,0.80011l-0.638081,0c0.183519,1.56131 1.42836,2.785858 2.993,2.964935l0,-0.622559c0.26396,-0.054352 0.536039,-0.05426 0.800039,0.000122l0,0.620087c1.552959,-0.189148 2.785601,-1.409515 2.968121,-2.962585l-0.625721,0c-0.054359,-0.264038 -0.054279,-0.536072 0.00012,-0.80011zm-2.754999,1.800537c-0.771521,0 -1.396999,-0.626953 -1.396999,-1.400421c0,-0.773438 0.625479,-1.400482 1.396999,-1.400482c0.771521,0 1.396999,0.627045 1.396999,1.400482c0,0.773468 -0.625479,1.400421 -1.396999,1.400421z" fill="#788a8d"/>
  <path id="svg_38" d="m103.867157,342.261566c-0.000076,1.070892 -0.212967,2.067627 -0.575645,2.917145l-6.583,0c-0.362679,-0.849518 -0.575562,-1.846252 -0.575638,-2.917145l0.001999,0c0,-0.000214 -0.000046,-0.000366 -0.000046,-0.000519c0,-1.490295 1.730522,-2.698364 3.865166,-2.698364c2.134674,0 3.865196,1.208069 3.865196,2.698364c0,0.000153 -0.000031,0.000305 -0.000031,0.000519l0.001999,0zm-1.875633,-0.312927l0.157036,-0.055084c-0.05584,-0.234772 -0.144638,-0.456635 -0.26844,-0.656006l-0.152718,0.073456c-0.095558,0.045898 -0.286804,-0.045654 -0.43972,-0.198639c-0.152924,-0.152954 -0.244598,-0.344177 -0.198639,-0.439758l0.073235,-0.152374c-0.199516,-0.123352 -0.419647,-0.216797 -0.65464,-0.272034l-0.056236,0.160339c-0.03508,0.100037 -0.235123,0.17041 -0.451401,0.17041c-0.216278,0 -0.416321,-0.070374 -0.451393,-0.17041l-0.056236,-0.16037c-0.235283,0.055359 -0.453438,0.151886 -0.652962,0.275513l0.071602,0.148926c0.045921,0.095581 -0.045761,0.286804 -0.198677,0.439758c-0.152924,0.152985 -0.344124,0.244568 -0.43972,0.198669l-0.149055,-0.071686c-0.123756,0.199554 -0.22036,0.417664 -0.275757,0.652954l0.160675,0.056335c0.100082,0.035126 0.170494,0.235138 0.170494,0.451416c0,0.216278 -0.070404,0.41629 -0.170494,0.451416l-0.157036,0.055023c0.05584,0.234711 0.144653,0.456665 0.268486,0.656006l0.152687,-0.073425c0.095596,-0.045959 0.286797,0.045715 0.43972,0.198639c0.152916,0.152954 0.244598,0.344147 0.198677,0.439728l-0.07328,0.152374c0.199562,0.123383 0.41964,0.216827 0.65464,0.272064l0.056236,-0.160339c0.035072,-0.100067 0.235123,-0.170471 0.451393,-0.170471c0.216278,0 0.416321,0.070404 0.451401,0.170471l0.055077,0.157013c0.234726,-0.055817 0.456642,-0.144623 0.655952,-0.268433l-0.073387,-0.15271c-0.045959,-0.095581 0.045715,-0.286743 0.198639,-0.439728c0.152916,-0.152924 0.344162,-0.244568 0.43972,-0.198639l0.152397,0.073303c0.123367,-0.199585 0.216805,-0.419678 0.272079,-0.654694l-0.160347,-0.056213c-0.100082,-0.035126 -0.170494,-0.235138 -0.170494,-0.451385c0,-0.216278 0.070404,-0.416321 0.170494,-0.451416l-0.000008,0zm-1.991524,1.618683c-0.644676,0 -1.16732,-0.522583 -1.16732,-1.167267c0,-0.644714 0.522644,-1.167328 1.16732,-1.167328c0.644684,0 1.16732,0.522614 1.16732,1.167328c0,0.644684 -0.522636,1.167267 -1.16732,1.167267zm0,-4.331299c-1.218513,0 -2.206306,-0.987823 -2.206306,-2.206329c0,-1.218567 0.987793,-2.20639 2.206306,-2.20639c1.218521,0 2.20636,0.987823 2.20636,2.20639c0,1.218506 -0.987839,2.206329 -2.20636,2.206329z" fill="#788a8d"/>
  <path id="svg_30" d="m137.75705,381.51413l0,-0.387451c0,-0.678741 -0.560089,-1.231049 -1.248611,-1.231049c-0.688553,0 -1.248627,0.552307 -1.248627,1.231049l0,0.387451l-0.277481,0l0,2.497284l3.0522,0l0,-2.497284l-0.277481,0zm-0.554916,0l-1.387421,0l0,-0.387451c0,-0.366516 0.317612,-0.676056 0.69371,-0.676056c0.375854,0 0.69371,0.30954 0.69371,0.676056l0,0.387451z" fill="#788a8d"/>
  <path id="svg_28" d="m63.59996,265.200043l-7.25,0c-0.4142,0 -0.75,-0.358154 -0.75,-0.799988l0,-8.800003c0,-0.441849 0.3358,-0.800003 0.75,-0.800003l6.078491,0l1.971512,1.971527l0,7.628479c0,0.441833 -0.358192,0.799988 -0.800003,0.799988zm-3.600521,-8.170013c-1.636238,0 -2.962601,1.329681 -2.962601,2.970032c0,1.640289 1.326363,2.96994 2.962601,2.96994c1.6362,0 2.962601,-1.329651 2.962601,-2.96994c0,-1.64035 -1.326401,-2.970032 -2.962601,-2.970032zm-0.002838,5.38562c-1.33408,0 -2.4156,-1.081512 -2.4156,-2.415649c0,-1.334015 1.08152,-2.415558 2.4156,-2.415558c0.667839,0 1.27232,0.271118 1.709599,0.709198l-1.707119,1.707123l2.413078,0c-0.000439,1.333801 -1.081718,2.414886 -2.415558,2.414886z" fill="#788a8d"/>
  <path id="svg_27" d="m20.005199,265.414764c-2.98308,0 -5.401279,-2.424194 -5.401279,-5.414673c0,-2.99057 2.4182,-5.41481 5.401279,-5.41481c2.98308,0 5.401321,2.42424 5.401321,5.41481c0,2.990479 -2.418242,5.414673 -5.401321,5.414673zm-0.005199,-9.81871c-2.43224,0 -4.404,1.971695 -4.404,4.403946c0,2.432281 1.971761,4.404083 4.404,4.404083c2.431841,0 4.40324,-1.971039 4.403959,-4.402679l-4.399399,0l3.11236,-3.112396c-0.797201,-0.798676 -1.899281,-1.292953 -3.11692,-1.292953z" fill="#788a8d"/>
  <path id="svg_26" d="m139.998962,225.414795c-2.983078,0 -5.401276,-2.424194 -5.401276,-5.414749c0,-2.99057 2.418198,-5.41481 5.401276,-5.41481c2.983078,0 5.401321,2.42424 5.401321,5.41481c0,2.99054 -2.418243,5.414749 -5.401321,5.414749zm2.281357,-7.732162l-4.566681,0c-0.043076,0.209152 -0.043152,0.424652 -0.000076,0.633804l4.566879,0c0.043091,-0.209152 0.042999,-0.424652 -0.000122,-0.633804zm0,2l-4.566681,0c-0.043076,0.209152 -0.043152,0.424652 -0.000076,0.633804l4.566879,0c0.043091,-0.209152 0.042999,-0.424652 -0.000122,-0.633804zm0,2l-4.566681,0c-0.043076,0.209152 -0.043152,0.424652 -0.000076,0.633774l4.566879,0c0.043091,-0.209122 0.042999,-0.424622 -0.000122,-0.633774z" fill="#788a8d"/>
  <path id="svg_25" d="m102.998756,223.748398l-2.998703,0c-0.732124,0 -1.398613,-0.266708 -1.918564,-0.702957l1.664803,-0.252121c0.094826,0.013519 0.1894,0.028442 0.288116,0.028442l2.930008,0c1.142403,0 2.068481,-0.926025 2.068481,-2.068481c0,-1.066391 -0.810089,-1.934113 -1.846725,-2.046143l0,-0.011261l-0.111351,0c-0.037331,-0.001999 -0.072609,-0.011108 -0.110405,-0.011108l-0.020676,0c0.000717,0.003586 0.000443,0.007523 0.001106,0.011108l-0.997398,0c-0.001038,-0.003632 -0.001556,-0.007523 -0.002586,-0.011108l-1.910454,0c-1.142479,0 -2.068558,0.926117 -2.068558,2.068512c0,0.198792 0.036957,0.387207 0.089279,0.569153l1.910507,0c1.084801,0 1.964561,-0.837952 2.051575,-1.900269l0.97287,0c-0.089508,1.575699 -1.391914,2.826889 -2.990028,2.826889l-1.388214,0c0.003677,0.003494 0.008202,0.005981 0.011879,0.009399l-1.211678,0c-0.001923,-0.00322 -0.004387,-0.006088 -0.006279,-0.009399l-0.40448,0c-1.65612,0 -2.998734,-1.34259 -2.998734,-2.998688c0,-1.656174 1.342613,-2.998749 2.998734,-2.998749l2.998756,0c1.109283,0 2.075554,0.603897 2.594284,1.49939l0.404427,0c1.656128,0 2.99868,1.342529 2.99868,2.998657c0,1.656158 -1.342552,2.998718 -2.99868,2.998718l0.000008,0.000015zm-3.033119,-6.562943l-2.93,0c-1.142395,0 -2.068504,0.926071 -2.068504,2.068481c0,1.14238 0.926117,2.068497 2.068504,2.068497l0.021767,0c-0.035927,-0.185547 -0.056114,-0.376709 -0.056114,-0.572739c0,-1.656143 1.34256,-2.998672 2.998764,-2.998672l1.379425,0c-0.370201,-0.348312 -0.865387,-0.565552 -1.413841,-0.565552l0,-0.000015z" fill="#788a8d"/>
  <path id="svg_24" d="m65.655037,220.400055l-1.277206,0c-0.190163,2.104202 -1.861961,3.780518 -3.965321,3.976212l0,1.266144c-0.263988,0.054443 -0.536041,0.05452 -0.80003,0.000153l0,-1.265076c-2.11488,-0.184891 -3.79924,-1.865051 -3.990162,-3.977448l-1.264839,0c-0.054359,-0.264023 -0.054279,-0.536057 0.000122,-0.800049l1.264717,0c0.19096,-2.11235 1.875282,-3.792557 3.990162,-3.977448l0,-1.277588c0.263988,-0.054321 0.536041,-0.054291 0.80003,0.000107l0,1.278687c2.103321,0.195679 3.775127,1.872086 3.965321,3.976242l1.277077,0c0.054405,0.263992 0.054482,0.536026 0.000122,0.800049l0.000008,0.000015zm-2.899967,-0.800049l0.625561,0c-0.18256,-1.553131 -1.415161,-2.773392 -2.968121,-2.962662l0,0.60762c-0.263988,0.054382 -0.536041,0.054459 -0.80003,0.000092l0,-0.610031c-1.564602,0.179062 -2.809441,1.403641 -2.99297,2.964981l0.63792,0c0.054398,0.263992 0.054478,0.536026 0.000118,0.800049l-0.63805,0c0.183491,1.561295 1.428322,2.785858 2.99297,2.96492l0,-0.622528c0.263992,-0.054352 0.536041,-0.054291 0.80003,0.000107l0,0.620102c1.552963,-0.189163 2.785603,-1.409531 2.96817,-2.962601l-0.625759,0c-0.054359,-0.264008 -0.054279,-0.536057 0.00016,-0.800049zm-2.755001,1.800491c-0.771519,0 -1.397038,-0.627014 -1.397038,-1.400452c0,-0.773453 0.625519,-1.400482 1.397038,-1.400482c0.771523,0 1.397003,0.627029 1.397003,1.400482c0,0.773438 -0.625481,1.400452 -1.397003,1.400452z" fill="#788a8d"/>
  <path id="svg_23" d="m25.200001,222.000046l-0.400002,0l0,0.400009c0,0.441788 -0.35816,0.800003 -0.799999,0.800003l-9.2,0c-0.44184,0 -0.8,-0.358215 -0.8,-0.800003l0,-4.799988c0,-0.441864 0.35816,-0.800064 0.8,-0.800064l9.2,0c0.441839,0 0.799999,0.3582 0.799999,0.800064l0,0.399979l0.400002,0c0.220919,0 0.4,0.179077 0.4,0.400009l0,3.200012c0,0.220856 -0.179081,0.399979 -0.4,0.399979zm-1.200001,-4c0,-0.220917 -0.179081,-0.399979 -0.4,-0.399979l-8.400001,0c-0.22092,0 -0.4,0.179077 -0.4,0.399979l0,4c0,0.220901 0.17908,0.400009 0.4,0.400009l8.400001,0c0.220919,0 0.4,-0.179108 0.4,-0.400009l0,-4zm-8.8,0l6.20032,0l0,4l-6.20032,0l0,-4z" fill="#788a8d"/>
  <path id="svg_22" d="m100.000053,185.404922c-2.985046,0 -5.404884,-2.419891 -5.404884,-5.404922c0,-2.985001 2.419853,-5.404831 5.404884,-5.404831c2.985039,0 5.404877,2.41983 5.404877,5.404831c0,2.985031 -2.419838,5.404922 -5.404877,5.404922zm-0.000053,-9.808868c-2.432243,0 -4.403999,1.97171 -4.403999,4.403946c0,2.432281 1.971756,4.404037 4.403999,4.404037c2.432327,0 4.404053,-1.971756 4.404053,-4.404037c0,-2.432236 -1.971725,-4.403946 -4.404053,-4.403946zm1.25164,4.29863c-0.304993,0.225601 -0.498001,0.397171 -0.579002,0.514633c-0.081001,0.117569 -0.121506,0.271637 -0.121506,0.46225l0,0.285919l-1.262802,0l0,-0.352661c0,-0.304962 0.065079,-0.57019 0.195358,-0.795792c0.130241,-0.22551 0.368523,-0.465347 0.714798,-0.719559c0.333603,-0.23822 0.553535,-0.431992 0.660004,-0.58136c0.1064,-0.149307 0.159637,-0.316071 0.159637,-0.500351c0,-0.206482 -0.076225,-0.36377 -0.228714,-0.471771c-0.152473,-0.107956 -0.365364,-0.162048 -0.638565,-0.162048c-0.476517,0 -1.01976,0.155731 -1.629715,0.46701l-0.51944,-1.043549c0.708397,-0.397141 1.459755,-0.595703 2.254005,-0.595703c0.654404,0 1.174644,0.157242 1.560638,0.471771c0.386002,0.314529 0.578964,0.733856 0.578964,1.258041c0,0.349518 -0.079445,0.651291 -0.238251,0.905396c-0.158913,0.254211 -0.46067,0.540131 -0.905403,0.857773l-0.000008,0zm-1.277122,2.082443c0.263641,0 0.467773,0.069916 0.612366,0.209686c0.144524,0.139786 0.216797,0.339951 0.216797,0.600388c0,0.250992 -0.07312,0.448761 -0.2192,0.593277c-0.146164,0.144531 -0.349518,0.216843 -0.609962,0.216843c-0.266838,0 -0.473396,-0.070724 -0.619476,-0.212082c-0.146164,-0.141281 -0.2192,-0.340714 -0.2192,-0.598038c0,-0.26683 0.07148,-0.468521 0.214439,-0.605209c0.14296,-0.136551 0.351006,-0.204865 0.624237,-0.204865z" fill="#788a8d"/>
  <path id="svg_21" d="m60.000038,185.404922c-2.985039,0 -5.404877,-2.419891 -5.404877,-5.404922c0,-2.985001 2.419838,-5.404831 5.404877,-5.404831c2.985043,0 5.404884,2.41983 5.404884,5.404831c0,2.985031 -2.419842,5.404922 -5.404884,5.404922zm-0.000038,-9.808868c-2.43224,0 -4.403999,1.97171 -4.403999,4.403946c0,2.432281 1.97176,4.404037 4.403999,4.404037c2.43232,0 4.404053,-1.971756 4.404053,-4.404037c0,-2.432236 -1.971733,-4.403946 -4.404053,-4.403946zm-0.004601,2.37233c-0.62524,0 -0.937878,-0.25975 -0.937878,-0.779327c0,-0.265747 0.073997,-0.463547 0.221996,-0.59346c0.147961,-0.129852 0.3866,-0.194809 0.715881,-0.194809c0.329159,0 0.569279,0.066437 0.72036,0.19928c0.151001,0.13298 0.226563,0.32933 0.226563,0.588989c0,0.519577 -0.315681,0.779327 -0.946922,0.779327zm0.87896,5.43161l-1.771519,0l0,-4.796005l1.771519,0l0,4.796005z" fill="#788a8d"/>
  <path id="svg_20" d="m20.00004,185.404922c-2.985041,0 -5.40488,-2.419891 -5.40488,-5.404922c0,-2.985001 2.419839,-5.404831 5.40488,-5.404831c2.985041,0 5.404881,2.41983 5.404881,5.404831c0,2.985031 -2.41984,5.404922 -5.404881,5.404922zm4.403999,-5.404922c0,-0.957397 -0.30884,-1.84079 -0.827679,-2.563309l-6.139681,6.139664c0.722521,0.518829 1.605961,0.827682 2.56332,0.827682c2.43232,0 4.404039,-1.971771 4.404039,-4.404053l0,0.000015zm-4.404039,-4.403946c-2.43224,0 -4.404,1.97171 -4.404,4.403946c0,0.894714 0.26852,1.725922 0.72688,2.420807l6.097879,-6.097885c-0.694839,-0.458405 -1.526039,-0.726868 -2.420759,-0.726868z" fill="#788a8d"/>
  <path id="svg_19" d="m143.981079,139.544113l0,3.937164c0,0.274475 -0.222519,0.497086 -0.497025,0.497086l-6.958801,0c-0.274536,0 -0.497086,-0.22261 -0.497086,-0.497086l0,-6.958801c0,-0.274521 0.222549,-0.497086 0.497086,-0.497086l6.958801,0c0.274521,0 0.497025,0.222565 0.497025,0.497086l0,1.288986l1.914124,-1.914108l0,1.732483l-1.914124,1.914276zm-0.640945,0.640976l-2.523254,2.523438c-0.338074,0.338074 -0.852432,0.386841 -1.245316,0.153076l-1.841766,-1.841766l0.001389,-0.00499l0.840195,-0.840164l1.272217,1.272202c0.002594,0.002823 0.004425,0.006012 0.007141,0.008743c0.129578,0.129547 0.336121,0.132797 0.471085,0.012207l0.00145,0.00145l3.016846,-3.016846l0,-1.583923c0,-0.111237 -0.09021,-0.201477 -0.201538,-0.201477l-6.267273,0c-0.111328,0 -0.201523,0.09024 -0.201523,0.201477l0,6.267365c0,0.111282 0.090195,0.201492 0.201523,0.201492l6.267273,0c0.111328,0 0.201538,-0.09021 0.201538,-0.201492l0,-2.95079l0.000015,0z" fill="#788a8d"/>
  <path id="svg_18" d="m103.181763,145.588562l-6.01432,0c-0.420761,0 -0.761841,-0.363846 -0.761841,-0.812637l0,-9.564331c0,-0.448792 0.34108,-0.812622 0.761841,-0.812622l4.900078,0l1.926933,1.92691l0,8.450043c0,0.448792 -0.363846,0.812637 -0.812683,0.812637l-0.000008,0zm-2.785645,-1.197235l0.769203,0l0,-1.609741l-0.769203,0l0,1.609741zm-1.136436,0l0.769196,0l0,-1.609741l-0.769196,0l0,1.609741zm-1.470963,-0.631241c0,0.348587 0.2826,0.631241 0.631241,0.631241l0.454964,0l0,-1.609741l-1.086205,0l0,0.9785zm1.086205,-4.566315l-0.454964,0c-0.34864,0 -0.631241,0.282593 -0.631241,0.631226l0,0.938293l1.086205,0l0,-1.569519zm1.153954,0l-0.769196,0l0,1.569519l0.769196,0l0,-1.569519zm1.136444,0l-0.769203,0l0,1.569519l0.769203,0l0,-1.569519zm1.420998,0.631226c0,-0.348633 -0.282639,-0.631226 -0.631279,-0.631226l-0.404961,0l0,1.569519l1.03624,0l0,-0.938293zm0.002159,1.724533l-0.001556,0l0,-0.420242l-4.79879,0l0,1.273315l3.762115,0l0,0.379013l-0.00016,0l0,1.609726l0.404961,0c0.34864,0 0.631279,-0.282639 0.631279,-0.631241l0,-0.246552l0.002167,0l0,-1.964005l-0.000015,-0.000015z" fill="#788a8d"/>
  <path id="svg_17" d="m63.097359,145.202164l-6.220158,0c-0.280602,0 -0.50808,-0.227478 -0.50808,-0.508041l0,-4.979279c0,-0.280701 0.227478,-0.508118 0.50808,-0.508118l0.260799,0l0,-1.544373l0.000401,0c0.00024,-1.58046 1.281521,-2.861588 2.862038,-2.861588c1.580681,0 2.86208,1.281357 2.86208,2.862076c0,0.003525 -0.000519,0.006882 -0.000519,0.010437l0,1.533447l0.235359,0c0.280602,0 0.508053,0.227432 0.508053,0.508118l0,4.979294c0,0.280548 -0.22744,0.508026 -0.508053,0.508026zm-1.25663,-7.539795c-0.00053,-1.015656 -0.823959,-1.838898 -1.839767,-1.838898c-1.015842,0 -1.839283,0.823242 -1.839802,1.838898l0.011761,0l0,1.544357l3.65416,0l0,-1.544357l0.013641,0l0.000008,0z" fill="#788a8d"/>
  <path id="svg_16" d="m20.4284,140.5634c-0.238359,0.238358 -0.62476,0.238358 -0.863119,0l-4.398441,-4.398438c0.09016,-0.091492 0.21496,-0.148636 0.35356,-0.148636l8.95876,0c0.137079,0 0.26112,0.055557 0.35104,0.145279l-4.4018,4.401779l0,0.000015zm-1.076719,0.670883c0.356119,0.356155 0.933559,0.356155 1.289679,0l4.334841,-4.334808l0,6.572739c0,0.274475 -0.222521,0.497009 -0.49704,0.497009l-8.95876,0c-0.27456,0 -0.49712,-0.222549 -0.49712,-0.497009l0,-6.566284l4.328401,4.328354z" fill="#788a8d"/>
  <path id="svg_15" d="m145.600998,100.000214l-3.60231,4.40271l-6.797684,-0.003113c-0.000366,0 -0.000641,0.000198 -0.001007,0.000198l-0.399994,0c-0.220917,0 -0.399979,-0.179077 -0.399979,-0.400002l0,-8c0,-0.220917 0.179077,-0.399994 0.399979,-0.399994l0.399994,0c0.000443,0 0.000809,0.000237 0.001282,0.000237l6.797409,-0.00312l3.60231,4.403084zm-5.084641,0.975037c-0.679703,-0.267403 -0.846085,-0.229561 -1.082153,-0.371841c-0.005798,-0.003242 -0.011597,-0.006882 -0.017349,-0.009758l0,-0.400078c0.226074,-0.198334 0.40657,-0.497162 0.511719,-0.839043c0.122742,-0.131813 0.193512,-0.286797 0.193512,-0.452797c0,-0.113884 -0.033478,-0.222374 -0.094269,-0.322044c-0.039841,-0.837601 -0.572601,-1.3918 -1.224792,-1.3918c-0.651718,0 -1.184448,0.554199 -1.22467,1.3918c-0.060608,0.099678 -0.094467,0.20816 -0.094467,0.322044c0,0.165985 0.070969,0.320984 0.193695,0.452797c0.105362,0.341881 0.285675,0.640923 0.511948,0.839203l0,0.399925c-0.005798,0.002884 -0.011795,0.006523 -0.017746,0.009758c-0.235519,0.142281 -0.402252,0.104454 -1.081635,0.371841c-0.679733,0.26696 -0.776932,1.752441 -0.776932,1.752441c0,0 0.625809,0.084404 2.488159,0.084404c1.862381,0 2.491592,-0.084404 2.491592,-0.084404c0,0 -0.096863,-1.485481 -0.776596,-1.752441l-0.000015,-0.000008z" fill="#788a8d"/>
  <path id="svg_14" d="m101.350563,99.2696c-0.120125,0.264214 -0.250565,0.539124 -0.396446,0.827759c0.117004,0.19268 0.234123,0.388573 0.350883,0.590843c1.422127,2.463196 2.244133,4.651047 1.835953,4.886681c-0.39167,0.22612 -1.773674,-1.429405 -3.141312,-3.739922c-1.367638,2.310516 -2.749641,3.966042 -3.141319,3.739922c-0.408165,-0.235634 0.413841,-2.423485 1.83596,-4.886681c0.116798,-0.202278 0.233879,-0.398163 0.350876,-0.590805c-0.145866,-0.288727 -0.276306,-0.563637 -0.396477,-0.827835c-2.187485,-0.086403 -3.798325,-0.37616 -3.798325,-0.721245c0,-0.413239 2.305725,-0.748154 5.149963,-0.748154c2.844238,0 5.149963,0.334915 5.149963,0.748154c0,0.345161 -1.611565,0.634964 -3.799721,0.721283zm-1.350563,-1.97052c-0.828079,0 -1.499397,-0.67128 -1.499397,-1.499397c0,-0.828133 0.671318,-1.499405 1.499397,-1.499405c0.828117,0 1.499397,0.671272 1.499397,1.499405c0,0.828117 -0.671288,1.499397 -1.499397,1.499397z" fill="#788a8d"/>
  <path id="svg_13" d="m65.199997,103.600037l-10.400005,0c-0.441841,0 -0.800003,-0.335747 -0.800003,-0.749947l0,-5.250053c0,-0.441795 0.358162,-0.799995 0.800003,-0.799995l10.400005,0c0.441833,0 0.800003,0.3582 0.800003,0.799995l0,5.250053c0,0.414192 -0.358162,0.749947 -0.800003,0.749947zm-6.809837,-1.399475l0.00415,0.003357c0.01889,0.082962 0.089569,0.146164 0.178242,0.14624l0.000237,0.000244l4.45359,0l0.00024,-0.000244c0.08868,-0.000076 0.159363,-0.063278 0.178242,-0.14624l0.004158,-0.003357c0.034283,-0.178963 0.057922,-0.381325 0.067242,-0.598923l-4.953369,0c0.009369,0.21759 0.032959,0.419952 0.067249,0.598923l0.000019,0zm0.7328,-1.79892c0.009319,0.21756 0.032921,0.41996 0.0672,0.598915l0.00415,0.003365c0.01889,0.082947 0.089569,0.146202 0.178242,0.14624l0.00024,0.000237l0.45364,0l0.000198,-0.000237c0.08868,-0.000038 0.159359,-0.063293 0.178242,-0.14624l0.004158,-0.003365c0.034279,-0.178955 0.05788,-0.381355 0.067242,-0.598915l-0.95332,0l0.000008,0zm0.553322,-1.200005l-0.953362,0c0.009361,0.21756 0.032959,0.419914 0.06728,0.598885l0.00412,0.003395c0.018883,0.082962 0.089561,0.14621 0.178242,0.14624l0.00024,0.000244l0.45364,0l0.000198,-0.000244c0.08868,-0.000031 0.159359,-0.063278 0.178242,-0.14624l0.00412,-0.003395c0.034317,-0.178963 0.057961,-0.381325 0.06728,-0.598885zm0.313881,0.598885l0.004158,0.003395c0.018841,0.082962 0.089561,0.14621 0.178242,0.14624l0.000237,0.000244l0.45364,0l0.000202,-0.000244c0.08868,-0.000031 0.159359,-0.063278 0.178238,-0.14624l0.004162,-0.003395c0.034279,-0.178963 0.057919,-0.381325 0.0672,-0.598885l-0.953281,0c0.009323,0.21756 0.032921,0.419914 0.067204,0.598885zm0.33276,0.60112c0.009369,0.21756 0.032959,0.41996 0.06728,0.598915l0.00412,0.003365c0.01889,0.082947 0.089569,0.146202 0.178238,0.14624l0.00024,0.000237l0.45364,0l0.000202,-0.000237c0.088676,-0.000038 0.159359,-0.063293 0.178238,-0.14624l0.004162,-0.003365c0.034279,-0.178955 0.057919,-0.381355 0.067238,-0.598915l-0.953369,0l0.000011,0zm0.867237,-0.60112l0.00415,0.003395c0.01889,0.082962 0.089569,0.14621 0.178242,0.14624l0.00024,0.000244l0.45364,0l0.000198,-0.000244c0.08868,-0.000031 0.159359,-0.063278 0.178242,-0.14624l0.004158,-0.003395c0.034279,-0.178963 0.05788,-0.381325 0.067242,-0.598885l-0.95332,0c0.009277,0.21756 0.032917,0.419914 0.0672,0.598885l0.000008,0zm0.332802,0.60112c0.009319,0.21756 0.032921,0.41996 0.0672,0.598915l0.004158,0.003365c0.018841,0.082947 0.089561,0.146202 0.178242,0.14624l0.00024,0.000237l0.45364,0l0.000198,-0.000237c0.08868,-0.000038 0.159363,-0.063293 0.178242,-0.14624l0.00415,-0.003365c0.03429,-0.178955 0.057919,-0.381355 0.067249,-0.598915l-0.95332,0zm-3.350201,0.748756l0.453678,0l0.000202,-0.000237c0.08868,-0.000038 0.159401,-0.063293 0.178238,-0.14624l0.004162,-0.003365c0.034279,-0.178955 0.05788,-0.381355 0.0672,-0.598915l-0.953281,0c0.009323,0.21756 0.032921,0.41996 0.067204,0.598915l0.004158,0.003365c0.018879,0.082947 0.089561,0.146202 0.178242,0.14624l0.000198,0.000237zm0.30352,-1.948761l-0.95332,0c0.009319,0.21756 0.032921,0.419914 0.0672,0.598885l0.004158,0.003395c0.018883,0.082962 0.089561,0.14621 0.178242,0.14624l0.00024,0.000244l0.45364,0l0.000198,-0.000244c0.08868,-0.000031 0.159401,-0.063278 0.178242,-0.14624l0.00415,-0.003395c0.03429,-0.178963 0.05788,-0.381325 0.067249,-0.598885zm-1.286121,2.998924l0.00415,0.003357c0.01889,0.082962 0.089569,0.146164 0.178242,0.14624l0.00024,0.000244l0.45364,0l0.000198,-0.000244c0.08868,-0.000076 0.159359,-0.063278 0.178242,-0.14624l0.00412,-0.003357c0.034317,-0.178963 0.057961,-0.381325 0.06728,-0.598923l-0.953362,0c0.009361,0.21759 0.032959,0.419952 0.067242,0.598923l0.000008,0zm-0.217358,-1.050163l0.45364,0l0.000198,-0.000237c0.08868,-0.000038 0.159359,-0.063293 0.178242,-0.14624l0.00412,-0.003365c0.034317,-0.178955 0.057961,-0.381355 0.06723,-0.598915l-0.953323,0c0.009361,0.21756 0.032963,0.41996 0.067242,0.598915l0.004162,0.003365c0.018879,0.082947 0.089558,0.146202 0.178238,0.14624l0.00024,0.000237l0.000011,0zm-1.782642,1.050163l0.00415,0.003357c0.01889,0.082962 0.089569,0.146164 0.178242,0.14624l0.00024,0.000244l1.253597,0l0.00024,-0.000244c0.08868,-0.000076 0.159401,-0.063278 0.178242,-0.14624l0.004158,-0.003357c0.034283,-0.178963 0.057922,-0.381325 0.0672,-0.598923l-1.753319,0c0.009361,0.21759 0.032959,0.419952 0.067242,0.598923l0.000008,0zm0,-1.200005l0.00415,0.003365c0.01889,0.082947 0.089569,0.146202 0.178242,0.14624l0.00024,0.000237l0.853638,0l0.000202,-0.000237c0.08868,-0.000038 0.159359,-0.063293 0.178238,-0.14624l0.00412,-0.003365c0.034321,-0.178955 0.057961,-0.381355 0.06728,-0.598915l-1.353359,0c0.009361,0.21756 0.032959,0.41996 0.067242,0.598915l0.000008,0zm0,-1.200035l0.00415,0.003395c0.01889,0.082962 0.089569,0.14621 0.178242,0.14624l0.00024,0.000244l1.653637,0l0.000202,-0.000244c0.08868,-0.000031 0.159401,-0.063278 0.178238,-0.14624l0.004162,-0.003395c0.034279,-0.178963 0.057919,-0.381325 0.0672,-0.598885l-2.15332,0c0.009361,0.21756 0.032959,0.419914 0.067242,0.598885l0.000008,0zm-0.067238,-1.798882c0.009357,0.21756 0.032959,0.419922 0.067238,0.598877l0.00415,0.003403c0.01889,0.082962 0.089569,0.146156 0.178242,0.14624l0.00024,0.000237l0.853638,0l0.000202,-0.000237c0.08868,-0.000084 0.159359,-0.063278 0.178238,-0.14624l0.00412,-0.003403c0.034321,-0.178955 0.057961,-0.381317 0.06728,-0.598877l-1.353359,0l0.000011,0zm1.599998,0c0.009361,0.21756 0.032959,0.419922 0.067242,0.598877l0.004158,0.003403c0.018883,0.082962 0.089561,0.146156 0.178242,0.14624l0.00024,0.000237l0.45364,0l0.000198,-0.000237c0.08868,-0.000084 0.159359,-0.063278 0.178242,-0.14624l0.00412,-0.003403c0.034317,-0.178955 0.057961,-0.381317 0.06723,-0.598877l-0.953323,0l0.000011,0zm1.200039,0c0.009323,0.21756 0.032921,0.419922 0.067204,0.598877l0.004158,0.003403c0.018879,0.082962 0.089561,0.146156 0.178242,0.14624l0.000198,0.000237l0.453678,0l0.000202,-0.000237c0.08868,-0.000084 0.159401,-0.063278 0.178238,-0.14624l0.004162,-0.003403c0.034279,-0.178955 0.05788,-0.381317 0.0672,-0.598877l-0.953281,0zm1.200001,0c0.009319,0.21756 0.032921,0.419922 0.0672,0.598877l0.00415,0.003403c0.01889,0.082962 0.089569,0.146156 0.178242,0.14624l0.00024,0.000237l0.45364,0l0.000198,-0.000237c0.08868,-0.000084 0.159359,-0.063278 0.178242,-0.14624l0.004158,-0.003403c0.034279,-0.178955 0.05788,-0.381317 0.067242,-0.598877l-0.95332,0l0.000008,0zm1.199951,0c0.009369,0.21756 0.032959,0.419922 0.06728,0.598877l0.00412,0.003403c0.01889,0.082962 0.089569,0.146156 0.178242,0.14624l0.000237,0.000237l0.45364,0l0.000202,-0.000237c0.08868,-0.000084 0.159359,-0.063278 0.178238,-0.14624l0.004162,-0.003403c0.034279,-0.178955 0.057919,-0.381317 0.067242,-0.598877l-0.953373,0l0.000011,0zm1.200039,0c0.009319,0.21756 0.032921,0.419922 0.0672,0.598877l0.004162,0.003403c0.018841,0.082962 0.089558,0.146156 0.178238,0.14624l0.00024,0.000237l0.45364,0l0.000202,-0.000237c0.08868,-0.000084 0.159359,-0.063278 0.178238,-0.14624l0.00415,-0.003403c0.03429,-0.178955 0.057922,-0.381317 0.067249,-0.598877l-0.95332,0zm1.200001,0c0.009319,0.21756 0.032921,0.419922 0.067242,0.598877l0.00412,0.003403c0.018879,0.082962 0.089558,0.146156 0.178238,0.14624l0.00024,0.000237l0.45359,0l0.00024,-0.000237c0.08868,-0.000084 0.159359,-0.063278 0.178238,-0.14624l0.00415,-0.003403c0.034283,-0.178955 0.057922,-0.381317 0.067242,-0.598877l-0.95332,0l0.000019,0zm1.199959,0c0.009361,0.21756 0.032963,0.419922 0.067242,0.598877l0.004158,0.003403c0.01889,0.082962 0.089569,0.146156 0.178238,0.14624l0.000244,0.000237l0.453636,0l0.000206,-0.000237c0.088676,-0.000084 0.159355,-0.063278 0.178246,-0.14624l0.00412,-0.003403c0.034325,-0.178955 0.057961,-0.381317 0.067284,-0.598877l-0.953362,0l-0.000011,0zm-1.59996,1.199997c0.009323,0.21756 0.032913,0.419914 0.0672,0.598885l0.00415,0.003395c0.018841,0.082962 0.089573,0.14621 0.178242,0.14624l0.00024,0.000244l2.053638,0l0.000198,-0.000244c0.088684,-0.000031 0.159363,-0.063278 0.178253,-0.14624l0.00412,-0.003395c0.034317,-0.178963 0.057961,-0.381325 0.067276,-0.598885l-2.553318,0zm0.400002,1.200005c0.009319,0.21756 0.032921,0.41996 0.067242,0.598915l0.00412,0.003365c0.018879,0.082947 0.089558,0.146202 0.178238,0.14624l0.00024,0.000237l1.653637,0l0.000206,-0.000237c0.088676,-0.000038 0.159355,-0.063293 0.178246,-0.14624l0.00412,-0.003365c0.034325,-0.178955 0.057961,-0.381355 0.067284,-0.598915l-2.15332,0l-0.000011,0zm0.799961,1.199997c0.009319,0.21759 0.032959,0.419952 0.06728,0.598923l0.00412,0.003357c0.018879,0.082962 0.089558,0.146164 0.178238,0.14624l0.00024,0.000244l0.853638,0l0.000206,-0.000244c0.088676,-0.000076 0.159355,-0.063278 0.178246,-0.14624l0.00412,-0.003357c0.034325,-0.178963 0.057961,-0.381325 0.067284,-0.598923l-1.353363,0l-0.000008,0z" fill="#788a8d"/>
  <path id="svg_12" d="m24.282961,105.332603l-0.798561,-2.220604l-3.05748,0l-0.78216,2.220604l-1.378361,0l2.99188,-8.029282l1.422081,0l2.991838,8.029282l-1.389238,0zm-1.892481,-5.524246c-0.05472,-0.145836 -0.13044,-0.375519 -0.226999,-0.689156c-0.096642,-0.31356 -0.16324,-0.54332 -0.19964,-0.689201c-0.09844,0.448517 -0.242521,0.939003 -0.432081,1.471359l-0.722,2.083893l2.33004,0l-0.749319,-2.17688l0,-0.000015zm-2.090879,-1.805809l-4.8892,0l0,-2.80484l5.97608,0l0,1.305534l-0.5282,0l-0.55868,1.499306zm0.232399,-2.001625l-4.285599,0l0,1.200905l4.285599,0l0,-1.200905zm-5.638519,2.397476l5.25864,0l-0.277281,0.744118l-0.976999,0c-0.027201,0.353653 -0.072561,0.555176 -0.126961,0.863495l0.78224,0l-0.295919,0.794121l-0.264761,0c0.04388,0.108521 0.099001,0.203636 0.152882,0.300316l-0.30636,0.822159c-0.215361,-0.30368 -0.36932,-0.669319 -0.453161,-1.111038c-0.2966,1.604568 -1.157799,2.219284 -3.680079,2.559563c-0.054399,-0.154205 -0.36544,-0.564911 -0.47424,-0.691925c2.212721,-0.31736 3.11956,-0.781837 3.51856,-1.879066l-3.45508,0l0,-0.794121l3.60924,0c0.06348,-0.299286 0.108841,-0.500763 0.13604,-0.863487l-3.146759,0l0,-0.744125l0,-0.000008z" fill="#788a8d"/>
  <path id="svg_11" d="m140.000046,65.404922c-2.985046,0 -5.404877,-2.419884 -5.404877,-5.404922c0,-2.985001 2.41983,-5.404839 5.404877,-5.404839c2.985062,0 5.404877,2.419838 5.404877,5.404839c0,2.985039 -2.419815,5.404922 -5.404877,5.404922zm0,-9.808884c-2.432281,0 -4.404053,1.971722 -4.404053,4.403961c0,2.432281 1.971771,4.404053 4.404053,4.404053c2.432281,0 4.403992,-1.971764 4.403992,-4.404053c0,-2.43224 -1.97171,-4.403961 -4.403992,-4.403961zm-0.820999,5.132401l-1.966888,-1.966881c0.130478,-0.232197 0.291489,-0.718197 0.484482,-0.91864l1.968079,1.968082c0.18428,0.18428 0.483032,0.18428 0.667282,0l1.968521,-1.968479c0.192642,0.199959 0.353363,0.68544 0.483719,0.917118l-1.968796,1.9688c-0.451874,0.45192 -1.184525,0.45192 -1.636398,0z" fill="#788a8d"/>
  <path id="svg_10" d="m105.199997,64.000053l-10.399994,0c-0.220924,0 -0.400002,-0.179043 -0.400002,-0.400002l0,-7.199963c0,-0.220959 0.179077,-0.40004 0.400002,-0.40004l10.399994,0c0.220924,0 0.399994,0.179081 0.399994,0.40004l0,7.199963c0,0.220959 -0.179077,0.400002 -0.399994,0.400002zm-0.399994,-7.200005l-9.600006,0l0,6.400002l9.600006,0l0,-6.400002zm-0.400002,6l-8.800003,0l0,-5.599998l8.800003,0l0,5.599998z" fill="#788a8d"/>
  <path id="svg_9" d="m65.100357,58.714321l-1.667519,0.541798c-0.184158,0.059841 -0.382,-0.040958 -0.441837,-0.22517c-0.059841,-0.1842 0.04092,-0.38203 0.225121,-0.441879l1.667515,-0.541798c0.184166,-0.059841 0.382004,0.040958 0.441841,0.225159c0.059845,0.1842 -0.040916,0.381958 -0.225121,0.441879l0,0.000011zm-2.762047,-1.333443c-0.1138,0.156681 -0.333118,0.191441 -0.489799,0.077602c-0.156681,-0.113831 -0.191402,-0.333111 -0.07756,-0.489841l1.03056,-1.418438c0.113842,-0.156681 0.333118,-0.191402 0.489799,-0.077602c0.156681,0.113831 0.191402,0.333122 0.07756,0.48988l-1.03056,1.4184zm-2.33836,-0.523079c-0.19368,0 -0.350681,-0.156998 -0.350681,-0.350639l0,-1.753281c0,-0.193638 0.157001,-0.350689 0.350681,-0.350689c0.19368,0 0.350639,0.15704 0.350639,0.350689l0,1.753281c0,0.193642 -0.15696,0.350639 -0.350639,0.350639zm-2.338402,0.523079l-1.030518,-1.4184c-0.113842,-0.156757 -0.079121,-0.376049 0.07756,-0.48988c0.156677,-0.1138 0.375919,-0.079079 0.489799,0.077602l1.03056,1.418438c0.113838,0.156719 0.079121,0.375999 -0.07756,0.489841c-0.156681,0.11385 -0.375999,0.07909 -0.489841,-0.077602zm-0.652637,1.650082c-0.059841,0.1842 -0.257683,0.285 -0.441879,0.22517l-1.66748,-0.541801c-0.1842,-0.059917 -0.285,-0.257679 -0.225163,-0.441879c0.059879,-0.1842 0.257683,-0.285 0.441879,-0.225159l1.66748,0.541798c0.1842,0.059841 0.285,0.257683 0.225163,0.441883l0,-0.000011zm-2.10936,2.260361l1.66748,-0.541801c0.184196,-0.059841 0.382027,0.040962 0.441879,0.225163c0.059837,0.184158 -0.040951,0.381958 -0.225163,0.441799l-1.66748,0.54184c-0.184196,0.059879 -0.382,-0.040962 -0.441879,-0.225159c-0.059837,-0.184162 0.040962,-0.382004 0.225163,-0.441841zm2.761997,1.333401c0.113842,-0.156723 0.33316,-0.191402 0.489841,-0.07756c0.156681,0.113838 0.191399,0.333118 0.07756,0.489799l-1.03056,1.418438c-0.11388,0.156639 -0.33313,0.191399 -0.489799,0.077553c-0.156681,-0.113838 -0.191402,-0.333084 -0.07756,-0.489799l1.030518,-1.418442l0,0.000011zm2.338402,0.523037c0.19368,0 0.350639,0.157001 0.350639,0.350681l0,1.753323c0,0.193626 -0.15696,0.350639 -0.350639,0.350639c-0.19368,0 -0.350681,-0.157013 -0.350681,-0.350639l0,-1.753323c0,-0.19368 0.157001,-0.350681 0.350681,-0.350681zm0.000561,-0.531479c-1.437603,0 -2.602962,-1.165401 -2.602962,-2.602921c0,-1.437557 1.165359,-2.603001 2.602962,-2.603001c1.437557,0 2.602921,1.165443 2.602921,2.603001c0,1.437519 -1.165363,2.602921 -2.602921,2.602921zm2.337799,0.008442l1.03056,1.418438c0.11385,0.156723 0.079121,0.375961 -0.07756,0.489799c-0.156681,0.113853 -0.375957,0.079094 -0.489799,-0.077545l-1.03056,-1.418446c-0.113842,-0.156677 -0.079121,-0.375969 0.07756,-0.489799c0.156681,-0.113838 0.375999,-0.079159 0.489799,0.07756l0,-0.000008zm0.652679,-1.65004c0.059841,-0.1842 0.25769,-0.285004 0.441841,-0.225163l1.667519,0.541801c0.184204,0.059837 0.284958,0.257679 0.225121,0.441841c-0.059837,0.184196 -0.257683,0.285038 -0.441841,0.225159l-1.667519,-0.54184c-0.1842,-0.059841 -0.284962,-0.257641 -0.225121,-0.441799z" fill="#788a8d"/>
  <path id="svg_8" d="m23.97352,63.912441c-0.15432,0.154278 -0.40456,0.154278 -0.55888,0c-0.15436,-0.154362 -0.15436,-0.40464 0,-0.55896c0.31624,-0.316242 0.55888,-0.677601 0.55888,-0.677601c1.10272,-1.608761 1.10272,-3.743 0,-5.351719c0,0 -0.24264,-0.361362 -0.55888,-0.677601c-0.15436,-0.154362 -0.15436,-0.404591 0,-0.55888c0.15432,-0.154362 0.40456,-0.154362 0.55888,0c2.160759,2.160721 2.160759,5.663971 0,7.82476zm-1.422081,-1.39716l0,-0.000401c-0.00008,0.00008 -0.00012,0.00016 -0.00016,0.000198c-0.15436,0.154362 -0.404598,0.154362 -0.55896,0c-0.15428,-0.154289 -0.15428,-0.404518 0,-0.558849c0.347401,-0.347351 0.55912,-0.82568 0.55912,-0.82568c0.322802,-0.71904 0.322802,-1.542042 0,-2.261082c0,0 -0.174879,-0.441437 -0.55912,-0.825638c-0.15428,-0.154369 -0.15428,-0.404602 0,-0.558922c0.154362,-0.154358 0.4046,-0.154358 0.55896,0c0.00004,0.00008 0.00008,0.00016 0.00016,0.000202l0,-0.000362c1.38912,1.389122 1.38912,3.641373 0,5.030521l0,0.000011zm-1.42244,-1.397442c-0.15436,0.154362 -0.4046,0.154362 -0.55896,0c-0.15432,-0.15432 -0.15432,-0.40456 0,-0.55888c0,0 0.55896,-0.558922 0,-1.11784c-0.15432,-0.154362 -0.15432,-0.404598 0,-0.55888c0.15436,-0.154362 0.4046,-0.154362 0.55896,0c0.00012,0.000118 0.00016,0.000278 0.00028,0.000401c0.61684,0.617241 0.61684,1.617519 0,2.234798c-0.00012,0.000122 -0.00016,0.000282 -0.00028,0.000401zm-4.607719,0.883041l-1.47684,0c-0.35592,0 -0.644441,-0.288521 -0.644441,-0.64444l0,-2.712803c0,-0.355919 0.288521,-0.64444 0.644441,-0.64444l1.478641,0l2.194359,-2.406879c0.24292,-0.242889 0.561399,-0.36388 0.879761,-0.363319l0,9.54388c-0.318361,0.000519 -0.636841,-0.120399 -0.879761,-0.363281l-2.196159,-2.408718z" fill="#788a8d"/>
  <path id="svg_7" d="m142.671494,18.29048l-1.734329,1.711121l1.734329,1.711121c0.384033,0.378799 0.384033,0.99296 0,1.371799l-2.953537,2.914l0,-4.794041l-2.223434,2.19372c-0.016922,0.016682 -0.03624,0.029161 -0.054108,0.044241l-0.019852,0l0,0.016199c-0.02037,0.016281 -0.039322,0.034962 -0.060532,0.049561c-0.121185,-0.33604 -0.230103,-0.68944 -0.325912,-1.058279l2.480133,-2.44684l-2.483047,-2.44976c0.095596,-0.3696 0.204483,-0.723841 0.325531,-1.06064c0.0224,0.01532 0.042419,0.03492 0.063828,0.052l0,0.01388l0.016998,0c0.018845,0.0158 0.039169,0.028921 0.056961,0.04648l2.223434,2.19368l0,-4.79404l2.953537,2.914001c0.384033,0.378799 0.384033,0.993 0,1.371799zm-1.93251,5.298241l0.985184,-0.97196l-0.001404,-0.00136c0.115799,-0.12792 0.112671,-0.323641 -0.011765,-0.44644c-0.002594,-0.0026 -0.005676,-0.00432 -0.008316,-0.0068l-0.963684,-0.950722l0,2.377281l-0.000015,0zm0.972,-6.2138c-0.002579,-0.00252 -0.005676,-0.00428 -0.008316,-0.00676l-0.963684,-0.95072l0,2.377239l0.985184,-0.97196l-0.001404,-0.00132c0.115799,-0.12788 0.112671,-0.323639 -0.011765,-0.44648l-0.000015,0z" fill="#788a8d"/>
  <path id="svg_6" d="m103.259438,23.60516l0,-0.92712l0,-5.6c0,-0.816278 0.661613,-1.478039 1.477844,-1.478279l0,5.6l0,0.92712l0,1.474998l-1.477844,0.003281zm-1.999985,0l0,0l0,-5.127119c0,-0.81628 0.661636,-1.478001 1.477798,-1.478281l0,4.200001c0,0 0.000038,0 0.000038,0l0,2.402119l-1.477837,0.003281l0,0zm-2,0c0,0 -0.000053,0 -0.000053,0l0,-3.72716c0,-0.81624 0.661644,-1.478001 1.477844,-1.478241l0,2.800001c0,0 0.000046,0 0.000046,0l0,2.402119l-1.477837,0.003281l0,0zm-2,0c0,0 0,0 0,0l0,-2.32712c0,-0.81628 0.661636,-1.478041 1.477837,-1.478279l0,1.4c0,0 0,0 0,0l0,2.402119l-1.477837,0.003281l0,0zm-2,0c0,0 0,0 -0.000053,0l0,-0.92716c0,-0.8162 0.661682,-1.477999 1.477844,-1.478239l0,0.4c0,0 0.000046,0 0.000046,0l0,0.4l0,1.602119l-1.477837,0.003281l0,0z" fill="#788a8d"/>
  <path id="svg_5" d="m65.165482,19.55616c-1.20496,-1.5278 -3.068493,-2.511959 -5.165283,-2.511959c-2.094997,0 -3.957237,0.982439 -5.162277,2.507999l-0.834843,-0.834841c1.4212,-1.734999 3.579361,-2.84304 5.99712,-2.84304c2.419563,0 4.578918,1.109799 6.000122,2.846999l-0.834839,0.834841zm-0.824394,0.8244l-0.833889,0.833879c-0.767799,-1.114319 -2.051437,-1.845798 -3.507,-1.845798c-1.4538,0 -2.735878,0.729799 -3.504009,1.841879l-0.83387,-0.833879c0.98951,-1.319641 2.56155,-2.177361 4.337879,-2.177361c1.778122,0 3.351551,0.85944 4.340889,2.18128zm-4.340889,0.143721c1.137722,0 2.129482,0.614799 2.668682,1.528479l-0.872959,0.872921c-0.279293,-0.72168 -0.975483,-1.235559 -1.795723,-1.235559c-0.818317,0 -1.513477,0.51132 -1.794037,1.23036l-0.87199,-0.872002c0.539799,-0.91128 1.530159,-1.524199 2.666039,-1.524199l-0.000011,0zm0,2.324959c0.427963,0 0.774883,0.34692 0.774883,0.774841c0,0.427919 -0.34692,0.774839 -0.774883,0.774839c-0.427929,0 -0.774799,-0.34692 -0.774799,-0.774839c0,-0.427921 0.34687,-0.774841 0.774799,-0.774841z" fill="#788a8d"/>
  <path id="svg_4" d="m23.91016,20.691879c-0.00136,0 -0.0026,-0.000158 -0.00396,-0.000158l0,0.000439l-2.282881,0l-3.53496,4.218121l-0.68808,0l1.83984,-4.221161c-1.072559,-0.013119 -2.034599,-0.086639 -2.75556,-0.1982l-1.48124,1.474201l-0.616159,0l0.80264,-1.882681l0.01536,0c-0.0206,-0.027079 -0.03468,-0.05448 -0.03468,-0.082439c0,-0.02796 0.01408,-0.055321 0.03468,-0.082399l-0.01536,0l-0.80264,-1.882721l0.616159,0l1.48124,1.474201c0.720961,-0.111561 1.683001,-0.185041 2.7556,-0.19816l-1.83988,-4.221201l0.68808,0l3.53496,4.218121l2.282881,0l0,0.000479c0.00136,0 0.0026,-0.000158 0.00396,-0.000158c0.96508,0 1.74744,0.309759 1.74744,0.691839c0,0.38208 -0.78236,0.691879 -1.74744,0.691879z" fill="#788a8d"/>
  <g id="svg_47"/>
 </g>
 <g>
  <title>Layer 2</title>
 </g>
</svg>