<?xml version="1.0" standalone="no"?><!-- Generator: Adobe Fireworks CS5, Export SVG Extension by Aaron Beall (http://fireworks.abeall.com) . Version: 0.6.1  --><!DOCTYPE svg PUBLIC "-//W3C//DTD SVG 1.1//EN" "http://www.w3.org/Graphics/SVG/1.1/DTD/svg11.dtd"><svg id="Untitled-Page%201" viewBox="0 0 400 1200" style="background-color:#ffffff00" version="1.1"	xmlns="http://www.w3.org/2000/svg" xmlns:xlink="http://www.w3.org/1999/xlink" xml:space="preserve"	x="0px" y="0px" width="400px" height="1200px">	<g id="Layer">		<g id="Labels">		</g>		<g id="Icons">			<path id="Feedback" visibility="hidden" d="M 260.3448 1053.4331 C 259.6174 1058.3929 257.3943 1062.4246 254.8044 1064.0588 L 253.6122 1064.0588 L 249.9982 1064.0588 L 243.4668 1064.0588 C 243.4492 1064.0594 243.4346 1064.069 243.4168 1064.069 L 238.521 1064.069 C 237.6956 1064.069 237.0266 1063.3998 237.0266 1062.5746 L 237.0266 1053.2494 C 237.0229 1053.2484 237.0193 1053.2471 237.0156 1053.2461 L 237.0156 1051.3243 C 237.0881 1051.348 237.1577 1051.3862 237.2305 1051.4082 C 237.3576 1051.4469 237.4857 1051.4795 237.6144 1051.509 C 237.9735 1051.5886 238.3358 1051.6499 238.7067 1051.6499 C 239.6801 1051.6499 240.6171 1051.3677 241.4958 1050.8489 L 241.4887 1050.8489 C 241.8457 1050.6389 242.1914 1050.3843 242.5272 1050.0979 C 242.5793 1050.0536 242.629 1050.0021 242.6806 1049.9559 C 242.9608 1049.7048 243.2333 1049.4299 243.4962 1049.129 C 243.5529 1049.0645 243.609 1048.9985 243.6648 1048.9318 C 243.9455 1048.5946 244.2171 1048.2343 244.4751 1047.8438 C 244.4911 1047.8196 244.508 1047.7975 244.5239 1047.7731 C 244.8125 1047.3301 245.0867 1046.8566 245.3435 1046.3525 C 249.1663 1044.775 252.1754 1040.6943 253.3128 1035.5199 C 253.3275 1035.5228 253.3424 1035.5198 253.3571 1035.5229 C 255.246 1035.9446 256.271 1038.5549 255.6464 1041.3535 C 255.6458 1041.3561 255.6447 1041.3582 255.6442 1041.3607 L 255.6447 1041.3608 C 255.2552 1043.104 254.6946 1044.6799 254.0508 1045.9725 L 260.1129 1045.9725 C 260.6262 1048.134 260.7438 1050.7124 260.3448 1053.4331 ZM 242.9842 1051.9932 C 241.7426 1052.8964 240.3848 1053.4166 238.9556 1053.4718 L 238.9556 1061.5361 C 238.9556 1061.8707 239.2268 1062.142 239.5614 1062.142 L 242.3784 1062.142 C 242.713 1062.142 242.9842 1061.8707 242.9842 1061.5361 L 242.9842 1051.9932 Z" fill="#788A8D"/>			<path id="Feedback%20copy" visibility="hidden" d="M 360.2213 954.5272 C 359.4804 958.4038 358.0993 961.7488 356.455 964.0714 L 352.9872 964.0714 L 347.5544 964.0714 L 343.5918 964.0714 C 343.5742 964.072 343.5595 964.0814 343.5418 964.0814 L 338.646 964.0814 C 337.8206 964.0814 337.1516 963.4122 337.1516 962.587 L 337.1516 952.5119 C 337.1479 952.5109 337.1443 952.5096 337.1406 952.5086 L 337.1406 950.5868 C 337.2131 950.6105 337.2827 950.6486 337.3555 950.6706 C 337.4826 950.7093 337.6107 950.7419 337.7394 950.7714 C 338.0985 950.851 338.4608 950.9124 338.8317 950.9124 C 339.1939 950.9124 339.5497 950.8652 339.9007 950.7897 C 340.0124 950.7656 340.121 950.7245 340.2314 950.6932 C 340.4697 950.6254 340.7062 950.5482 340.938 950.4473 C 341.0616 950.3934 341.183 950.3299 341.3046 950.2669 C 341.5196 950.1555 341.7315 950.0314 341.9397 949.8924 C 342.0586 949.813 342.177 949.7324 342.2935 949.6443 C 342.5031 949.4858 342.7071 949.3089 342.9084 949.1232 C 343.0199 949.0204 343.1337 948.9251 343.2425 948.8142 C 343.5396 948.5115 343.8285 948.1849 344.1035 947.8248 C 344.1394 947.7778 344.1717 947.7227 344.2072 947.6747 C 344.4507 947.3459 344.6854 946.9971 344.9093 946.6263 C 344.9234 946.6031 344.9364 946.5779 344.9501 946.5541 C 348.9864 945.1552 352.2021 941.0067 353.4128 935.663 C 355.0812 936.3059 355.9572 938.7411 355.3714 941.366 C 355.3708 941.3685 355.3697 941.3707 355.3691 941.3732 L 355.3697 941.3734 C 354.8728 943.5973 354.0988 945.5513 353.2258 946.985 L 360.6917 946.985 C 360.8677 949.2717 360.733 951.8502 360.2213 954.5272 ZM 343.1092 951.4672 C 343.1092 951.4026 343.0912 951.3435 343.0725 951.2852 C 341.841 952.1716 340.4954 952.6796 339.0806 952.7343 L 339.0806 961.5486 C 339.0806 961.8831 339.3518 962.1544 339.6864 962.1544 L 342.5034 962.1544 C 342.838 962.1544 343.1092 961.8831 343.1092 961.5486 L 343.1092 951.4672 Z" fill="#788A8D"/>			<path id="Feedback%20copy%202" visibility="hidden" d="M 261.3588 951.5023 C 260.67 955.1058 259.4167 958.2132 257.9243 960.5038 C 257.606 960.8177 257.1884 961.0232 256.7113 961.0463 L 253.5247 961.0463 L 248.6919 961.0463 L 245.7385 961.0463 C 245.5537 961.6617 245.0051 962.1189 244.3293 962.1189 L 239.4335 962.1189 C 238.6081 962.1189 237.9391 961.4497 237.9391 960.6245 L 237.9391 947.4519 C 237.9391 946.6265 238.6081 945.9575 239.4335 945.9575 L 244.3293 945.9575 C 244.707 945.9575 245.0424 946.1098 245.3054 946.3408 C 248.9664 945.1476 251.8333 940.7651 253.211 934.8064 C 253.244 934.8053 253.2698 934.7921 253.3033 934.7921 C 253.954 934.7921 254.5118 935.0074 254.8216 935.3217 C 255.3027 936.0951 255.5779 937.0754 255.5299 938.1488 C 255.5294 938.1588 255.5274 938.1682 255.5269 938.1781 L 255.5295 938.1782 C 255.4451 940.4053 255.0445 942.4052 254.4668 943.96 L 260.8125 943.96 L 260.8125 943.9688 C 261.3956 943.9688 261.8669 944.4391 261.8729 945.0208 C 261.8731 945.0266 261.8734 945.0323 261.8736 945.0383 C 261.872 945.0463 261.869 945.054 261.8687 945.0626 L 261.8746 945.0626 C 261.9399 947.0654 261.7906 949.2429 261.3588 951.5023 ZM 243.8967 948.4922 C 243.8967 948.1577 243.6255 947.8864 243.2909 947.8864 L 240.4739 947.8864 C 240.1393 947.8864 239.8681 948.1577 239.8681 948.4922 L 239.8681 959.5861 C 239.8681 959.9206 240.1393 960.1919 240.4739 960.1919 L 243.2909 960.1919 C 243.6255 960.1919 243.8967 959.9206 243.8967 959.5861 L 243.8967 948.4922 Z" fill="#788A8D"/>			<path id="x" d="M 260.6658 945.5659 C 260.6458 946.5113 260.5951 947.4734 260.4804 948.4615 C 259.9365 953.1475 258.4279 957.134 256.5313 959.567 C 255.1408 959.8413 253.6566 959.9966 252.1076 959.9966 C 249.1718 959.9966 246.4544 959.4586 244.2149 958.5472 L 244.2149 946.5716 C 244.2367 946.5701 244.2581 946.5744 244.2799 946.5728 C 248.475 946.2498 251.7931 941.6442 253.2218 935.1046 C 253.2309 935.1133 253.238 935.1254 253.247 935.1344 L 253.2521 935.0795 C 253.2521 935.0795 256.8665 934.5033 253.9049 943.9445 C 256.4308 944.1354 258.7601 944.687 260.6658 945.5659 ZM 239.7002 961.9005 C 239.5241 961.9729 239.3596 962.0093 239.2054 962.0142 L 239.2054 946.3536 L 243.5023 945.7852 C 243.4911 951.5491 242.9775 956.7419 242.1593 960.421 C 241.5905 960.9326 240.8 961.4485 239.7002 961.9005 Z" fill="#788A8D"/>			<path id="Privacy%20Rights" visibility="hidden" d="M 160.1163 951.9955 L 160.1163 951.9955 C 159.4062 952.8837 158.6009 953.6926 157.7157 954.4061 C 157.7152 954.4066 157.7147 954.4069 157.7141 954.4073 C 157.2989 954.742 156.8629 955.0515 156.4142 955.3427 C 156.3158 955.4064 156.2132 955.4639 156.1133 955.5255 C 155.757 955.7452 155.3922 955.9522 155.0177 956.1432 C 154.8712 956.2177 154.7222 956.2874 154.5732 956.3573 C 154.2323 956.5175 153.8844 956.6647 153.5305 956.8003 C 153.3556 956.8671 153.1804 956.933 153.0025 956.9935 C 152.6573 957.1114 152.3048 957.2125 151.9492 957.3062 C 151.7613 957.3555 151.5752 957.4089 151.3846 957.4513 C 151.0083 957.5352 150.624 957.5967 150.2379 957.6526 C 150.0643 957.6777 149.8941 957.7126 149.7188 957.7319 C 149.1568 957.7938 148.5872 957.831 148.0086 957.831 C 147.4299 957.831 146.8602 957.7938 146.2981 957.7318 C 146.1229 957.7126 145.9527 957.6777 145.7793 957.6526 C 145.3929 957.5967 145.0084 957.5352 144.6319 957.4512 C 144.4415 957.4088 144.2555 957.3554 144.0678 957.3061 C 143.7118 957.2123 143.359 957.1111 143.0135 956.9931 C 142.836 956.9326 142.661 956.8669 142.4864 956.8002 C 142.1319 956.6644 141.7833 956.5169 141.4419 956.3563 C 141.2934 956.2867 141.1451 956.2172 140.9993 956.1431 C 140.6234 955.9514 140.2574 955.7437 139.9 955.5231 C 139.8012 955.4623 139.6999 955.4054 139.6026 955.3425 C 138.1958 954.4297 136.9428 953.2993 135.8988 951.9929 L 135.8988 951.9929 C 135.2909 951.2322 134.7525 950.4152 134.2947 949.5473 C 134.7529 948.6787 135.2918 947.8609 135.9003 947.0997 C 136.9441 945.794 138.1967 944.6642 139.6029 943.752 C 139.701 943.6884 139.8033 943.631 139.903 943.5696 C 140.2595 943.3496 140.6245 943.1425 140.9994 942.9514 C 141.1457 942.877 141.2946 942.8073 141.4435 942.7374 C 141.7845 942.5771 142.1325 942.4299 142.4866 942.2943 C 142.6614 942.2275 142.8366 942.1616 143.0144 942.101 C 143.3596 941.9832 143.7122 941.882 144.0679 941.7883 C 144.2558 941.739 144.4418 941.6855 144.6324 941.6432 C 145.0087 941.5593 145.3931 941.4977 145.7793 941.4418 C 145.9528 941.4167 146.123 941.3819 146.2983 941.3626 C 146.8604 941.3007 147.43 941.2635 148.0086 941.2635 C 148.5871 941.2635 149.1566 941.3007 149.7186 941.3625 C 149.8939 941.3818 150.0642 941.4167 150.2378 941.4418 C 150.6238 941.4977 151.008 941.5591 151.3841 941.643 C 151.5749 941.6854 151.7611 941.739 151.9491 941.7883 C 152.3045 941.8819 152.6567 941.9828 153.0015 942.1006 C 153.1797 942.1613 153.3552 942.2273 153.5304 942.2942 C 153.8838 942.4295 154.2312 942.5765 154.5716 942.7365 C 154.7211 942.8065 154.8706 942.8765 155.0175 942.9512 C 155.3911 943.1417 155.7549 943.3481 156.1103 943.5673 C 156.2112 943.6293 156.3146 943.6874 156.4139 943.7517 C 156.8602 944.0413 157.2937 944.3492 157.7068 944.6818 C 157.7096 944.684 157.7126 944.6859 157.7154 944.6882 C 158.6 945.4013 159.405 946.2095 160.1148 947.097 C 160.7242 947.859 161.2637 948.6777 161.7224 949.5473 L 161.7224 949.5473 C 161.2641 950.4161 160.7251 951.2341 160.1163 951.9955 ZM 152.502 944.5558 C 153.4605 945.6271 154.0605 947.0264 154.0605 948.577 C 154.0605 951.9215 151.3493 954.6328 148.0049 954.6328 C 144.6605 954.6328 141.9493 951.9215 141.9493 948.577 C 141.9493 947.0273 142.5487 945.6288 143.5062 944.5577 C 140.9046 945.5187 138.6877 947.2729 137.1713 949.5442 C 139.5063 953.0416 143.4864 955.3469 148.0071 955.3469 C 152.5278 955.3469 156.5079 953.0416 158.8428 949.5442 C 157.3253 947.2712 155.1061 945.5162 152.502 944.5558 Z" fill="#788A8D"/>			<path id="Mask" d="M 161.918 945.5027 C 161.8159 947.3169 162.2246 949.4838 159.9253 952.6082 C 157.472 955.942 154.9691 955.6345 154.5091 955.6823 C 151.0399 956.0424 152.2194 955.2858 149.8626 955.2858 C 147.5058 955.2858 148.5866 956.0264 145.2725 955.6823 C 144.8126 955.6345 142.3096 955.942 139.8563 952.6082 C 139.3911 951.9761 139.0599 951.3925 138.7897 950.8337 L 139.0213 954.8767 C 139.0258 954.8817 139.0314 954.8846 139.0358 954.8898 C 139.1627 955.0394 139.3388 955.1761 139.3388 955.726 C 139.3388 956.2352 139.1508 956.5833 139.122 956.634 L 139.3246 960.1702 C 139.3414 960.1903 139.3617 960.2042 139.378 960.2268 C 139.528 960.4341 139.7362 960.6235 139.7362 961.3851 C 139.7362 962.1454 139.4687 962.6682 139.4678 962.6699 L 139.5175 963.5375 C 139.5175 963.5375 139.3335 963.6886 138.9963 963.6886 C 138.6591 963.6886 138.4445 963.5375 138.4445 963.5375 L 138.362 960.4097 C 138.1842 960.1527 137.9423 959.6531 137.9423 958.8458 C 137.9423 957.9431 138.1875 957.4312 138.2791 957.269 L 138.221 955.0656 C 138.0721 954.9069 137.8216 954.5481 137.8216 953.8928 C 137.8216 953.0984 138.1424 952.7007 138.1424 952.7007 C 138.1424 952.7007 138.1431 953.7999 138.1927 953.9948 L 138.0513 948.6307 C 137.8391 947.4441 137.9156 946.4266 137.8636 945.5027 C 137.7614 943.6885 137.4037 941.7231 137.4037 941.7231 C 137.4037 941.7231 138.1702 942.8822 139.6008 942.983 C 141.0315 943.0838 141.6447 942.4791 144.6593 941.572 C 147.674 940.6649 149.8712 941.8239 149.8712 941.8239 L 149.9104 941.8239 C 149.9104 941.8239 152.1076 940.6649 155.1223 941.572 C 158.1369 942.4791 158.7501 943.0838 160.1808 942.983 C 161.6115 942.8822 162.3779 941.7231 162.3779 941.7231 C 162.3779 941.7231 162.0202 943.6885 161.918 945.5027 ZM 139.4675 962.6655 C 139.4677 962.6423 139.4721 961.9483 139.405 961.5737 L 139.4675 962.6655 ZM 145.0409 946.9481 C 143.2566 946.5415 142.503 947.2242 141.7434 947.5325 C 140.9903 947.8381 140.4695 947.8712 140.4695 947.8712 C 140.4695 947.8712 140.5717 948.9295 142.36 949.8366 C 144.1484 950.7437 147.8172 950.2756 147.8172 950.2756 C 147.8172 950.2756 148.2067 947.6695 145.0409 946.9481 ZM 158.0382 947.5325 C 157.2737 947.2363 156.525 946.5415 154.7408 946.9481 C 151.575 947.6695 151.9644 950.2756 151.9644 950.2756 C 151.9644 950.2756 155.6332 950.7437 157.4216 949.8366 C 159.2099 948.9295 159.3121 947.8712 159.3121 947.8712 C 159.3121 947.8712 158.7051 947.7909 158.0382 947.5325 Z" fill="#788A8D"/>			<path id="Apps%20%28Rocket-only%20Version%29" d="M 56.5959 958.8671 L 53.2466 955.5176 C 52.9039 955.8775 52.5237 956.1789 52.1168 956.4171 L 47.8783 956.4171 C 47.4735 956.1779 47.0961 955.8762 46.7538 955.5176 L 43.4041 958.8671 L 41.0015 958.8667 L 41.0015 949.8683 L 44.4479 946.4219 C 45.4693 941.4048 48.4676 936.3471 50.0004 936.3465 C 51.5325 936.3465 54.5307 941.4052 55.5517 946.4219 L 58.9986 949.8683 L 58.9986 958.8667 L 56.5959 958.8671 ZM 50.0035 941.6223 C 49.4672 941.6223 48.523 943.1331 47.9379 944.9357 C 48.5995 944.8063 49.3083 944.7324 50.0488 944.7324 C 50.7531 944.7324 51.4286 944.798 52.0628 944.9156 C 51.4771 943.1219 50.5377 941.6223 50.0035 941.6223 ZM 49.0884 957.6166 C 48.9635 957.9284 48.8892 958.3069 48.8892 958.7162 C 48.8892 959.773 49.7099 960.6306 49.9832 960.6306 C 50.2571 960.6306 51.0772 959.7734 51.0772 958.7162 C 51.0772 958.3066 51.0028 957.9278 50.8779 957.6166 L 52.1786 957.6162 C 52.3273 958.1652 52.4111 958.7772 52.4111 959.4255 C 52.4114 961.7556 50.603 963.6442 50 963.6442 C 49.3971 963.6442 47.5893 961.7556 47.5889 959.4251 C 47.5893 958.778 47.6728 958.1644 47.8215 957.6166 L 49.0884 957.6166 Z" fill="#788A8D"/>			<path id="Sim%20Toolkit" d="M 362.959 847.3431 C 362.8648 847.4465 361.9966 848.482 361.9966 848.482 L 361.9526 849.5111 C 361.9526 849.5111 361.9966 862.0974 361.9966 862.9612 C 361.9966 863.8251 361.382 864.4695 360.4884 864.4695 C 359.5947 864.4695 358.9802 863.8251 358.9801 862.9612 C 358.9801 862.0974 358.9801 858.4365 358.9801 858.4365 L 358.9801 849.6885 L 358.9802 848.482 C 358.9802 848.482 358.1806 847.4682 358.1006 847.3812 C 357.3716 846.6904 356.9122 845.6923 356.9103 844.5826 C 356.9081 843.3138 357.5049 842.1934 358.4202 841.5125 L 358.6785 844.2589 L 360.4883 845.4654 L 361.9966 843.6555 L 361.3834 840.94 C 362.9377 841.3575 364.0893 842.8365 364.0924 844.5952 C 364.0943 845.6804 363.6578 846.657 362.959 847.3431 ZM 353.9544 863.987 L 338.9186 863.987 C 337.8667 863.987 337.0139 863.0775 337.0139 861.9554 L 337.0139 838.0446 C 337.0139 836.9226 337.8667 836.013 338.9186 836.013 L 351.1688 836.013 L 355.9861 840.8303 L 355.9861 861.9554 C 355.9861 863.0775 355.0765 863.987 353.9544 863.987 ZM 346.9904 860.994 L 348.9133 860.994 L 348.9133 856.9697 L 346.9904 856.9697 L 346.9904 860.994 ZM 344.1492 860.994 L 346.0722 860.994 L 346.0722 856.9697 L 344.1492 856.9697 L 344.1492 860.994 ZM 340.4718 859.4158 C 340.4718 860.2874 341.1783 860.994 342.0499 860.994 L 343.1873 860.994 L 343.1873 856.9697 L 340.4718 856.9697 L 340.4718 859.4158 ZM 343.1873 848 L 342.0499 848 C 341.1783 848 340.4718 848.7066 340.4718 849.5781 L 340.4718 851.9238 L 343.1873 851.9238 L 343.1873 848 ZM 346.0722 848 L 344.1492 848 L 344.1492 851.9238 L 346.0722 851.9238 L 346.0722 848 ZM 348.9133 848 L 346.9904 848 L 346.9904 851.9238 L 348.9133 851.9238 L 348.9133 848 ZM 352.4658 849.5781 C 352.4658 848.7066 351.7592 848 350.8876 848 L 349.8752 848 L 349.8752 851.9238 L 352.4658 851.9238 L 352.4658 849.5781 ZM 352.4712 853.8895 L 352.4673 853.8895 L 352.4673 852.8387 L 340.4703 852.8387 L 340.4703 856.0221 L 349.8756 856.0221 L 349.8756 856.9697 L 349.8752 856.9697 L 349.8752 860.994 L 350.8876 860.994 C 351.7592 860.994 352.4658 860.2874 352.4658 859.4158 L 352.4658 858.7994 L 352.4712 858.7994 L 352.4712 853.8895 Z" fill="#788A8D"/>			<path id="Developer" d="M 259.6679 855.6539 C 259.6677 858.3311 259.1355 860.823 258.2288 862.9468 L 241.7713 862.9468 C 240.8646 860.823 240.3324 858.3311 240.3322 855.6539 L 240.3372 855.6539 C 240.3372 855.6534 240.3371 855.653 240.3371 855.6526 C 240.3371 851.9269 244.6634 848.9067 250 848.9067 C 255.3367 848.9067 259.663 851.9269 259.663 855.6526 C 259.663 855.653 259.6629 855.6534 259.6629 855.6539 L 259.6679 855.6539 ZM 254.9788 854.8716 L 255.3714 854.7339 C 255.2318 854.147 255.0098 853.5923 254.7003 853.0939 L 254.3185 853.2775 C 254.0796 853.3923 253.6015 853.1633 253.2192 852.7809 C 252.8369 852.3985 252.6077 851.9205 252.7226 851.6815 L 252.9057 851.3006 C 252.4069 850.9922 251.8566 850.7586 251.2691 850.6205 L 251.1285 851.0213 C 251.0408 851.2714 250.5407 851.4474 250 851.4474 C 249.4593 851.4474 248.9592 851.2714 248.8715 851.0213 L 248.7309 850.6204 C 248.1427 850.7588 247.5973 851.0001 247.0985 851.3092 L 247.2775 851.6815 C 247.3923 851.9205 247.1631 852.3985 246.7808 852.7809 C 246.3985 853.1633 245.9205 853.3923 245.6815 853.2775 L 245.3089 853.0983 C 244.9995 853.5972 244.758 854.1425 244.6195 854.7307 L 245.0212 854.8716 C 245.2714 854.9593 245.4474 855.4594 245.4474 856.0001 C 245.4474 856.5408 245.2714 857.0408 245.0212 857.1286 L 244.6286 857.2662 C 244.7682 857.853 244.9902 858.4078 245.2998 858.9061 L 245.6815 858.7226 C 245.9205 858.6078 246.3985 858.8369 246.7808 859.2192 C 247.1631 859.6016 247.3923 860.0796 247.2775 860.3185 L 247.0943 860.6995 C 247.5932 861.008 248.1434 861.2415 248.7309 861.3797 L 248.8715 860.9788 C 248.9592 860.7287 249.4593 860.5527 250 860.5527 C 250.5407 860.5527 251.0408 860.7287 251.1285 860.9788 L 251.2662 861.3714 C 251.853 861.2318 252.4078 861.0098 252.9061 860.7003 L 252.7226 860.3185 C 252.6077 860.0796 252.8369 859.6016 253.2192 859.2192 C 253.6015 858.8369 254.0796 858.6078 254.3185 858.7226 L 254.6995 858.9058 C 255.0079 858.4069 255.2415 857.8567 255.3797 857.2691 L 254.9788 857.1286 C 254.7286 857.0408 254.5526 856.5408 254.5526 856.0001 C 254.5526 855.4594 254.7286 854.9593 254.9788 854.8716 ZM 250 858.9183 C 248.3883 858.9183 247.0817 857.6118 247.0817 856.0001 C 247.0817 854.3883 248.3883 853.0818 250 853.0818 C 251.6117 853.0818 252.9183 854.3883 252.9183 856.0001 C 252.9183 857.6118 251.6117 858.9183 250 858.9183 ZM 250 848.09 C 246.9537 848.09 244.4842 845.6205 244.4842 842.5742 C 244.4842 839.5278 246.9537 837.0582 250 837.0582 C 253.0463 837.0582 255.5159 839.5278 255.5159 842.5742 C 255.5159 845.6205 253.0463 848.09 250 848.09 Z" fill="#788A8D"/>			<g id="Permissions">				<path id="Wifi%20Info" d="M 62.9137 848.5467 C 59.9013 844.7272 55.2425 842.2668 50.0005 842.2668 C 44.763 842.2668 40.1074 844.7229 37.0948 848.5368 L 35.0077 846.4496 C 38.5607 842.1122 43.9561 839.3421 50.0005 839.3421 C 56.0494 839.3421 61.4478 842.1166 65.0008 846.4596 L 62.9137 848.5467 ZM 50.0005 845.1545 C 54.4458 845.1545 58.3794 847.303 60.8527 850.6077 L 59.3112 852.1492 C 62.4169 852.3145 64.8906 854.8618 64.8906 858.0084 C 64.8906 861.262 62.2533 863.8994 58.9997 863.8994 C 55.7464 863.8994 53.1091 861.262 53.1091 858.0084 C 53.1091 857.1392 53.3087 856.3206 53.6468 855.5779 C 52.7653 854.5449 51.466 853.8816 50.0005 853.8816 C 47.9547 853.8816 46.2168 855.1599 45.5154 856.9575 L 43.3354 854.7775 C 44.6849 852.4993 47.1608 850.967 50.0005 850.967 C 52.1611 850.967 54.1079 851.8569 55.5114 853.2845 C 56.3288 852.6797 57.305 852.2962 58.3694 852.1814 C 56.4215 849.6918 53.4066 848.0779 50.0005 848.0779 C 46.366 848.0779 43.1608 849.9024 41.2405 852.6826 L 39.1558 850.5978 C 41.6296 847.2988 45.5597 845.1545 50.0005 845.1545 ZM 58.0776 863.1582 L 59.859 863.1582 L 59.859 856.6282 L 58.0776 856.6282 L 58.0776 863.1582 ZM 58.0017 854.9402 C 58.0017 855.5242 58.3248 855.8163 58.9712 855.8163 C 59.2944 855.8163 59.5368 855.7395 59.6984 855.5856 C 59.8599 855.4318 59.9408 855.2167 59.9408 854.9402 C 59.9408 854.36 59.6176 854.0699 58.9712 854.0699 C 58.3248 854.0699 58.0017 854.36 58.0017 854.9402 ZM 50.0005 856.7794 C 51.0704 856.7794 51.9377 857.6466 51.9377 858.7164 C 51.9377 859.7863 51.0704 860.6536 50.0005 860.6536 C 48.9307 860.6536 48.0635 859.7863 48.0635 858.7164 C 48.0635 857.6466 48.9307 856.7794 50.0005 856.7794 Z" fill="#788A8D"/>				<path id="FM%20Radio" d="M 150 863.4999 C 142.5445 863.4999 136.5006 857.4559 136.5006 850.0005 C 136.5006 842.5449 142.5445 836.5011 150 836.5011 C 157.4555 836.5011 163.4994 842.5449 163.4994 850.0005 C 163.4994 857.4559 157.4555 863.4999 150 863.4999 ZM 150 839.2032 C 144.0369 839.2032 139.2028 844.0372 139.2028 850.0004 C 139.2028 855.9636 144.0369 860.7976 150 860.7976 C 155.9632 860.7976 160.7972 855.9636 160.7972 850.0004 C 160.7972 844.0372 155.9632 839.2032 150 839.2032 ZM 140.8135 847.0759 L 159.1865 847.0759 C 159.2428 847.253 159.2857 847.4355 159.332 847.6168 L 140.6681 847.6168 C 140.7143 847.4355 140.7572 847.253 140.8135 847.0759 ZM 141.7229 845.0759 L 158.2772 845.0759 C 158.3829 845.2532 158.4848 845.4324 158.5793 845.6168 L 141.4208 845.6168 C 141.5152 845.4324 141.6171 845.2532 141.7229 845.0759 ZM 143.3018 843.0759 L 156.6982 843.0759 C 156.8769 843.2487 157.0457 843.4307 157.2106 843.6168 L 142.7895 843.6168 C 142.9544 843.4307 143.1232 843.2487 143.3018 843.0759 ZM 146.3625 841.0759 L 153.6375 841.0759 C 154.0212 841.2324 154.3911 841.4141 154.7482 841.6168 L 145.2518 841.6168 C 145.609 841.4141 145.9788 841.2324 146.3625 841.0759 ZM 142.9949 851.3596 C 144.4465 851.3596 145.6231 852.5362 145.6231 853.9877 C 145.6231 855.4392 144.4465 856.6159 142.9949 856.6159 C 141.5435 856.6159 140.3668 855.4392 140.3668 853.9877 C 140.3668 852.5362 141.5435 851.3596 142.9949 851.3596 ZM 146.2354 852.0735 L 153.7334 852.0735 C 153.8537 852.0735 153.9511 852.1711 153.9511 852.2914 L 153.9511 855.6835 C 153.9511 855.8037 153.8537 855.9012 153.7334 855.9012 L 150.4955 855.9012 L 150.4955 853.3086 L 149.5045 853.3086 L 149.5045 855.9012 L 146.2354 855.9012 C 146.1151 855.9012 146.0176 855.8037 146.0176 855.6835 L 146.0176 852.2914 C 146.0176 852.1711 146.1151 852.0735 146.2354 852.0735 ZM 157.0052 851.3594 C 158.4568 851.3594 159.6335 852.5362 159.6335 853.9877 C 159.6335 855.4393 158.4568 856.616 157.0052 856.616 C 155.5536 856.616 154.3769 855.4393 154.3769 853.9877 C 154.3769 852.5362 155.5536 851.3594 157.0052 851.3594 Z" fill="#788A8D"/>				<path id="Storage" d="M 349.9974 763.537 C 342.5397 763.537 336.4942 757.4765 336.4942 750.0002 C 336.4942 742.5239 342.5397 736.4632 349.9974 736.4632 C 357.4551 736.4632 363.5007 742.5239 363.5007 750.0002 C 363.5007 757.4765 357.4551 763.537 349.9974 763.537 ZM 349.9844 738.9901 C 343.9038 738.9901 338.9744 743.9195 338.9744 750.0001 C 338.9744 756.0808 343.9038 761.0102 349.9844 761.0102 C 356.064 761.0102 360.9925 756.0826 360.9943 750.0035 L 349.9958 750.0035 L 357.7767 742.2225 C 355.7837 740.2258 353.0285 738.9901 349.9844 738.9901 Z" fill="#788A8D"/>				<path id="Contacts" d="M 259.6679 755.6539 C 259.6677 758.331 259.1355 760.823 258.2288 762.9467 L 241.7713 762.9467 C 240.8646 760.823 240.3324 758.331 240.3322 755.6539 L 240.3372 755.6539 C 240.3372 755.6534 240.3371 755.653 240.3371 755.6525 C 240.3371 752.9833 242.5634 750.6831 245.7853 749.5893 L 250.0015 753.8056 L 254.217 749.59 C 257.4377 750.6841 259.663 752.9839 259.663 755.6525 C 259.663 755.653 259.6629 755.6534 259.6629 755.6539 L 259.6679 755.6539 ZM 250 748.0899 C 246.9537 748.0899 244.4842 745.6204 244.4842 742.5742 C 244.4842 739.5277 246.9537 737.0582 250 737.0582 C 253.0463 737.0582 255.5159 739.5277 255.5159 742.5742 C 255.5159 745.6204 253.0463 748.0899 250 748.0899 Z" fill="#788A8D"/>				<path id="Camera" d="M 160.5 759.8513 L 139.5 759.8513 C 138.1193 759.8513 137 758.7319 137 757.3512 L 137 742.6179 C 137 741.2372 138.1193 740.118 139.5 740.118 L 145.6667 740.118 C 146.2148 739.461 147.0293 739.0341 147.9518 739.0341 L 152.0677 739.0341 C 152.9902 739.0341 153.8046 739.461 154.3527 740.118 L 160.5 740.118 C 161.8807 740.118 163 741.2372 163 742.6179 L 163 757.3512 C 163 758.7319 161.8807 759.8513 160.5 759.8513 ZM 150.0054 742.7015 C 145.9744 742.7015 142.7067 745.9692 142.7067 750.0003 C 142.7067 754.0312 145.9744 757.2988 150.0054 757.2988 C 154.0363 757.2988 157.304 754.0312 157.304 750.0003 C 157.304 745.9692 154.0363 742.7015 150.0054 742.7015 ZM 150.0029 754.7905 C 147.3573 754.7905 145.2126 752.6459 145.2126 750.0003 C 145.2126 747.3546 147.3573 745.2098 150.0029 745.2098 C 152.6485 745.2098 154.7932 747.3546 154.7932 750.0003 C 154.7932 752.6459 152.6485 754.7905 150.0029 754.7905 Z" fill="#788A8D"/>				<path id="Geolocation" d="M 64.1063 751.0001 L 60.9134 751.0001 C 60.438 756.2606 56.2584 760.4515 51.0001 760.9407 L 51.0001 764.1061 C 50.3401 764.242 49.6599 764.2422 49 764.1063 L 49 760.9437 C 43.7127 760.4815 39.5018 756.2811 39.0246 751.0001 L 35.8624 751.0001 C 35.7265 750.3401 35.7267 749.66 35.8628 748.9999 L 39.0246 748.9999 C 39.502 743.7191 43.7128 739.5186 49 739.0565 L 49 735.8624 C 49.6599 735.7265 50.3401 735.7267 51.0001 735.8627 L 51.0001 739.0594 C 56.2583 739.5487 60.4379 743.7395 60.9134 748.9999 L 64.106 748.9999 C 64.2421 749.66 64.2422 750.3401 64.1063 751.0001 ZM 56.8564 748.9999 L 58.4204 748.9999 C 57.9639 745.1172 54.8824 742.0665 51.0001 741.5935 L 51.0001 743.1124 C 50.3401 743.2484 49.6599 743.2485 49 743.1127 L 49 741.5877 C 45.0884 742.0353 41.9764 745.0967 41.5176 748.9999 L 43.1124 748.9999 C 43.2484 749.66 43.2486 750.3401 43.1127 751.0001 L 41.5175 751.0001 C 41.9763 754.9034 45.0884 757.9648 49 758.4125 L 49 756.8561 C 49.6599 756.7202 50.3401 756.7204 51.0001 756.8564 L 51.0001 758.4066 C 54.8825 757.9337 57.9641 754.8828 58.4204 751.0001 L 56.8561 751.0001 C 56.7202 750.3401 56.7204 749.66 56.8564 748.9999 ZM 49.9689 753.5012 C 48.0401 753.5012 46.4764 751.9338 46.4764 750.0001 C 46.4764 748.0665 48.0401 746.4989 49.9689 746.4989 C 51.8977 746.4989 53.4614 748.0665 53.4614 750.0001 C 53.4614 751.9338 51.8977 753.5012 49.9689 753.5012 Z" fill="#788A8D"/>			</g>			<path id="lock%20icon" d="M 344.3926 953.7853 L 344.3926 952.8167 C 344.3926 951.1198 342.9924 949.7391 341.2711 949.7391 C 339.5497 949.7391 338.1495 951.1198 338.1495 952.8167 L 338.1495 953.7853 L 337.4558 953.7853 L 337.4558 960.0285 L 345.0863 960.0285 L 345.0863 953.7853 L 344.3926 953.7853 ZM 343.0053 953.7853 L 339.5368 953.7853 L 339.5368 952.8167 C 339.5368 951.9004 340.3308 951.1265 341.2711 951.1265 C 342.2107 951.1265 343.0053 951.9004 343.0053 952.8167 L 343.0053 953.7853 Z" fill="#788A8D"/>			<path id="Wifi%20locked" d="M 362.9137 947.5467 C 359.9013 943.7272 355.2426 941.2667 350.0005 941.2667 C 344.763 941.2667 340.1074 943.7228 337.0948 947.5367 L 335.0077 945.4496 C 338.5608 941.1122 343.9561 938.342 350.0005 938.342 C 356.0494 938.342 361.4478 941.1166 365.0008 945.4596 L 362.9137 947.5467 ZM 345.4119 951.4875 C 346.6961 950.5366 348.2791 949.967 350.0005 949.967 C 352.8448 949.967 355.3242 951.504 356.6722 953.7881 L 354.4898 955.9705 C 353.7916 954.1663 352.0511 952.8816 350.0005 952.8816 C 348.5911 952.8816 347.3373 953.4971 346.4584 954.4624 C 346.3804 953.3589 346.0157 952.3391 345.4119 951.4875 ZM 350.0005 955.7794 C 351.0704 955.7794 351.9377 956.6466 351.9377 957.7164 C 351.9377 958.7863 351.0704 959.6536 350.0005 959.6536 C 348.9307 959.6536 348.0635 958.7863 348.0635 957.7164 C 348.0635 956.6466 348.9307 955.7794 350.0005 955.7794 ZM 350.0005 947.0778 C 347.3881 947.0778 345.0064 948.0313 343.1553 949.5939 C 342.3864 949.2245 341.5351 949 340.625 949 C 340.2634 949 339.9129 949.0439 339.5694 949.1064 C 342.0557 946.0953 345.7906 944.1545 350.0005 944.1545 C 354.4458 944.1545 358.3794 946.303 360.8528 949.6076 L 358.768 951.6924 C 356.8485 948.9066 353.6394 947.0778 350.0005 947.0778 Z" fill="#788A8D"/>			<path id="Media%20Storage" d="M 158.9999 663.0001 L 140.8749 663.0001 C 139.8394 663.0001 138.9999 662.1047 138.9999 661.0001 L 138.9999 639.0001 C 138.9999 637.8955 139.8394 637.0001 140.8749 637.0001 L 156.0711 637.0001 L 160.9999 641.9289 L 160.9999 661.0001 C 160.9999 662.1047 160.1044 663.0001 158.9999 663.0001 ZM 149.9986 642.5751 C 145.908 642.5751 142.5921 645.8993 142.5921 650.0001 C 142.5921 654.1008 145.908 657.425 149.9986 657.425 C 154.0891 657.425 157.4051 654.1008 157.4051 650.0001 C 157.4051 645.8993 154.0891 642.5751 149.9986 642.5751 ZM 149.9915 656.0391 C 146.6563 656.0391 143.9525 653.3353 143.9525 650 C 143.9525 646.6649 146.6563 643.9611 149.9915 643.9611 C 151.6611 643.9611 153.1723 644.6389 154.2655 645.7341 L 149.9977 650.0019 L 156.0304 650.0019 C 156.0293 653.3364 153.3261 656.0391 149.9915 656.0391 Z" fill="#788A8D"/>			<path id="Storage2" d="M 50.013 663.5369 C 42.5553 663.5369 36.5098 657.4764 36.5098 650.0002 C 36.5098 642.5238 42.5553 636.4632 50.013 636.4632 C 57.4707 636.4632 63.5163 642.5238 63.5163 650.0002 C 63.5163 657.4764 57.4707 663.5369 50.013 663.5369 ZM 50 638.9901 C 43.9194 638.9901 38.99 643.9194 38.99 650 C 38.99 656.0807 43.9194 661.0102 50 661.0102 C 56.0796 661.0102 61.0081 656.0826 61.0099 650.0035 L 50.0114 650.0035 L 57.7923 642.2225 C 55.7993 640.2258 53.0441 638.9901 50 638.9901 Z" fill="#788A8D"/>			<path id="Notifications" d="M 349.9974 563.537 C 342.5397 563.537 336.4942 557.4765 336.4942 550.0001 C 336.4942 542.5237 342.5397 536.4631 349.9974 536.4631 C 357.4551 536.4631 363.5007 542.5237 363.5007 550.0001 C 363.5007 557.4765 357.4551 563.537 349.9974 563.537 ZM 355.7008 544.2066 L 344.2841 544.2066 C 344.1764 544.7295 344.1762 545.2682 344.2839 545.7911 L 355.7011 545.7911 C 355.8088 545.2682 355.8086 544.7295 355.7008 544.2066 ZM 355.7008 549.2066 L 344.2841 549.2066 C 344.1764 549.7295 344.1762 550.2682 344.2839 550.7911 L 355.7011 550.7911 C 355.8088 550.2682 355.8086 549.7295 355.7008 549.2066 ZM 355.7008 554.2066 L 344.2841 554.2066 C 344.1764 554.7295 344.1762 555.2682 344.2839 555.791 L 355.7011 555.791 C 355.8088 555.2682 355.8086 554.7295 355.7008 554.2066 Z" fill="#788A8D"/>			<path id="Tethering" d="M 257.4969 559.371 L 250.0001 559.371 C 248.1698 559.371 246.5036 558.7042 245.2037 557.6136 L 249.3657 556.9833 C 249.6028 557.0171 249.8392 557.0544 250.086 557.0544 L 257.411 557.0544 C 260.267 557.0544 262.5822 554.7393 262.5822 551.8832 C 262.5822 549.2172 260.557 547.0479 257.9654 546.7678 L 257.9654 546.7397 L 257.687 546.7397 C 257.5937 546.7347 257.5055 546.7119 257.411 546.7119 L 257.3593 546.7119 C 257.3611 546.7209 257.3604 546.7307 257.3621 546.7397 L 254.8686 546.7397 C 254.866 546.7306 254.8647 546.7209 254.8621 546.7119 L 250.086 546.7119 C 247.2298 546.7119 244.9146 549.0272 244.9146 551.8832 C 244.9146 552.3802 245.007 552.8512 245.1378 553.3061 L 249.9141 553.3061 C 252.6261 553.3061 254.8255 551.2112 255.043 548.5554 L 257.4752 548.5554 C 257.2514 552.4947 253.9954 555.6227 250.0001 555.6227 L 246.5296 555.6227 C 246.5388 555.6314 246.5501 555.6376 246.5593 555.6462 L 243.5301 555.6462 C 243.5253 555.6381 243.5191 555.6309 243.5144 555.6227 L 242.5032 555.6227 C 238.3629 555.6227 235.0064 552.2662 235.0064 548.1259 C 235.0064 543.9855 238.3629 540.629 242.5032 540.629 L 250.0001 540.629 C 252.7733 540.629 255.189 542.1388 256.4858 544.3775 L 257.4969 544.3775 C 261.6372 544.3775 264.9936 547.7338 264.9936 551.8742 C 264.9936 556.0146 261.6372 559.371 257.4969 559.371 ZM 249.9141 542.9636 L 242.5891 542.9636 C 239.7331 542.9636 237.4178 545.2788 237.4178 548.1348 C 237.4178 550.9908 239.7331 553.3061 242.5891 553.3061 L 242.6435 553.3061 C 242.5537 552.8422 242.5032 552.3643 242.5032 551.8742 C 242.5032 547.7338 245.8596 544.3775 250.0001 544.3775 L 253.4487 544.3775 C 252.5232 543.5067 251.2852 542.9636 249.9141 542.9636 Z" fill="#788A8D"/>			<path id="GPS" d="M 164.1376 551.0001 L 160.9446 551.0001 C 160.4692 556.2606 156.2897 560.4514 151.0313 560.9407 L 151.0313 564.106 C 150.3713 564.2421 149.6912 564.2423 149.0312 564.1064 L 149.0312 560.9437 C 143.744 560.4815 139.5331 556.2811 139.0558 551.0001 L 135.8937 551.0001 C 135.7578 550.3401 135.758 549.66 135.894 549 L 139.0558 549 C 139.5332 543.7191 143.744 539.5186 149.0312 539.0564 L 149.0312 535.8624 C 149.6912 535.7266 150.3713 535.7267 151.0313 535.8627 L 151.0313 539.0594 C 156.2896 539.5486 160.4691 543.7396 160.9446 549 L 164.1373 549 C 164.2733 549.66 164.2735 550.3401 164.1376 551.0001 ZM 156.8877 549 L 158.4516 549 C 157.9952 545.1172 154.9137 542.0665 151.0313 541.5934 L 151.0313 543.1124 C 150.3713 543.2484 149.6912 543.2486 149.0312 543.1127 L 149.0312 541.5876 C 145.1197 542.0352 142.0076 545.0967 141.5488 549 L 143.1436 549 C 143.2796 549.66 143.2798 550.3401 143.1439 551.0001 L 141.5488 551.0001 C 142.0075 554.9034 145.1196 557.9648 149.0312 558.4124 L 149.0312 556.8561 C 149.6912 556.7202 150.3713 556.7204 151.0313 556.8564 L 151.0313 558.4066 C 154.9137 557.9337 157.9953 554.8828 158.4517 551.0001 L 156.8873 551.0001 C 156.7514 550.3401 156.7516 549.66 156.8877 549 ZM 150.0002 553.5012 C 148.0714 553.5012 146.5076 551.9337 146.5076 550.0001 C 146.5076 548.0665 148.0714 546.4989 150.0002 546.4989 C 151.929 546.4989 153.4927 548.0665 153.4927 550.0001 C 153.4927 551.9337 151.929 553.5012 150.0002 553.5012 Z" fill="#788A8D"/>			<path id="Battery" d="M 63 555.0001 L 62 555.0001 L 62 556.0001 C 62 557.1046 61.1046 558.0001 60 558.0001 L 37 558.0001 C 35.8954 558.0001 35 557.1046 35 556.0001 L 35 544.0001 C 35 542.8955 35.8954 542 37 542 L 60 542 C 61.1046 542 62 542.8955 62 544.0001 L 62 545.0001 L 63 545.0001 C 63.5523 545.0001 64 545.4478 64 546.0001 L 64 554.0001 C 64 554.5523 63.5523 555.0001 63 555.0001 ZM 60 545.0001 C 60 544.4478 59.5523 544.0001 59 544.0001 L 38 544.0001 C 37.4477 544.0001 37 544.4478 37 545.0001 L 37 555.0001 C 37 555.5523 37.4477 556.0001 38 556.0001 L 59 556.0001 C 59.5523 556.0001 60 555.5523 60 555.0001 L 60 545.0001 ZM 38 545.0001 L 53.5008 545.0001 L 53.5008 555.0001 L 38 555.0001 L 38 545.0001 Z" fill="#788A8D"/>			<path id="Help" d="M 250.0001 463.5123 C 242.5375 463.5123 236.4879 457.4626 236.4879 450 C 236.4879 442.5375 242.5375 436.4879 250.0001 436.4879 C 257.4627 436.4879 263.5123 442.5375 263.5123 450 C 263.5123 457.4626 257.4627 463.5123 250.0001 463.5123 ZM 250 438.9901 C 243.9194 438.9901 238.99 443.9194 238.99 450 C 238.99 456.0807 243.9194 461.0101 250 461.0101 C 256.0808 461.0101 261.0101 456.0807 261.0101 450 C 261.0101 443.9194 256.0808 438.9901 250 438.9901 ZM 253.1291 449.7367 C 252.3666 450.3007 251.8841 450.7296 251.6816 451.0233 C 251.4791 451.3172 251.3778 451.7024 251.3778 452.1789 L 251.3778 452.8937 L 248.2208 452.8937 L 248.2208 452.0121 C 248.2208 451.2497 248.3835 450.5866 248.7092 450.0226 C 249.0348 449.4588 249.6305 448.8592 250.4962 448.2237 C 251.3302 447.6281 251.88 447.1437 252.1462 446.7703 C 252.4122 446.397 252.5453 445.9801 252.5453 445.5194 C 252.5453 445.0032 252.3547 444.61 251.9735 444.34 C 251.5923 444.0701 251.0601 443.9349 250.3771 443.9349 C 249.1858 443.9349 247.8277 444.3242 246.3028 445.1024 L 245.0042 442.4935 C 246.7752 441.5007 248.6536 441.0043 250.6392 441.0043 C 252.2752 441.0043 253.5758 441.3974 254.5408 442.1837 C 255.5058 442.97 255.9882 444.0183 255.9882 445.3288 C 255.9882 446.2026 255.7896 446.957 255.3926 447.5923 C 254.9953 448.2278 254.2409 448.9426 253.1291 449.7367 ZM 249.9363 454.9428 C 250.5954 454.9428 251.1057 455.1176 251.4672 455.467 C 251.8285 455.8165 252.0092 456.3169 252.0092 456.968 C 252.0092 457.5955 251.8264 458.0899 251.4612 458.4512 C 251.0958 458.8125 250.5874 458.9933 249.9363 458.9933 C 249.2692 458.9933 248.7528 458.8165 248.3876 458.4631 C 248.0222 458.1099 247.8396 457.6113 247.8396 456.968 C 247.8396 456.3009 248.0183 455.7967 248.3757 455.455 C 248.7331 455.1136 249.2532 454.9428 249.9363 454.9428 Z" fill="#788A8D"/>			<path id="About%20Phone" d="M 150.0001 463.5123 C 142.5375 463.5123 136.4879 457.4626 136.4879 450 C 136.4879 442.5375 142.5375 436.4879 150.0001 436.4879 C 157.4627 436.4879 163.5123 442.5375 163.5123 450 C 163.5123 457.4626 157.4627 463.5123 150.0001 463.5123 ZM 150 438.9901 C 143.9194 438.9901 138.99 443.9194 138.99 450 C 138.99 456.0807 143.9194 461.0101 150 461.0101 C 156.0808 461.0101 161.0101 456.0807 161.0101 450 C 161.0101 443.9194 156.0808 438.9901 150 438.9901 ZM 149.9885 444.921 C 148.4254 444.921 147.6438 444.2716 147.6438 442.9727 C 147.6438 442.3083 147.8288 441.8138 148.1988 441.489 C 148.5687 441.1644 149.1653 441.002 149.9885 441.002 C 150.8114 441.002 151.4117 441.1681 151.7894 441.5002 C 152.1669 441.8326 152.3558 442.3235 152.3558 442.9727 C 152.3558 444.2716 151.5666 444.921 149.9885 444.921 ZM 152.1859 458.5 L 147.7571 458.5 L 147.7571 446.51 L 152.1859 446.51 L 152.1859 458.5 Z" fill="#788A8D"/>			<path id="Do%20Not%20Track" d="M 50.0001 463.5123 C 42.5375 463.5123 36.4879 457.4626 36.4879 450 C 36.4879 442.5375 42.5375 436.4879 50.0001 436.4879 C 57.4627 436.4879 63.5123 442.5375 63.5123 450 C 63.5123 457.4626 57.4627 463.5123 50.0001 463.5123 ZM 61.0101 450 C 61.0101 447.6065 60.238 445.398 58.9409 443.5917 L 43.5917 458.9409 C 45.398 460.238 47.6066 461.0101 50 461.0101 C 56.0808 461.0101 61.0101 456.0807 61.0101 450 ZM 50 438.9901 C 43.9194 438.9901 38.99 443.9194 38.99 450 C 38.99 452.2368 39.6613 454.3148 40.8072 456.052 L 56.0519 440.8073 C 54.3148 439.6613 52.2368 438.9901 50 438.9901 Z" fill="#788A8D"/>			<path id="App%20Permissions" d="M 359.9527 348.8603 L 359.9527 358.7032 C 359.9527 359.3894 359.3964 359.9459 358.7101 359.9459 L 341.3131 359.9459 C 340.6268 359.9459 340.0704 359.3894 340.0704 358.7032 L 340.0704 341.3062 C 340.0704 340.6199 340.6268 340.0635 341.3131 340.0635 L 358.7101 340.0635 C 359.3964 340.0635 359.9527 340.6199 359.9527 341.3062 L 359.9527 344.5287 L 364.738 339.7434 L 364.738 344.0746 L 359.9527 348.8603 ZM 358.3503 350.4627 L 352.0422 356.7713 C 351.197 357.6165 349.9111 357.7384 348.9289 357.154 L 344.3245 352.5496 L 344.328 352.5371 L 346.4285 350.4367 L 349.609 353.6172 C 349.6155 353.6242 349.6201 353.6322 349.6269 353.639 C 349.9508 353.9629 350.4672 353.971 350.8046 353.6696 L 350.8082 353.6732 L 358.3503 346.1311 L 358.3503 342.1713 C 358.3503 341.8932 358.1248 341.6676 357.8465 341.6676 L 342.1783 341.6676 C 341.9 341.6676 341.6745 341.8932 341.6745 342.1713 L 341.6745 357.8397 C 341.6745 358.1179 341.9 358.3434 342.1783 358.3434 L 357.8465 358.3434 C 358.1248 358.3434 358.3503 358.1179 358.3503 357.8397 L 358.3503 350.4627 Z" fill="#788A8D"/>			<path id="Sim%20Card%20Lock" d="M 257.9544 363.9714 L 242.9186 363.9714 C 241.8667 363.9714 241.014 363.0618 241.014 361.9398 L 241.014 338.029 C 241.014 336.907 241.8667 335.9974 242.9186 335.9974 L 255.1688 335.9974 L 259.9861 340.8147 L 259.9861 361.9398 C 259.9861 363.0618 259.0765 363.9714 257.9544 363.9714 ZM 250.9903 360.9783 L 252.9133 360.9783 L 252.9133 356.954 L 250.9903 356.954 L 250.9903 360.9783 ZM 248.1492 360.9783 L 250.0722 360.9783 L 250.0722 356.954 L 248.1492 356.954 L 248.1492 360.9783 ZM 244.4718 359.4002 C 244.4718 360.2717 245.1783 360.9783 246.0499 360.9783 L 247.1873 360.9783 L 247.1873 356.954 L 244.4718 356.954 L 244.4718 359.4002 ZM 247.1873 347.9844 L 246.0499 347.9844 C 245.1783 347.9844 244.4718 348.6909 244.4718 349.5625 L 244.4718 351.9082 L 247.1873 351.9082 L 247.1873 347.9844 ZM 250.0722 347.9844 L 248.1492 347.9844 L 248.1492 351.9082 L 250.0722 351.9082 L 250.0722 347.9844 ZM 252.9133 347.9844 L 250.9903 347.9844 L 250.9903 351.9082 L 252.9133 351.9082 L 252.9133 347.9844 ZM 256.4658 349.5625 C 256.4658 348.6909 255.7592 347.9844 254.8876 347.9844 L 253.8752 347.9844 L 253.8752 351.9082 L 256.4658 351.9082 L 256.4658 349.5625 ZM 256.4712 353.8738 L 256.4673 353.8738 L 256.4673 352.8232 L 244.4703 352.8232 L 244.4703 356.0065 L 253.8756 356.0065 L 253.8756 356.954 L 253.8752 356.954 L 253.8752 360.9783 L 254.8876 360.9783 C 255.7592 360.9783 256.4658 360.2717 256.4658 359.4002 L 256.4658 358.7838 L 256.4712 358.7838 L 256.4712 353.8738 Z" fill="#788A8D"/>			<path id="Pone%20Lock" d="M 157.7434 363.0054 L 142.193 363.0054 C 141.4915 363.0054 140.9228 362.4367 140.9228 361.7353 L 140.9228 349.2871 C 140.9228 348.5854 141.4915 348.0168 142.193 348.0168 L 142.845 348.0168 L 142.845 344.1559 L 142.846 344.1559 C 142.8466 340.2047 146.0498 337.0019 150.0011 337.0019 C 153.9528 337.0019 157.1563 340.2053 157.1563 344.1571 C 157.1563 344.1659 157.155 344.1743 157.155 344.1832 L 157.155 348.0168 L 157.7434 348.0168 C 158.4449 348.0168 159.0135 348.5854 159.0135 349.2871 L 159.0135 361.7353 C 159.0135 362.4367 158.4449 363.0054 157.7434 363.0054 ZM 154.6018 344.1559 C 154.6005 341.6168 152.5419 339.5587 150.0024 339.5587 C 147.4628 339.5587 145.4042 341.6168 145.4029 344.1559 L 145.4323 344.1559 L 145.4323 348.0168 L 154.5677 348.0168 L 154.5677 344.1559 L 154.6018 344.1559 Z" fill="#788A8D"/>			<path id="Email" d="M 51.071 351.4085 C 50.4751 352.0044 49.5091 352.0044 48.9132 351.4085 L 37.9171 340.4124 C 38.1425 340.1837 38.4545 340.0408 38.801 340.0408 L 61.1979 340.0408 C 61.5406 340.0408 61.8507 340.1797 62.0755 340.404 L 51.071 351.4085 ZM 48.3792 353.0857 C 49.2695 353.9761 50.7131 353.9761 51.6034 353.0857 L 62.4405 342.2487 L 62.4405 358.6805 C 62.4405 359.3667 61.8842 359.9231 61.1979 359.9231 L 38.801 359.9231 C 38.1146 359.9231 37.5582 359.3667 37.5582 358.6805 L 37.5582 342.2648 L 48.3792 353.0857 Z" fill="#788A8D"/>			<path id="Persona" d="M 364.0025 250.0005 L 354.9967 261.0073 L 338.0025 260.9995 C 338.0016 260.9995 338.0009 261 338 261 L 337 261 C 336.4477 261 336 260.5523 336 260 L 336 240 C 336 239.4477 336.4477 239 337 239 L 338 239 C 338.0011 239 338.002 239.0006 338.0032 239.0006 L 354.9967 238.9928 L 364.0025 250.0005 ZM 351.2909 252.4381 C 349.5916 251.7696 349.1757 251.8642 348.5855 251.5085 C 348.571 251.5004 348.5565 251.4913 348.5421 251.4841 L 348.5421 250.4839 C 349.1073 249.9881 349.5585 249.241 349.8214 248.3863 C 350.1283 248.0568 350.3052 247.6693 350.3052 247.2543 C 350.3052 246.9696 350.2215 246.6984 350.0695 246.4492 C 349.9699 244.3552 348.638 242.9697 347.0075 242.9697 C 345.3782 242.9697 344.0464 244.3552 343.9459 246.4492 C 343.7943 246.6984 343.7097 246.9696 343.7097 247.2543 C 343.7097 247.6693 343.8871 248.0568 344.1939 248.3863 C 344.4573 249.241 344.9081 249.9886 345.4738 250.4843 L 345.4738 251.4841 C 345.4593 251.4913 345.4443 251.5004 345.4294 251.5085 C 344.8406 251.8642 344.4238 251.7696 342.7253 252.4381 C 341.026 253.1055 340.783 256.8192 340.783 256.8192 C 340.783 256.8192 342.3475 257.0302 347.0034 257.0302 C 351.6593 257.0302 353.2324 256.8192 353.2324 256.8192 C 353.2324 256.8192 352.9902 253.1055 351.2909 252.4381 Z" fill="#788A8D"/>			<path id="Accessibility" d="M 253.3764 248.174 C 253.0761 248.8345 252.75 249.5218 252.3853 250.2434 C 252.6778 250.7251 252.9706 251.2148 253.2625 251.7205 C 256.8178 257.8785 258.8728 263.3481 257.8524 263.9372 C 256.8732 264.5025 253.4182 260.3637 249.9991 254.5874 C 246.58 260.3637 243.125 264.5025 242.1458 263.9372 C 241.1254 263.3481 243.1804 257.8785 246.7357 251.7205 C 247.0277 251.2148 247.3204 250.7251 247.6129 250.2435 C 247.2482 249.5217 246.9221 248.8344 246.6217 248.1739 C 241.153 247.9579 237.1259 247.2335 237.1259 246.3708 C 237.1259 245.3377 242.8902 244.5004 250.0008 244.5004 C 257.1114 244.5004 262.8757 245.3377 262.8757 246.3708 C 262.8757 247.2337 258.8468 247.9582 253.3764 248.174 ZM 250 243.2477 C 247.9298 243.2477 246.2515 241.5695 246.2515 239.4992 C 246.2515 237.4289 247.9298 235.7507 250 235.7507 C 252.0703 235.7507 253.7485 237.4289 253.7485 239.4992 C 253.7485 241.5695 252.0703 243.2477 250 243.2477 Z" fill="#788A8D"/>			<path id="Keyboard" d="M 163 259.0001 L 137 259.0001 C 135.8954 259.0001 135 258.1607 135 257.1252 L 135 244.0001 C 135 242.8956 135.8954 242.0001 137 242.0001 L 163 242.0001 C 164.1046 242.0001 165 242.8956 165 244.0001 L 165 257.1252 C 165 258.1607 164.1046 259.0001 163 259.0001 ZM 145.9754 255.5014 L 145.9858 255.5098 C 146.033 255.7172 146.2097 255.8752 146.4314 255.8754 L 146.432 255.876 L 157.566 255.876 L 157.5666 255.8754 C 157.7883 255.8752 157.965 255.7172 158.0122 255.5098 L 158.0226 255.5014 C 158.1083 255.054 158.1674 254.5481 158.1907 254.0041 L 145.8073 254.0041 C 145.8307 254.5481 145.8897 255.054 145.9754 255.5014 ZM 147.8074 251.0041 C 147.8307 251.548 147.8897 252.054 147.9754 252.5014 L 147.9858 252.5098 C 148.033 252.7172 148.2097 252.8753 148.4314 252.8754 L 148.432 252.876 L 149.5661 252.876 L 149.5666 252.8754 C 149.7883 252.8753 149.965 252.7172 150.0122 252.5098 L 150.0226 252.5014 C 150.1083 252.054 150.1673 251.548 150.1907 251.0041 L 147.8074 251.0041 ZM 149.1907 248.0041 L 146.8073 248.0041 C 146.8307 248.548 146.8897 249.0539 146.9755 249.5013 L 146.9858 249.5098 C 147.033 249.7172 147.2097 249.8753 147.4314 249.8754 L 147.432 249.876 L 148.5661 249.876 L 148.5666 249.8754 C 148.7883 249.8753 148.965 249.7172 149.0122 249.5098 L 149.0225 249.5013 C 149.1083 249.0539 149.1674 248.548 149.1907 248.0041 ZM 149.9754 249.5013 L 149.9858 249.5098 C 150.0329 249.7172 150.2097 249.8753 150.4314 249.8754 L 150.432 249.876 L 151.5661 249.876 L 151.5666 249.8754 C 151.7883 249.8753 151.965 249.7172 152.0122 249.5098 L 152.0226 249.5013 C 152.1083 249.0539 152.1674 248.548 152.1906 248.0041 L 149.8074 248.0041 C 149.8307 248.548 149.8897 249.0539 149.9754 249.5013 ZM 150.8073 251.0041 C 150.8307 251.548 150.8897 252.054 150.9755 252.5014 L 150.9858 252.5098 C 151.033 252.7172 151.2097 252.8753 151.4314 252.8754 L 151.432 252.876 L 152.5661 252.876 L 152.5666 252.8754 C 152.7883 252.8753 152.965 252.7172 153.0122 252.5098 L 153.0226 252.5014 C 153.1083 252.054 153.1674 251.548 153.1907 251.0041 L 150.8073 251.0041 ZM 152.9754 249.5013 L 152.9858 249.5098 C 153.033 249.7172 153.2097 249.8753 153.4314 249.8754 L 153.432 249.876 L 154.5661 249.876 L 154.5666 249.8754 C 154.7883 249.8753 154.965 249.7172 155.0122 249.5098 L 155.0226 249.5013 C 155.1083 249.0539 155.1673 248.548 155.1907 248.0041 L 152.8074 248.0041 C 152.8306 248.548 152.8897 249.0539 152.9754 249.5013 ZM 153.8074 251.0041 C 153.8307 251.548 153.8897 252.054 153.9754 252.5014 L 153.9858 252.5098 C 154.0329 252.7172 154.2097 252.8753 154.4314 252.8754 L 154.432 252.876 L 155.5661 252.876 L 155.5666 252.8754 C 155.7883 252.8753 155.965 252.7172 156.0122 252.5098 L 156.0226 252.5014 C 156.1083 252.054 156.1674 251.548 156.1907 251.0041 L 153.8074 251.0041 ZM 145.4319 252.876 L 146.5661 252.876 L 146.5666 252.8754 C 146.7883 252.8753 146.9651 252.7172 147.0122 252.5098 L 147.0226 252.5014 C 147.1083 252.054 147.1673 251.548 147.1906 251.0041 L 144.8074 251.0041 C 144.8307 251.548 144.8897 252.054 144.9754 252.5014 L 144.9858 252.5098 C 145.033 252.7172 145.2097 252.8753 145.4314 252.8754 L 145.4319 252.876 ZM 146.1907 248.0041 L 143.8074 248.0041 C 143.8307 248.548 143.8897 249.0539 143.9754 249.5013 L 143.9858 249.5098 C 144.033 249.7172 144.2097 249.8753 144.4314 249.8754 L 144.432 249.876 L 145.5661 249.876 L 145.5666 249.8754 C 145.7883 249.8753 145.9651 249.7172 146.0122 249.5098 L 146.0226 249.5013 C 146.1083 249.0539 146.1673 248.548 146.1907 248.0041 ZM 142.9754 255.5014 L 142.9858 255.5098 C 143.033 255.7172 143.2097 255.8752 143.4314 255.8754 L 143.432 255.876 L 144.5661 255.876 L 144.5666 255.8754 C 144.7883 255.8752 144.965 255.7172 145.0122 255.5098 L 145.0225 255.5014 C 145.1083 255.054 145.1674 254.5481 145.1907 254.0041 L 142.8073 254.0041 C 142.8307 254.5481 142.8897 255.054 142.9754 255.5014 ZM 142.432 252.876 L 143.5661 252.876 L 143.5666 252.8754 C 143.7883 252.8753 143.965 252.7172 144.0122 252.5098 L 144.0225 252.5014 C 144.1083 252.054 144.1674 251.548 144.1906 251.0041 L 141.8073 251.0041 C 141.8307 251.548 141.8897 252.054 141.9754 252.5014 L 141.9858 252.5098 C 142.033 252.7172 142.2097 252.8753 142.4314 252.8754 L 142.432 252.876 ZM 137.9754 255.5014 L 137.9858 255.5098 C 138.033 255.7172 138.2097 255.8752 138.4314 255.8754 L 138.432 255.876 L 141.566 255.876 L 141.5666 255.8754 C 141.7883 255.8752 141.9651 255.7172 142.0122 255.5098 L 142.0226 255.5014 C 142.1083 255.054 142.1674 254.5481 142.1906 254.0041 L 137.8073 254.0041 C 137.8307 254.5481 137.8897 255.054 137.9754 255.5014 ZM 137.9754 252.5014 L 137.9858 252.5098 C 138.033 252.7172 138.2097 252.8753 138.4314 252.8754 L 138.432 252.876 L 140.5661 252.876 L 140.5666 252.8754 C 140.7883 252.8753 140.965 252.7172 141.0122 252.5098 L 141.0225 252.5014 C 141.1083 252.054 141.1674 251.548 141.1907 251.0041 L 137.8073 251.0041 C 137.8307 251.548 137.8897 252.054 137.9754 252.5014 ZM 137.9754 249.5013 L 137.9858 249.5098 C 138.033 249.7172 138.2097 249.8753 138.4314 249.8754 L 138.432 249.876 L 142.5661 249.876 L 142.5666 249.8754 C 142.7883 249.8753 142.9651 249.7172 143.0122 249.5098 L 143.0226 249.5013 C 143.1083 249.0539 143.1674 248.548 143.1906 248.0041 L 137.8073 248.0041 C 137.8307 248.548 137.8897 249.0539 137.9754 249.5013 ZM 137.8073 245.0041 C 137.8307 245.548 137.8897 246.0539 137.9754 246.5013 L 137.9858 246.5098 C 138.033 246.7172 138.2097 246.8752 138.4314 246.8754 L 138.432 246.876 L 140.5661 246.876 L 140.5666 246.8754 C 140.7883 246.8752 140.965 246.7172 141.0122 246.5098 L 141.0225 246.5013 C 141.1083 246.0539 141.1674 245.548 141.1907 245.0041 L 137.8073 245.0041 ZM 141.8073 245.0041 C 141.8307 245.548 141.8897 246.0539 141.9754 246.5013 L 141.9858 246.5098 C 142.033 246.7172 142.2097 246.8752 142.4314 246.8754 L 142.432 246.876 L 143.5661 246.876 L 143.5666 246.8754 C 143.7883 246.8752 143.965 246.7172 144.0122 246.5098 L 144.0225 246.5013 C 144.1083 246.0539 144.1674 245.548 144.1906 245.0041 L 141.8073 245.0041 ZM 144.8074 245.0041 C 144.8307 245.548 144.8897 246.0539 144.9754 246.5013 L 144.9858 246.5098 C 145.033 246.7172 145.2097 246.8752 145.4314 246.8754 L 145.4319 246.876 L 146.5661 246.876 L 146.5666 246.8754 C 146.7883 246.8752 146.9651 246.7172 147.0122 246.5098 L 147.0226 246.5013 C 147.1083 246.0539 147.1673 245.548 147.1906 245.0041 L 144.8074 245.0041 ZM 147.8074 245.0041 C 147.8307 245.548 147.8897 246.0539 147.9754 246.5013 L 147.9858 246.5098 C 148.033 246.7172 148.2097 246.8752 148.4314 246.8754 L 148.432 246.876 L 149.5661 246.876 L 149.5666 246.8754 C 149.7883 246.8752 149.965 246.7172 150.0122 246.5098 L 150.0226 246.5013 C 150.1083 246.0539 150.1673 245.548 150.1907 245.0041 L 147.8074 245.0041 ZM 150.8073 245.0041 C 150.8307 245.548 150.8897 246.0539 150.9755 246.5013 L 150.9858 246.5098 C 151.033 246.7172 151.2097 246.8752 151.4314 246.8754 L 151.432 246.876 L 152.5661 246.876 L 152.5666 246.8754 C 152.7883 246.8752 152.965 246.7172 153.0122 246.5098 L 153.0226 246.5013 C 153.1083 246.0539 153.1674 245.548 153.1907 245.0041 L 150.8073 245.0041 ZM 153.8074 245.0041 C 153.8307 245.548 153.8897 246.0539 153.9754 246.5013 L 153.9858 246.5098 C 154.0329 246.7172 154.2097 246.8752 154.4314 246.8754 L 154.432 246.876 L 155.5661 246.876 L 155.5666 246.8754 C 155.7883 246.8752 155.965 246.7172 156.0122 246.5098 L 156.0226 246.5013 C 156.1083 246.0539 156.1674 245.548 156.1907 245.0041 L 153.8074 245.0041 ZM 156.8074 245.0041 C 156.8307 245.548 156.8897 246.0539 156.9755 246.5013 L 156.9858 246.5098 C 157.033 246.7172 157.2097 246.8752 157.4314 246.8754 L 157.432 246.876 L 158.566 246.876 L 158.5666 246.8754 C 158.7883 246.8752 158.965 246.7172 159.0122 246.5098 L 159.0226 246.5013 C 159.1083 246.0539 159.1674 245.548 159.1907 245.0041 L 156.8074 245.0041 ZM 159.8073 245.0041 C 159.8307 245.548 159.8897 246.0539 159.9754 246.5013 L 159.9858 246.5098 C 160.033 246.7172 160.2097 246.8752 160.4314 246.8754 L 160.432 246.876 L 161.5661 246.876 L 161.5666 246.8754 C 161.7883 246.8752 161.965 246.7172 162.0122 246.5098 L 162.0225 246.5013 C 162.1083 246.0539 162.1674 245.548 162.1907 245.0041 L 159.8073 245.0041 ZM 155.8074 248.0041 C 155.8307 248.548 155.8897 249.0539 155.9754 249.5013 L 155.9858 249.5098 C 156.0329 249.7172 156.2097 249.8753 156.4314 249.8754 L 156.432 249.876 L 161.5661 249.876 L 161.5666 249.8754 C 161.7883 249.8753 161.965 249.7172 162.0122 249.5098 L 162.0225 249.5013 C 162.1083 249.0539 162.1674 248.548 162.1907 248.0041 L 155.8074 248.0041 ZM 156.8074 251.0041 C 156.8307 251.548 156.8897 252.054 156.9755 252.5014 L 156.9858 252.5098 C 157.033 252.7172 157.2097 252.8753 157.4314 252.8754 L 157.432 252.876 L 161.5661 252.876 L 161.5666 252.8754 C 161.7883 252.8753 161.965 252.7172 162.0122 252.5098 L 162.0225 252.5014 C 162.1083 252.054 162.1674 251.548 162.1907 251.0041 L 156.8074 251.0041 ZM 158.8073 254.0041 C 158.8306 254.5481 158.8897 255.054 158.9755 255.5014 L 158.9858 255.5098 C 159.033 255.7172 159.2097 255.8752 159.4314 255.8754 L 159.432 255.876 L 161.5661 255.876 L 161.5666 255.8754 C 161.7883 255.8752 161.965 255.7172 162.0122 255.5098 L 162.0225 255.5014 C 162.1083 255.054 162.1674 254.5481 162.1907 254.0041 L 158.8073 254.0041 Z" fill="#788A8D"/>			<path id="Languages" d="M 60.7074 263.3315 L 58.711 257.78 L 51.0673 257.78 L 49.1119 263.3315 L 45.666 263.3315 L 53.1457 243.2583 L 56.7009 243.2583 L 64.1805 263.3315 L 60.7074 263.3315 ZM 55.9762 249.5209 C 55.8394 249.1563 55.6501 248.5821 55.4087 247.798 C 55.1671 247.0141 55.0006 246.4397 54.9096 246.075 C 54.6635 247.1963 54.3033 248.4225 53.8294 249.7534 L 52.0244 254.9631 L 57.8495 254.9631 L 55.9762 249.5209 ZM 50.749 245.0064 L 38.526 245.0064 L 38.526 237.9943 L 53.4662 237.9943 L 53.4662 241.2581 L 52.1457 241.2581 L 50.749 245.0064 ZM 51.33 240.0023 L 40.616 240.0023 L 40.616 243.0046 L 51.33 243.0046 L 51.33 240.0023 ZM 37.2337 245.996 L 50.3803 245.996 L 49.6871 247.8563 L 47.2446 247.8563 C 47.1766 248.7404 47.0632 249.2442 46.9272 250.015 L 48.8828 250.015 L 48.143 252.0003 L 47.4811 252.0003 C 47.5908 252.2716 47.7286 252.5094 47.8633 252.7511 L 47.0974 254.8065 C 46.559 254.0473 46.1741 253.1332 45.9645 252.0289 C 45.223 256.0403 43.07 257.5771 36.7643 258.4278 C 36.6283 258.0423 35.8507 257.0155 35.5787 256.698 C 41.1105 255.9046 43.3776 254.7434 44.3751 252.0003 L 35.7374 252.0003 L 35.7374 250.015 L 44.7605 250.015 C 44.9192 249.2668 45.0326 248.7631 45.1006 247.8563 L 37.2337 247.8563 L 37.2337 245.996 Z" fill="#788A8D"/>			<path id="Date%20%26%20Time" d="M 350.0001 163.5123 C 342.5375 163.5123 336.4879 157.4626 336.4879 150 C 336.4879 142.5375 342.5375 136.4879 350.0001 136.4879 C 357.4627 136.4879 363.5123 142.5375 363.5123 150 C 363.5123 157.4626 357.4627 163.5123 350.0001 163.5123 ZM 350.0001 138.9901 C 343.9194 138.9901 338.99 143.9194 338.99 150 C 338.99 156.0807 343.9194 161.0101 350.0001 161.0101 C 356.0808 161.0101 361.0101 156.0807 361.0101 150 C 361.0101 143.9194 356.0808 138.9901 350.0001 138.9901 ZM 347.9476 151.8211 L 343.0304 146.9039 C 343.3566 146.3234 343.7591 145.1084 344.2416 144.6073 L 349.1618 149.5275 C 349.6225 149.9882 350.3694 149.9882 350.83 149.5275 L 355.7513 144.6063 C 356.2329 145.1062 356.6347 146.3199 356.9606 146.8991 L 352.0386 151.8211 C 350.9089 152.9509 349.0773 152.9509 347.9476 151.8211 Z" fill="#788A8D"/>			<path id="Wallpaper" d="M 263 160.0001 L 237 160.0001 C 236.4477 160.0001 236 159.5525 236 159.0001 L 236 141.0002 C 236 140.4478 236.4477 140.0001 237 140.0001 L 263 140.0001 C 263.5523 140.0001 264 140.4478 264 141.0002 L 264 159.0001 C 264 159.5525 263.5523 160.0001 263 160.0001 ZM 262 142.0001 L 238 142.0001 L 238 158.0001 L 262 158.0001 L 262 142.0001 ZM 261 157.0001 L 239 157.0001 L 239 143.0001 L 261 143.0001 L 261 157.0001 Z" fill="#788A8D"/>			<path id="Brightness" d="M 162.7509 146.7858 L 158.5821 148.1403 C 158.1217 148.2899 157.6271 148.0379 157.4775 147.5774 C 157.3279 147.1169 157.5798 146.6223 158.0403 146.4727 L 162.2091 145.1182 C 162.6695 144.9686 163.1641 145.2206 163.3137 145.6811 C 163.4633 146.1416 163.2114 146.636 162.7509 146.7858 ZM 155.8458 143.4522 C 155.5613 143.8439 155.013 143.9308 154.6213 143.6462 C 154.2296 143.3616 154.1428 142.8134 154.4274 142.4216 L 157.0038 138.8755 C 157.2884 138.4838 157.8366 138.397 158.2283 138.6815 C 158.62 138.9661 158.7068 139.5143 158.4222 139.9062 L 155.8458 143.4522 ZM 149.9999 142.1445 C 149.5157 142.1445 149.1232 141.752 149.1232 141.2679 L 149.1232 136.8847 C 149.1232 136.4006 149.5157 136.008 149.9999 136.008 C 150.4841 136.008 150.8765 136.4006 150.8765 136.8847 L 150.8765 141.2679 C 150.8765 141.752 150.4841 142.1445 149.9999 142.1445 ZM 144.1539 143.4522 L 141.5776 139.9062 C 141.293 139.5143 141.3798 138.9661 141.7715 138.6815 C 142.1632 138.397 142.7113 138.4838 142.996 138.8755 L 145.5724 142.4216 C 145.857 142.8134 145.7702 143.3616 145.3785 143.6462 C 144.9868 143.9308 144.4385 143.8439 144.1539 143.4522 ZM 142.5223 147.5774 C 142.3727 148.0379 141.8781 148.2899 141.4176 148.1403 L 137.2489 146.7858 C 136.7884 146.636 136.5364 146.1416 136.686 145.6811 C 136.8357 145.2206 137.3302 144.9686 137.7907 145.1182 L 141.9594 146.4727 C 142.4199 146.6223 142.6719 147.1169 142.5223 147.5774 ZM 137.2489 153.2283 L 141.4176 151.8738 C 141.8781 151.7242 142.3727 151.9762 142.5223 152.4367 C 142.6719 152.8971 142.4199 153.3916 141.9594 153.5412 L 137.7907 154.8958 C 137.3302 155.0455 136.8357 154.7934 136.686 154.3329 C 136.5364 153.8725 136.7884 153.3779 137.2489 153.2283 ZM 144.1539 156.5618 C 144.4385 156.17 144.9868 156.0833 145.3785 156.3679 C 145.7702 156.6525 145.857 157.2007 145.5724 157.5924 L 142.996 161.1385 C 142.7113 161.5301 142.1632 161.617 141.7715 161.3324 C 141.3798 161.0478 141.293 160.4997 141.5776 160.1079 L 144.1539 156.5618 ZM 149.9999 157.8694 C 150.4841 157.8694 150.8765 158.2619 150.8765 158.7461 L 150.8765 163.1294 C 150.8765 163.6135 150.4841 164.006 149.9999 164.006 C 149.5157 164.006 149.1232 163.6135 149.1232 163.1294 L 149.1232 158.7461 C 149.1232 158.2619 149.5157 157.8694 149.9999 157.8694 ZM 150.0013 156.5407 C 146.4073 156.5407 143.4939 153.6272 143.4939 150.0334 C 143.4939 146.4395 146.4073 143.5259 150.0013 143.5259 C 153.5952 143.5259 156.5086 146.4395 156.5086 150.0334 C 156.5086 153.6272 153.5952 156.5407 150.0013 156.5407 ZM 155.8458 156.5618 L 158.4222 160.1079 C 158.7068 160.4997 158.62 161.0478 158.2283 161.3324 C 157.8366 161.617 157.2884 161.5301 157.0038 161.1385 L 154.4274 157.5924 C 154.1428 157.2007 154.2296 156.6525 154.6213 156.3679 C 155.013 156.0833 155.5613 156.17 155.8458 156.5618 ZM 157.4775 152.4367 C 157.6271 151.9762 158.1217 151.7242 158.5821 151.8738 L 162.7509 153.2283 C 163.2114 153.3779 163.4633 153.8725 163.3137 154.3329 C 163.1641 154.7934 162.6695 155.0455 162.2091 154.8958 L 158.0403 153.5412 C 157.5798 153.3916 157.3279 152.8971 157.4775 152.4367 Z" fill="#788A8D"/>			<path id="Sound" d="M 59.9338 159.7811 C 59.548 160.1668 58.9224 160.1668 58.5366 159.7811 C 58.1507 159.3952 58.1507 158.7695 58.5366 158.3837 C 59.3272 157.5931 59.9338 156.6897 59.9338 156.6897 C 62.6906 152.6678 62.6906 147.3322 59.9338 143.3104 C 59.9338 143.3104 59.3272 142.407 58.5366 141.6164 C 58.1507 141.2305 58.1507 140.6049 58.5366 140.2192 C 58.9224 139.8333 59.548 139.8333 59.9338 140.2192 C 65.3357 145.621 65.3357 154.3791 59.9338 159.7811 ZM 56.3786 156.2882 L 56.3786 156.2872 C 56.3784 156.2874 56.3783 156.2876 56.3782 156.2877 C 55.9923 156.6736 55.3667 156.6736 54.9808 156.2877 C 54.5951 155.902 54.5951 155.2764 54.9808 154.8906 C 55.8493 154.0222 56.3786 152.8264 56.3786 152.8264 C 57.1856 151.0288 57.1856 148.9713 56.3786 147.1737 C 56.3786 147.1737 55.9414 146.0701 54.9808 145.1096 C 54.5951 144.7237 54.5951 144.0981 54.9808 143.7123 C 55.3667 143.3264 55.9923 143.3264 56.3782 143.7123 C 56.3783 143.7125 56.3784 143.7127 56.3786 143.7128 L 56.3786 143.7119 C 59.8514 147.1847 59.8514 152.8153 56.3786 156.2882 ZM 52.8225 152.7946 C 52.4366 153.1805 51.811 153.1805 51.4251 152.7946 C 51.0393 152.4088 51.0393 151.7832 51.4251 151.3974 C 51.4251 151.3974 52.8225 150.0001 51.4251 148.6028 C 51.0393 148.2169 51.0393 147.5913 51.4251 147.2056 C 51.811 146.8197 52.4366 146.8197 52.8225 147.2056 C 52.8228 147.2059 52.8229 147.2063 52.8232 147.2066 C 54.3653 148.7497 54.3653 151.2504 52.8232 152.7936 C 52.8229 152.7939 52.8228 152.7943 52.8225 152.7946 ZM 41.3032 155.0022 L 37.6111 155.0022 C 36.7213 155.0022 36 154.2809 36 153.3911 L 36 146.6091 C 36 145.7193 36.7213 144.998 37.6111 144.998 L 41.3077 144.998 L 46.7936 138.9808 C 47.4009 138.3736 48.1971 138.0711 48.993 138.0725 L 48.993 161.9322 C 48.1971 161.9335 47.4009 161.6312 46.7936 161.024 L 41.3032 155.0022 Z" fill="#788A8D"/>			<path id="Bluetooth" d="M 356.6787 45.7262 L 352.3429 50.004 L 356.6787 54.2818 C 357.6388 55.2288 357.6388 56.7642 356.6787 57.7113 L 349.2949 64.9963 L 349.2949 53.0112 L 343.7363 58.4955 C 343.694 58.5372 343.6457 58.5684 343.601 58.6061 L 343.5514 58.6061 L 343.5514 58.6466 C 343.5005 58.6873 343.4531 58.734 343.4001 58.7705 C 343.0971 57.9304 342.8248 57.0469 342.5853 56.1248 L 348.7856 50.0077 L 342.578 43.8833 C 342.817 42.9593 343.0892 42.0737 343.3918 41.2317 C 343.4478 41.27 343.4979 41.319 343.5514 41.3617 L 343.5514 41.3964 L 343.5939 41.3964 C 343.641 41.4359 343.6918 41.4687 343.7363 41.5126 L 349.2949 46.9968 L 349.2949 35.0117 L 356.6787 42.2967 C 357.6388 43.2437 357.6388 44.7792 356.6787 45.7262 ZM 351.8475 58.9718 L 354.3104 56.5419 L 354.3069 56.5385 C 354.5964 56.2187 354.5886 55.7294 354.2775 55.4224 C 354.271 55.4159 354.2633 55.4116 354.2567 55.4054 L 351.8475 53.0286 L 351.8475 58.9718 ZM 354.2775 43.4373 C 354.271 43.431 354.2633 43.4266 354.2567 43.4204 L 351.8475 41.0436 L 351.8475 46.9867 L 354.3104 44.5568 L 354.3069 44.5535 C 354.5964 44.2338 354.5886 43.7444 354.2775 43.4373 Z" fill="#788A8D"/>			<path id="Network" d="M 258.1486 59.0129 L 258.1486 56.6951 L 258.1486 42.6951 C 258.1486 40.6544 259.8026 39 261.8432 38.9994 L 261.8432 52.9994 L 261.8432 55.3172 L 261.8432 59.0047 L 258.1486 59.0129 ZM 253.1486 59.0129 L 253.1486 59.0129 L 253.1486 46.1951 C 253.1486 44.1544 254.8027 42.5001 256.8431 42.4994 L 256.8431 52.9994 C 256.8431 52.9994 256.8432 52.9994 256.8432 52.9994 L 256.8432 59.0047 L 253.1486 59.0129 L 253.1486 59.0129 ZM 248.1486 59.0129 C 248.1486 59.0129 248.1485 59.0129 248.1485 59.0129 L 248.1485 49.695 C 248.1485 47.6544 249.8026 46 251.8431 45.9994 L 251.8431 52.9994 C 251.8431 52.9994 251.8432 52.9994 251.8432 52.9994 L 251.8432 59.0047 L 248.1486 59.0129 L 248.1486 59.0129 ZM 243.1486 59.0129 C 243.1486 59.0129 243.1486 59.0129 243.1486 59.0129 L 243.1486 53.1951 C 243.1486 51.1544 244.8027 49.5 246.8432 49.4994 L 246.8432 52.9994 C 246.8432 52.9994 246.8432 52.9994 246.8432 52.9994 L 246.8432 59.0047 L 243.1486 59.0129 L 243.1486 59.0129 ZM 238.1486 59.0129 C 238.1486 59.0129 238.1486 59.0129 238.1485 59.0129 L 238.1485 56.695 C 238.1485 54.6545 239.8027 53 241.8431 52.9994 L 241.8431 53.9994 C 241.8431 53.9994 241.8432 53.9994 241.8432 53.9994 L 241.8432 54.9994 L 241.8432 59.0047 L 238.1486 59.0129 L 238.1486 59.0129 Z" fill="#788A8D"/>			<path id="Wifi" d="M 162.9137 48.8904 C 159.9013 45.0709 155.2425 42.6105 150.0005 42.6105 C 144.763 42.6105 140.1074 45.0666 137.0948 48.8805 L 135.0077 46.7934 C 138.5607 42.4559 143.9561 39.6858 150.0005 39.6858 C 156.0494 39.6858 161.4478 42.4603 165.0008 46.8033 L 162.9137 48.8904 ZM 160.8527 50.9514 L 158.768 53.0361 C 156.8485 50.2503 153.6394 48.4216 150.0005 48.4216 C 146.366 48.4216 143.1608 50.2461 141.2405 53.0263 L 139.1558 50.9416 C 141.6296 47.6425 145.5597 45.4982 150.0005 45.4982 C 154.4458 45.4982 158.3794 47.6468 160.8527 50.9514 ZM 150.0005 51.3107 C 152.8448 51.3107 155.3242 52.8477 156.6722 55.1319 L 154.4898 57.3142 C 153.7916 55.51 152.0511 54.2253 150.0005 54.2253 C 147.9547 54.2253 146.2168 55.5036 145.5154 57.3012 L 143.3354 55.1212 C 144.6849 52.843 147.1608 51.3107 150.0005 51.3107 ZM 150.0005 57.1231 C 151.0704 57.1231 151.9377 57.9904 151.9377 59.0602 C 151.9377 60.13 151.0704 60.9973 150.0005 60.9973 C 148.9307 60.9973 148.0635 60.13 148.0635 59.0602 C 148.0635 57.9904 148.9307 57.1231 150.0005 57.1231 Z" fill="#788A8D"/>			<path id="Airplane%20Mode" d="M 59.7754 51.7297 C 59.772 51.7297 59.7689 51.7293 59.7655 51.7293 L 59.7655 51.7304 L 54.0583 51.7304 L 45.2209 62.2757 L 43.5007 62.2757 L 48.1003 51.7228 C 45.4189 51.69 43.0138 51.5062 41.2114 51.2273 L 37.5083 54.9128 L 35.9679 54.9128 L 37.9745 50.2061 L 38.0129 50.2061 C 37.9614 50.1384 37.9262 50.0699 37.9262 50 C 37.9262 49.9301 37.9614 49.8617 38.0129 49.794 L 37.9745 49.794 L 35.9679 45.0872 L 37.5083 45.0872 L 41.2114 48.7727 C 43.0138 48.4938 45.4189 48.3101 48.1004 48.2773 L 43.5007 37.7243 L 45.2209 37.7243 L 54.0583 48.2696 L 59.7655 48.2696 L 59.7655 48.2708 C 59.7689 48.2708 59.772 48.2704 59.7754 48.2704 C 62.1881 48.2704 64.144 49.0448 64.144 50 C 64.144 50.9552 62.1881 51.7297 59.7754 51.7297 Z" fill="#788A8D"/>		</g>	</g>	<g id="Web%20Layer">	</g></svg>