<?xml version="1.0" encoding="utf-8"?>
<!-- Generator: Adobe Illustrator 16.0.0, SVG Export Plug-In . SVG Version: 6.00 Build 0)  -->
<!DOCTYPE svg PUBLIC "-//W3C//DTD SVG 1.1//EN" "http://www.w3.org/Graphics/SVG/1.1/DTD/svg11.dtd">
<svg version="1.1" id="Layer_1" xmlns="http://www.w3.org/2000/svg" xmlns:xlink="http://www.w3.org/1999/xlink" x="0px" y="0px"
	 width="1770px" height="90px" viewBox="0 0 1770 90" enable-background="new 0 0 1770 90" xml:space="preserve">
    <defs>
       <style type="text/css"><![CDATA[path{fill: #657073;}]]></style>
    </defs>
<path d="M15.001,21.069c-0.908,0-1.646,0.735-1.646,1.645c0,0.91,0.737,1.646,1.646,1.646s1.646-0.736,1.646-1.646
	C16.647,21.805,15.909,21.069,15.001,21.069z M15.001,6.255c-4.785,0-9.072,2.059-12.08,5.316c0.31,0.874,0.69,1.703,1.122,2.486
	c2.561-3.235,6.513-5.319,10.958-5.319s8.396,2.084,10.956,5.319c0.432-0.785,0.812-1.613,1.123-2.487
	C24.072,8.312,19.784,6.255,15.001,6.255z M15.001,16.13c-2.412,0-4.517,1.303-5.663,3.238l0.458,0.459
	c0.561,0.288,1.146,0.521,1.743,0.716c0.722-1.159,1.995-1.936,3.462-1.936s2.738,0.778,3.461,1.936
	c0.613-0.199,1.208-0.44,1.781-0.738l0.428-0.428C19.525,17.437,17.417,16.13,15.001,16.13z M15.001,11.192
	c-3.773,0-7.112,1.822-9.215,4.624l1.771,1.772c1.632-2.363,4.355-3.911,7.443-3.911c3.092,0,5.819,1.553,7.449,3.92l1.772-1.771
	C22.121,13.018,18.777,11.192,15.001,11.192z"/>
<path d="M87.914,12.547L90,10.459c-3.552-4.343-8.949-7.116-14.999-7.116c-6.044,0-11.439,2.77-14.993,7.107l2.088,2.086
	c3.013-3.813,7.667-6.269,12.905-6.269C80.243,6.268,84.902,8.728,87.914,12.547z M84.312,16.15l1.542-1.542
	c-2.474-3.306-6.406-5.454-10.853-5.454c-4.441,0-8.371,2.145-10.844,5.445l2.084,2.083c1.92-2.781,5.125-4.604,8.759-4.604
	c3.406,0,6.421,1.611,8.369,4.103c-1.064,0.114-2.04,0.499-2.858,1.104c-1.402-1.428-3.35-2.318-5.511-2.318
	c-2.84,0-5.315,1.532-6.665,3.811l2.18,2.18c0.701-1.797,2.439-3.074,4.484-3.074c1.466,0,2.766,0.662,3.646,1.696
	c-0.338,0.74-0.538,1.56-0.538,2.428c0,3.254,2.638,5.893,5.891,5.893c3.254,0,5.893-2.639,5.893-5.893
	C89.893,18.862,87.417,16.313,84.312,16.15z M84.859,27.158h-1.781v-6.53h1.781V27.158z M84.698,19.585
	c-0.163,0.155-0.404,0.23-0.729,0.23c-0.646,0-0.969-0.29-0.969-0.875c0-0.581,0.323-0.87,0.969-0.87
	c0.649,0,0.972,0.289,0.972,0.87C84.94,19.219,84.859,19.434,84.698,19.585z M75.001,20.78c-1.069,0-1.937,0.866-1.937,1.936
	c0,1.07,0.867,1.937,1.937,1.937s1.938-0.866,1.938-1.937C76.938,21.646,76.071,20.78,75.001,20.78z"/>
<path d="M129.089,18.896v-0.87c0-1.529-1.26-2.771-2.809-2.771c-1.549,0-2.811,1.242-2.811,2.771v0.87h-1.015v6.048H130v-6.048
	H129.089z M127.84,18.896h-3.122v-0.87c0-0.826,0.716-1.522,1.562-1.522c0.846,0,1.56,0.696,1.56,1.522V18.896z"/>
<path d="M195.001,10.939c-3.773,0-7.112,1.822-9.214,4.624l1.771,1.773c1.634-2.363,4.355-3.913,7.443-3.913
	c3.093,0,5.818,1.554,7.45,3.92l1.771-1.771C202.122,12.766,198.779,10.939,195.001,10.939z M195.001,15.879
	c-2.396,0-4.484,1.285-5.636,3.197c0.737,0.42,1.51,0.758,2.315,1.008c0.741-1.043,1.945-1.73,3.321-1.73
	c1.377,0,2.583,0.688,3.322,1.73c0.805-0.252,1.578-0.59,2.314-1.008C199.484,17.162,197.396,15.879,195.001,15.879z M195.001,6
	c-4.746,0-9.006,2.028-12.011,5.244c0.318,0.865,0.695,1.694,1.134,2.469c2.562-3.181,6.477-5.228,10.877-5.228
	c4.401,0,8.314,2.048,10.876,5.228c0.439-0.776,0.816-1.606,1.135-2.473C204.005,8.025,199.749,6,195.001,6z M195.001,20.816
	c-0.908,0-1.645,0.738-1.645,1.646c0,0.908,0.737,1.645,1.645,1.645c0.909,0,1.646-0.736,1.646-1.645S195.91,20.816,195.001,20.816z
	"/>
<path d="M255.001,10.939c-3.773,0-7.112,1.822-9.214,4.624l1.771,1.773c1.634-2.363,4.355-3.913,7.443-3.913
	c3.093,0,5.818,1.554,7.45,3.92l1.771-1.771C262.122,12.766,258.779,10.939,255.001,10.939z M255.001,15.879
	c-2.396,0-4.484,1.285-5.636,3.197c0.737,0.42,1.51,0.758,2.315,1.008c0.741-1.043,1.945-1.73,3.321-1.73
	c1.377,0,2.583,0.688,3.322,1.73c0.805-0.252,1.578-0.59,2.314-1.008C259.484,17.162,257.396,15.879,255.001,15.879z
	 M255.001,20.816c-0.908,0-1.645,0.738-1.645,1.646c0,0.908,0.737,1.645,1.645,1.645c0.909,0,1.646-0.736,1.646-1.645
	S255.91,20.816,255.001,20.816z"/>
<path d="M315.001,15.879c-2.396,0-4.484,1.285-5.636,3.197c0.736,0.42,1.51,0.758,2.314,1.008c0.741-1.043,1.945-1.73,3.321-1.73
	c1.377,0,2.583,0.688,3.322,1.73c0.805-0.252,1.578-0.59,2.313-1.008C319.484,17.162,317.396,15.879,315.001,15.879z
	 M315.001,20.816c-0.908,0-1.645,0.738-1.645,1.646c0,0.908,0.736,1.645,1.645,1.645c0.909,0,1.646-0.736,1.646-1.645
	S315.91,20.816,315.001,20.816z"/>
<path d="M375.001,20.816c-0.908,0-1.645,0.738-1.645,1.646c0,0.908,0.736,1.645,1.645,1.645c0.909,0,1.646-0.736,1.646-1.645
	S375.91,20.816,375.001,20.816z"/>
<path d="M425,21.998h20V8h-20V21.998z M430.512,10.741c1.521,0,2.752,1.232,2.752,2.752s-1.231,2.751-2.752,2.751
	c-1.52,0-2.751-1.231-2.751-2.751S428.993,10.741,430.512,10.741z M447.041,5h-24.052C422.446,5,422,5.624,422,6.167v17.667
	c0,0.54,0.446,1.166,0.989,1.166h24.052c0.543,0,0.959-0.626,0.959-1.167V6.167C448,5.624,447.584,5,447.041,5z M423.963,23L424,7
	h22l0.053,16H423.963z"/>
<path d="M500.424,11.043h-10.858c-0.315,0-0.565,0.253-0.565,0.564v6.94c0,0.242,0.148,0.447,0.363,0.527
	c0.473,0.633,1.41,1.845,2.538,3.064c0.795,0.857,1.575,1.702,2.169,2.345v5.36c0.295,0.095,0.604,0.157,0.931,0.157
	c0.338,0,0.656-0.066,0.963-0.164V24.7c0.754-0.66,1.788-1.603,2.676-2.561c1.197-1.296,1.896-2.594,2.182-3.185
	c0.106-0.104,0.174-0.247,0.174-0.407v-6.94C500.994,11.296,500.739,11.043,500.424,11.043z M500.603,0.036h-11.221v9.871h11.221
	V0.036z M493.698,5.724c0,0.26-0.212,0.47-0.475,0.47h-1.525c-0.264,0-0.476-0.21-0.476-0.47V4.312c0-0.261,0.212-0.472,0.476-0.472
	h1.525c0.263,0,0.475,0.211,0.475,0.472V5.724z M498.833,5.724c0,0.26-0.213,0.47-0.475,0.47h-1.633c-0.262,0-0.475-0.21-0.475-0.47
	V4.312c0-0.261,0.213-0.472,0.475-0.472h1.633c0.262,0,0.475,0.211,0.475,0.472V5.724z"/>
<path d="M564.001,14.398c-0.317-4.693-4.217-8.404-8.99-8.404c-4.981,0-9.021,4.038-9.021,9.02s4.039,9.021,9.021,9.021v-2.49
	c-3.606,0-6.532-2.924-6.532-6.531s2.926-6.532,6.532-6.532c3.393,0,6.177,2.585,6.5,5.892c-1.053,0.099-2.016,0.327-2.819,0.653
	l3.25,3.25c0.403,0.404,1.058,0.404,1.459,0l3.251-3.248C565.891,14.721,564.985,14.505,564.001,14.398z"/>
<path d="M622.182,5.563h-14.299c-1.007,0-1.818,0.813-1.818,1.818v0.127c0.398,0.143,0.813,0.268,1.229,0.391V7.75
	c0-0.547,0.443-0.991,0.988-0.991h13.497c0.549,0,0.992,0.443,0.992,0.991V7.9c0.416-0.123,0.829-0.247,1.229-0.389v-0.13
	C624,6.377,623.188,5.563,622.182,5.563z M615.918,8.95c-0.49-0.488-1.283-0.488-1.773,0l-3.787,3.787
	c-0.309,0.309-0.399,0.737-0.316,1.135h1.991V25c1.97,0.242,3.999,0.242,5.967,0V13.872h2c0.082-0.398,0.014-0.826-0.297-1.135
	L615.918,8.95z"/>
<path d="M682.182,5.563h-14.299c-1.007,0-1.818,0.813-1.818,1.818v0.127c0.398,0.143,0.813,0.268,1.229,0.391V7.75
	c0-0.547,0.443-0.991,0.988-0.991h13.497c0.549,0,0.992,0.443,0.992,0.991V7.9c0.416-0.123,0.829-0.247,1.228-0.389v-0.13
	C683.999,6.377,683.188,5.563,682.182,5.563z M675.918,8.95c-0.49-0.488-1.283-0.488-1.773,0l-3.787,3.787
	c-0.309,0.309-0.399,0.737-0.316,1.135h1.991V18c1.97,0.242,3.999,0.242,5.968,0v-4.128h2.021c0.081-0.398-0.009-0.826-0.318-1.135
	L675.918,8.95z M666.069,18.238l0.289,2.598l-2.576-0.732l-0.275,1.765l2.385,0.183l-1.559,2.1L666,24.986l0.967-2.195L668.067,25
	l1.603-0.852l-1.576-2.098l2.401-0.169l-0.232-1.777l-2.633,0.732l0.289-2.598H666.069z M674.069,18.238l0.289,2.598l-2.576-0.732
	l-0.277,1.765l2.387,0.183l-1.559,2.1l1.664,0.839l0.967-2.196L676.066,25l1.604-0.852l-1.576-2.1l2.402-0.169l-0.232-1.778
	l-2.636,0.733l0.29-2.599h-1.849V18.238z M682.064,18.238l0.291,2.598l-2.578-0.732l-0.273,1.765l2.387,0.183l-1.561,2.1
	l1.668,0.839l0.965-2.196L684.064,25l1.603-0.852l-1.571-2.1l2.397-0.169l-0.233-1.778l-2.631,0.733l0.288-2.599h-1.853V18.238z"/>
<path d="M742.182,5.563h-14.299c-1.007,0-1.818,0.813-1.818,1.818v0.127c0.398,0.143,0.813,0.268,1.229,0.391V7.75
	c0-0.547,0.443-0.991,0.988-0.991h13.497c0.549,0,0.992,0.443,0.992,0.991V7.9c0.416-0.123,0.829-0.247,1.229-0.389v-0.13
	C744,6.377,743.188,5.563,742.182,5.563z M735.918,8.95c-0.49-0.488-1.283-0.488-1.773,0l-3.787,3.787
	c-0.309,0.309-0.399,0.737-0.316,1.135h1.991V25c1.97,0.242,3.999,0.242,5.967,0V13.872h2c0.082-0.398,0.014-0.826-0.297-1.135
	L735.918,8.95z"/>
<path d="M787.944,1.812c0-0.38-0.31-0.688-0.689-0.688s-0.688,0.308-0.688,0.688v2.13h1.379L787.944,1.812L787.944,1.812z
	 M800.688,3.942h-2.248v0.913c0,0.38-0.31,0.689-0.689,0.689s-0.689-0.309-0.689-0.689V3.942h-9.116v0.913
	c0,0.38-0.31,0.689-0.689,0.689s-0.688-0.309-0.688-0.689V3.942h-2.25c-0.725,0-1.312,0.587-1.312,1.312v17.433
	c0,0.725,0.588,1.313,1.312,1.313H793c-0.309-0.85-1.066-1.763-1.066-2.72c0-1.18,0.263-2.295,0.721-3.303h-0.999v-5.364
	c0-0.705,0.017-1.266,0.05-1.679c-0.096,0.1-0.215,0.211-0.354,0.333c-0.14,0.12-0.607,0.504-1.404,1.152l-0.74-0.934l2.692-2.118
	h1.229v7.725c1.408-2.285,3.926-3.813,6.809-3.813c0.717,0,1.405,0.103,2.065,0.279V5.254C802,4.529,801.411,3.942,800.688,3.942z
	 M798.439,1.812c0-0.38-0.31-0.688-0.689-0.688s-0.689,0.308-0.689,0.688v2.13h1.38L798.439,1.812L798.439,1.812z M802.292,19.424
	l-1.962,1.961c-0.184,0.184-0.481,0.184-0.665,0l-1.961-1.961c-0.192,0.199-0.354,0.686-0.483,0.913l1.961,1.961
	c0.45,0.452,1.183,0.452,1.63,0l1.963-1.961C802.644,20.104,802.485,19.621,802.292,19.424z M800.001,13
	c-4.418,0-8.001,3.582-8.001,8s3.583,8,8.001,8s7.998-3.582,7.998-8S804.419,13,800.001,13z M800.001,28
	c-3.867,0-7.001-3.135-7.001-7c0-3.867,3.134-7,7.001-7c3.865,0,7,3.133,7,7C807.001,24.865,803.866,28,800.001,28z"/>
<path d="M861.605,11.374c-0.817-0.465-1.687-0.74-2.567-0.877c-0.483-1.852-1.681-3.519-3.485-4.548
	c-3.564-2.035-8.141-0.823-10.2,2.7c-2.058,3.522-0.833,8.044,2.734,10.077c3.565,2.034,8.141,0.822,10.199-2.7
	c0.627-1.076,0.916-2.243,0.958-3.405c0.457,0.117,0.904,0.274,1.334,0.518c2.578,1.472,3.467,4.745,1.977,7.295
	c-1.487,2.55-4.801,3.428-7.384,1.955c-0.637-0.364-1.169-0.838-1.589-1.383c-0.781,0.138-1.579,0.173-2.375,0.06
	c0.631,1.249,1.62,2.338,2.933,3.088c3.564,2.032,8.141,0.822,10.198-2.7C866.396,17.929,865.171,13.407,861.605,11.374z
	 M856.499,15.006c-0.65,1.114-1.653,1.896-2.788,2.31l0.021,0.078c-0.283,0.056-0.57,0.096-0.858,0.128
	c-0.123,0.024-0.239,0.071-0.364,0.088c0-0.018,0.004-0.034,0.004-0.053c-0.683,0.051-1.372,0.027-2.05-0.104
	c0,0.009-0.003,0.019-0.003,0.028c-0.148-0.039-0.297-0.09-0.445-0.139c-0.502-0.134-0.995-0.323-1.47-0.593l0.039-0.168
	c-2.148-1.599-2.825-4.558-1.446-6.916c1.489-2.55,4.802-3.428,7.384-1.955c1.133,0.647,1.918,1.649,2.34,2.777
	c-2.206,0.302-4.258,1.539-5.455,3.586c-0.332,0.568-0.562,1.163-0.716,1.768c0.704,0.157,1.416,0.192,2.115,0.114
	c0.104-0.294,0.224-0.583,0.387-0.863c0.877-1.499,2.386-2.4,4.003-2.606C857.172,13.346,856.964,14.211,856.499,15.006z"/>
<path d="M917.163,11.847l-0.849,0.335c0.249,0.765,0.383,1.555,0.383,2.363s-0.134,1.596-0.383,2.361l0.849,0.335
	c0.309-0.87,0.475-1.772,0.475-2.696C917.638,13.618,917.472,12.717,917.163,11.847z M907.473,9.631h-3.049
	c-0.786,0-1.424,0.638-1.424,1.425V18c0,0.788,0.638,1.426,1.424,1.426h3.043l4.856,4.86c0.452,0.454,1.022,0.703,1.61,0.774V4
	c-0.588,0.071-1.158,0.321-1.61,0.774L907.473,9.631z"/>
<path d="M976.314,12.182c0.249,0.765,0.383,1.555,0.383,2.363s-0.134,1.596-0.383,2.361l0.849,0.335
	c0.309-0.87,0.475-1.772,0.475-2.696c0-0.927-0.166-1.828-0.475-2.698L976.314,12.182z M967.473,9.631h-3.049
	c-0.786,0-1.424,0.638-1.424,1.425V18c0,0.788,0.638,1.426,1.424,1.426h3.043l4.856,4.86c0.452,0.454,1.022,0.703,1.61,0.774V4
	c-0.588,0.071-1.158,0.321-1.61,0.774L967.473,9.631z M979.817,9.87c0.604,1.48,0.931,3.048,0.931,4.675
	c0,1.625-0.326,3.193-0.931,4.675l1.113,0.537c0.712-1.643,1.1-3.395,1.1-5.212c0-1.819-0.388-3.569-1.1-5.214L979.817,9.87z
	 M984.714,6.548l-1.314,0.729c0.994,2.263,1.544,4.711,1.544,7.269c0,2.556-0.55,5.004-1.544,7.267l1.314,0.729
	c1.135-2.479,1.759-5.177,1.759-7.996C986.473,11.723,985.849,9.027,984.714,6.548z"/>
<path d="M1022.905,1c-1.052,0-1.905,0.91-1.905,2.032v23.909c0,1.123,0.854,2.032,1.905,2.032h15.034
	c1.122,0,2.032-0.909,2.032-2.032V5.817L1035.155,1H1022.905z M1030.977,12.987h1.924V17h-1.924V12.987z M1028.136,12.987h1.923V17
	h-1.923V12.987z M1024.458,14.565c0-0.873,0.706-1.578,1.579-1.578h1.137V17h-2.716V14.565z M1027.173,26h-1.136
	c-0.873,0-1.579-0.711-1.579-1.584V21.97h2.715V26z M1030.059,26h-1.923v-4.03h1.923V26z M1032.899,26h-1.923v-4.03h1.923V26z
	 M1036.458,18.889v4.91h-0.006v0.617c0,0.873-0.707,1.584-1.579,1.584h-1.012v-4.977h-9.404v-3.185h11.997v1.05L1036.458,18.889
	L1036.458,18.889z M1036.452,14.565V17h-2.591v-4.013h1.012C1035.745,12.987,1036.452,13.692,1036.452,14.565z M1045.369,5.939
	l0.613,2.716l-1.509,1.81l-1.811-1.206l-0.258-2.746c-0.915,0.68-1.408,1.802-1.406,3.07c0.001,1.11,0.356,2.107,1.086,2.798
	c0.082,0.087,0.915,1.1,0.915,1.1v9.954c0,0,0,3.201,0,4.064c0,0.864,0.581,1.5,1.475,1.5C1045.367,29,1046,28.364,1046,27.5
	c0-0.863,0-12.989,0-12.989v-1.029c0,0,0.851-1.035,0.945-1.139c0.701-0.686,1.055-1.662,1.055-2.747
	C1047.996,7.836,1046.925,6.358,1045.369,5.939z"/>
<path d="M1098.78,2.164l0.159-0.161h-11.275c-0.912,0-1.651,0.799-1.651,1.786v21.429c-0.001,0.984,0.738,1.782,1.651,1.782h13.536
	c0.974,0,1.763-0.798,1.763-1.782V6.403L1098.78,2.164z M1094.788,12.996h2.291v3.072h-2.291V12.996z M1091.824,12.996h2.167v3.072
	h-2.167V12.996z M1089.094,14.382c0-0.766,0.613-1.386,1.368-1.386h0.528v3.072h-1.896V14.382z M1090.99,24.04h-0.528
	c-0.755,0-1.368-0.622-1.368-1.388v-1.816h1.896V24.04z M1093.991,24.04h-2.167v-3.204h2.167V24.04z M1097.079,24.04h-2.291v-3.204
	h2.291V24.04z M1099.952,19.989h-0.162v0.847h0.162v1.816c0,0.766-0.612,1.388-1.369,1.388h-0.669v-3.204h0.126v-0.847h-0.126
	v-0.152h-0.835v0.152h-2.291v-0.152h-0.797v0.152h-2.167v-0.152h-0.834v0.152h-1.896v-0.152h-0.084V17.04h0.084v-0.165h1.896v0.165
	h0.833v-0.165h2.167v0.165h0.797v-0.165h2.291v0.165h0.835v-0.165h2.038L1099.952,19.989L1099.952,19.989z M1099.952,16.068h-2.038
	v-3.072h0.669c0.757,0,1.369,0.62,1.369,1.386V16.068z"/>
<path d="M1165.18,5.983c-1.428,0.101-2.041-0.504-5.058-1.411c-3.015-0.906-5.211,0.251-5.211,0.251h-0.04
	c0,0-2.197-1.158-5.212-0.251c-3.015,0.907-3.628,1.512-5.061,1.411c-1.429-0.101-2.194-1.26-2.194-1.26s0.357,1.966,0.46,3.78
	c0.053,0.925-0.024,1.941,0.188,3.128l0.142,5.364c-0.049-0.194-0.051-1.294-0.051-1.294s-0.321,0.399-0.321,1.192
	c0,0.657,0.25,1.016,0.398,1.172l0.059,2.205c-0.093,0.163-0.337,0.674-0.337,1.577c0,0.806,0.242,1.308,0.42,1.562l0.083,3.129
	c0,0,0.215,0.152,0.551,0.152c0.34,0,0.522-0.152,0.522-0.152l-0.05-0.868c0,0,0.268-0.524,0.268-1.285
	c0-0.761-0.208-0.949-0.357-1.157c-0.017-0.024-0.036-0.038-0.052-0.056l-0.204-3.536c0.029-0.051,0.218-0.4,0.218-0.908
	c0-0.551-0.177-0.688-0.305-0.837l-0.015-0.014l-0.231-4.042c0.271,0.56,0.602,1.142,1.066,1.772
	c2.453,3.335,4.957,3.028,5.416,3.075c3.314,0.345,2.233-0.396,4.59-0.396c2.357,0,1.178,0.757,4.646,0.396
	c0.461-0.047,2.963,0.26,5.415-3.075c2.301-3.123,1.892-5.29,1.994-7.104c0.101-1.813,0.459-3.78,0.459-3.78
	S1166.611,5.883,1165.18,5.983z M1144.467,25.665l-0.062-1.092C1144.472,24.949,1144.467,25.643,1144.467,25.665z M1152.816,13.275
	c0,0-3.67,0.471-5.456-0.438c-1.79-0.907-1.891-1.966-1.891-1.966s0.521-0.032,1.273-0.338c0.761-0.308,1.513-0.991,3.299-0.584
	C1153.206,10.67,1152.816,13.275,1152.816,13.275z M1162.422,12.837c-1.79,0.909-5.458,0.438-5.458,0.438s-0.39-2.605,2.777-3.326
	c1.782-0.407,2.532,0.287,3.297,0.584c0.669,0.258,1.272,0.338,1.272,0.338S1164.21,11.93,1162.422,12.837z"/>
<path d="M1222.839,13.039H1222V9.412c0-3.714-2.722-6.724-6.436-6.724C1208.686,2.688,1209,9,1209,9v4.039h-0.773
	c-0.66,0-1.227,0.534-1.227,1.194v11.698c0,0.658,0.566,1.069,1.227,1.069h14.612c0.66,0,1.161-0.411,1.161-1.068V14.233
	C1224,13.573,1223.499,13.039,1222.839,13.039z M1219.855,9.411v3.628h-8.586V9.411h-0.026c0-2.386,1.937-4.32,4.322-4.32
	c2.385,0,4.32,1.934,4.32,4.32H1219.855z"/>
<path d="M1279.996,4l-16.993,0.007l-0.002-0.001h-1c-0.553,0-1,0.448-1,1v19.999c-0.001,0.552,0.447,0.995,1,0.995h17.995
	l9.008-10.994L1279.996,4z M1272.005,22.029c-4.657,0-6.222-0.212-6.222-0.212s0.244-3.714,1.942-4.38
	c1.698-0.667,2.115-0.573,2.703-0.929c0.017-0.006,0.031-0.019,0.045-0.025v-1c-0.565-0.494-1.016-1.243-1.279-2.099
	c-0.308-0.329-0.483-0.716-0.483-1.13c0-0.286,0.085-0.557,0.237-0.806c0.098-2.093,1.432-3.479,3.061-3.479
	c1.63,0,2.961,1.386,3.062,3.479c0.151,0.249,0.234,0.52,0.234,0.806c0,0.414-0.177,0.801-0.482,1.13
	c-0.263,0.855-0.714,1.604-1.28,2.099v1c0.016,0.007,0.029,0.02,0.045,0.025c0.589,0.355,1.005,0.262,2.705,0.929
	c1.699,0.666,1.939,4.38,1.939,4.38S1276.659,22.029,1272.005,22.029z"/>
<path d="M1335.496,4.504C1329.7,4.504,1325,9.204,1325,15c0,5.798,4.7,10.496,10.496,10.496c5.799,0,10.498-4.698,10.498-10.496
	C1345.994,9.204,1341.295,4.504,1335.496,4.504z M1341,20h-11c-0.104-0.493-0.104-0.507,0-1h11
	C1341.104,19.493,1341.101,19.507,1341,20z M1341,16h-11c-0.104-0.494-0.104-0.507,0-1h11C1341.104,15.493,1341.101,15.506,1341,16z
	 M1341,12h-11c-0.104-0.494-0.104-0.505,0-1h11C1341.104,11.495,1341.101,11.506,1341,12z"/>
<path d="M1397.922,13.56l-7.253-7.441l-0.011-0.003c-0.282-0.258-0.66-0.419-1.072-0.419h-0.061c0,0,0,0,0,0.003
	c-0.862,0.011-1.525,0.715-1.525,1.586c0,0,0,11.894,0,13.407c0,2.743,2.254,4.307,2.254,4.307V8.992l7.667,7.862L1397.922,13.56
	L1397.922,13.56z M1399.768,5.696V21.65l-7.669-7.867v3.298l7.259,7.438l0.011,0.004c0.28,0.262,0.66,0.419,1.069,0.419h0.059
	c0.867-0.015,1.504-0.718,1.504-1.587c0,0,0-11.893,0-13.409C1401.998,7.208,1399.768,5.696,1399.768,5.696z"/>
<path d="M1449.458,16.269v7.66c0.816,0.166,1.658,0.166,2.475-0.002v-7.658C1451.116,16.104,1450.274,16.104,1449.458,16.269z
	 M1445.382,19.686v4.243c0.817,0.166,1.659,0.166,2.476-0.002v-4.238C1447.041,19.521,1446.199,19.521,1445.382,19.686z
	 M1457.458,9.436v14.493c0.817,0.166,1.659,0.166,2.474-0.002V9.436C1459.117,9.269,1458.275,9.269,1457.458,9.436z
	 M1453.445,12.852v11.077c0.816,0.166,1.658,0.166,2.476-0.002V12.854C1455.104,12.687,1454.263,12.687,1453.445,12.852z
	 M1461.476,6.018v17.911c0.816,0.166,1.658,0.166,2.477-0.002V6.019C1463.134,5.852,1462.292,5.852,1461.476,6.018z"/>
<path d="M1514.833,4.326c-5.787,0-10.474,4.689-10.474,10.474c0,2.153,0.65,4.152,1.764,5.816l-1.8,4.682l4.68-1.798
	c1.667,1.118,3.671,1.771,5.831,1.771c5.783,0,10.471-4.687,10.471-10.472C1525.305,9.014,1520.616,4.326,1514.833,4.326z"/>
<path d="M1578.126,11.048c-0.946-0.946-2.253-1.533-3.696-1.533c-2.885,0-5.223,2.339-5.223,5.223c0,2.885,2.338,5.224,5.223,5.224
	s5.221-2.339,5.224-5.222h-5.219L1578.126,11.048z M1578.634,4h-11.198c-0.871,0-1.436,0.638-1.436,1.569v18.937
	c0,0.931,0.564,1.494,1.436,1.494h14.072c0.93,0,1.492-0.563,1.492-1.494V8.442L1578.634,4z M1574.436,21.158
	c-3.537,0-6.404-2.874-6.404-6.421c0-3.546,2.867-6.421,6.404-6.421s6.405,2.875,6.405,6.421
	C1580.841,18.284,1577.972,21.158,1574.436,21.158z"/>
<path d="M1634,11V7h-10v5h9.682L1634,11z M1633,11h-8V8h8V11z M1632.229,15.983L1629.444,16c0.098-0.549,0.178-1.371,0.226-2h3.33
	l0.355-1H1623l-0.118,1H1628c-0.049,0.645,0.017,1.467-0.097,2H1622v1h5.63c-0.711,1.951-2.323,2.839-6.259,3.405
	c0.193,0.226,0.746,0.955,0.844,1.229c4.486-0.606,6.258-1.78,6.785-4.635h2.826L1632.229,15.983z M1641.08,5h-3.193l-6.715,18.021
	h3.094l1.756-4.984h6.862l1.793,4.984h3.117L1641.08,5z M1636.88,15.509l1.622-4.677c0.426-1.195,0.748-2.296,0.97-3.304
	c0.08,0.328,0.23,0.843,0.447,1.547c0.217,0.705,0.387,1.22,0.51,1.547l1.682,4.887H1636.88z"/>
<path d="M1706.784,7.093h-23.9c-1.017,0-1.841,0.825-1.841,1.842v12.416c0,0.953,0.824,1.649,1.841,1.649h24.399
	c1.019,0,1.717-0.696,1.717-1.649V8.935C1709,7.918,1707.803,7.093,1706.784,7.093z M1706.625,9.133
	c-0.026,0.577-0.09,1.116-0.184,1.592l-0.01,0.009c-0.054,0.219-0.24,0.388-0.482,0.388h-1.228c-0.237,0-0.43-0.169-0.479-0.388
	l-0.015-0.009c-0.092-0.476-0.155-1.015-0.179-1.592H1706.625z M1706.625,12.284c-0.026,0.577-0.09,1.114-0.184,1.589l-0.01,0.009
	c-0.054,0.222-0.24,0.39-0.482,0.39h-4.146c-0.241,0-0.43-0.168-0.482-0.39l-0.01-0.009c-0.095-0.475-0.156-1.012-0.184-1.589
	H1706.625z M1702.646,9.133c-0.022,0.577-0.089,1.116-0.181,1.592l-0.014,0.009c-0.049,0.219-0.241,0.388-0.479,0.388h-1.227
	c-0.241,0-0.431-0.169-0.483-0.388l-0.009-0.009c-0.094-0.476-0.156-1.015-0.184-1.592H1702.646z M1698.317,14.271
	c-0.239,0-0.432-0.168-0.48-0.39l-0.012-0.009c-0.093-0.475-0.156-1.012-0.181-1.589h2.572c-0.023,0.577-0.09,1.114-0.182,1.589
	l-0.011,0.009c-0.053,0.222-0.242,0.39-0.481,0.39H1698.317z M1699.209,15.433c-0.025,0.587-0.09,1.133-0.184,1.616l-0.013,0.009
	c-0.052,0.224-0.245,0.396-0.488,0.396h-1.245c-0.243,0-0.438-0.173-0.489-0.396l-0.011-0.009c-0.094-0.483-0.159-1.029-0.186-1.616
	H1699.209z M1698.672,9.133c-0.025,0.577-0.09,1.116-0.183,1.592l-0.013,0.009c-0.05,0.219-0.24,0.388-0.479,0.388h-1.226
	c-0.239,0-0.432-0.169-0.482-0.388l-0.011-0.009c-0.093-0.476-0.156-1.015-0.183-1.592H1698.672z M1694.271,14.271
	c-0.239,0-0.431-0.168-0.481-0.39l-0.011-0.009c-0.092-0.475-0.156-1.012-0.183-1.589h2.574c-0.024,0.577-0.089,1.114-0.182,1.589
	l-0.013,0.009c-0.051,0.222-0.24,0.39-0.479,0.39H1694.271z M1695.037,15.433c-0.026,0.587-0.091,1.133-0.186,1.616l-0.012,0.009
	c-0.053,0.224-0.246,0.396-0.488,0.396h-1.246c-0.241,0-0.438-0.173-0.487-0.396l-0.013-0.009c-0.094-0.483-0.158-1.029-0.185-1.616
	H1695.037z M1694.694,9.133c-0.025,0.577-0.089,1.116-0.184,1.592l-0.011,0.009c-0.051,0.219-0.242,0.388-0.48,0.388h-1.226
	c-0.24,0-0.432-0.169-0.48-0.388l-0.013-0.009c-0.093-0.476-0.155-1.015-0.181-1.592H1694.694z M1692.274,12.284
	c-0.026,0.577-0.091,1.114-0.184,1.589l-0.01,0.009c-0.052,0.222-0.243,0.39-0.482,0.39h-1.226c-0.239,0-0.431-0.168-0.48-0.39
	l-0.012-0.009c-0.093-0.475-0.156-1.012-0.183-1.589H1692.274z M1690.718,9.133c-0.024,0.577-0.09,1.116-0.182,1.592l-0.011,0.009
	c-0.053,0.219-0.242,0.388-0.481,0.388h-1.227c-0.239,0-0.432-0.169-0.48-0.388l-0.012-0.009c-0.093-0.476-0.157-1.015-0.181-1.592
	H1690.718z M1687.012,9.133c-0.024,0.577-0.09,1.116-0.182,1.592l-0.011,0.009c-0.053,0.219-0.242,0.388-0.481,0.388h-2.306
	c-0.239,0-0.432-0.169-0.481-0.388l-0.011-0.009c-0.094-0.476-0.157-1.015-0.182-1.592H1687.012z M1687.545,20.27l-0.012,0.009
	c-0.052,0.232-0.245,0.407-0.489,0.407h-3.002c-0.243,0-0.437-0.175-0.488-0.407l-0.012-0.009c-0.094-0.499-0.159-1.063-0.185-1.67
	h4.371C1687.703,19.206,1687.638,19.771,1687.545,20.27z M1683.357,15.444h3.713c-0.026,0.586-0.092,1.132-0.186,1.615l-0.011,0.01
	c-0.052,0.224-0.246,0.396-0.489,0.396h-2.343c-0.243,0-0.437-0.172-0.488-0.396l-0.012-0.01
	C1683.448,16.576,1683.383,16.03,1683.357,15.444z M1688.328,13.882c-0.051,0.222-0.241,0.39-0.48,0.39h-3.815
	c-0.239,0-0.432-0.168-0.481-0.39l-0.011-0.009c-0.093-0.475-0.157-1.012-0.182-1.589h5.163c-0.025,0.577-0.09,1.114-0.182,1.589
	L1688.328,13.882z M1688.673,17.058l-0.011-0.009c-0.094-0.483-0.159-1.029-0.186-1.616h2.615c-0.025,0.587-0.091,1.133-0.185,1.616
	l-0.013,0.009c-0.052,0.224-0.244,0.396-0.488,0.396h-1.244C1688.919,17.454,1688.725,17.281,1688.673,17.058z M1701.836,20.27
	l-0.012,0.009c-0.051,0.232-0.246,0.407-0.489,0.407h-11.604c-0.242,0-0.438-0.175-0.488-0.407l-0.012-0.009
	c-0.095-0.499-0.159-1.063-0.186-1.67h12.975C1701.995,19.206,1701.93,19.771,1701.836,20.27z M1706.531,20.27l-0.015,0.009
	c-0.049,0.232-0.243,0.407-0.486,0.407h-2.079c-0.244,0-0.438-0.175-0.49-0.407l-0.012-0.009c-0.094-0.499-0.158-1.063-0.185-1.67
	h3.449C1706.688,19.206,1706.625,19.771,1706.531,20.27z M1706.531,17.06l-0.015,0.01c-0.049,0.224-0.243,0.396-0.486,0.396h-5.159
	c-0.244,0-0.438-0.172-0.49-0.396l-0.009-0.01c-0.095-0.483-0.161-1.029-0.187-1.615h6.528
	C1706.688,16.03,1706.625,16.576,1706.531,17.06z"/>
<path d="M1760.939,2.167h-10.877c-0.987,0-2,0.938-2,2.001c0,0,0,1.857,0,7.833c0,0.354-1.938,1.656-1.938,2.001
	c0,3.87,0,10.997,0,10.997c0.001,1.063,0.825,2.001,1.812,2.001h13.002c1.053,0,1.998-0.938,1.998-2.001V4.168
	C1762.938,3.105,1761.992,2.167,1760.939,2.167z M1755.999,4.18H1758v4.581h-2.001V4.18z M1753,4.18L1753,4.18h2.001v4.581H1753l0,0
	V4.18z M1750,4.18h2.001v4.581H1750V4.18z M1755.001,21.002H1751l4.001-5.001l4.001,5.001H1755.001z M1761.002,8.761H1759V4.18
	h2.002V8.761z"/>
<path d="M19.934,73.486l7.424-5.057c0-0.598-0.561-1.027-0.875-1.027H18v4.986l1.744,1.098C19.788,73.5,19.891,73.5,19.934,73.486z
	 M19.592,75.341L18,74.249V81h8c0.719,0,1.355-0.418,1.355-1.416v-9.141c0,0-7.541,5.061-7.271,4.897
	C20.084,75.341,19.814,75.504,19.592,75.341z M9.614,77.488c0.534,0,0.957-0.24,1.269-0.721c0.312-0.481,0.469-1.149,0.469-2.002
	c0-0.889-0.151-1.58-0.456-2.074c-0.303-0.496-0.717-0.741-1.243-0.741c-0.543,0-0.974,0.253-1.293,0.761
	c-0.318,0.51-0.478,1.182-0.478,2.021c0,0.848,0.16,1.521,0.478,2.014C8.679,77.244,9.098,77.488,9.614,77.488z M2.109,84.373
	L16.945,87V62L2.109,64.872V84.373z M7.195,71.543c0.629-0.839,1.462-1.258,2.499-1.258c0.979,0,1.772,0.4,2.375,1.201
	c0.605,0.804,0.908,1.861,0.908,3.172c0.001,1.349-0.313,2.438-0.94,3.261c-0.627,0.826-1.445,1.24-2.453,1.24
	c-0.983,0-1.784-0.402-2.402-1.201c-0.619-0.801-0.929-1.842-0.929-3.126C6.253,73.477,6.567,72.38,7.195,71.543z"/>
<path d="M63.101,66.209v17.729h23.84V66.209H63.101z M84,80.456l-6.191-4.64L84,70.716V80.456z M82.382,67l-7.441,6.384L67.5,67
	H82.382z M72.175,75.717L66,80.338v-9.682L72.175,75.717z M66.4,83.051v-1.525l6.932-5.188l1.608,1.318l1.478-1.217l6.945,5.203
	v1.407L66.4,83.051L66.4,83.051z"/>
<path d="M135.004,63C128.375,63,123,68.373,123,75.001S128.375,87,135.004,87C141.635,87,147,81.629,147,75.001
	S141.635,63,135.004,63z M135.431,81.479c-0.211,0.215-0.475,0.322-0.791,0.322c-0.305,0-0.562-0.107-0.773-0.322
	c-0.21-0.215-0.315-0.475-0.315-0.78s0.105-0.562,0.315-0.771c0.211-0.211,0.468-0.315,0.773-0.315c0.315,0,0.58,0.104,0.791,0.315
	c0.209,0.209,0.315,0.468,0.315,0.771C135.746,81.004,135.64,81.264,135.431,81.479z M138.412,73.162
	c-0.162,0.314-0.363,0.591-0.602,0.822c-0.238,0.233-0.498,0.443-0.779,0.627c-0.279,0.187-0.539,0.386-0.779,0.601
	c-0.239,0.215-0.438,0.464-0.6,0.743c-0.165,0.281-0.245,0.637-0.245,1.066v0.527h-1.629v-0.615c0-0.49,0.076-0.901,0.232-1.238
	c0.154-0.334,0.349-0.627,0.583-0.877c0.232-0.252,0.488-0.476,0.761-0.672c0.276-0.196,0.53-0.395,0.762-0.592
	c0.235-0.195,0.429-0.408,0.583-0.638c0.154-0.226,0.398-0.958,0.398-1.291c0-0.501-0.328-0.86-0.658-1.123
	c-0.329-0.264-0.786-0.396-1.372-0.396c-0.418,0-0.835,0.102-1.254,0.306c-0.418,0.202-0.956,0.674-1.325,1.128l-1.149-0.859
	c0.525-0.611,1.236-1.402,1.847-1.695c0.609-0.293,1.29-0.438,2.042-0.438c0.561,0,1.06,0.078,1.489,0.231
	c0.43,0.156,0.955,0.494,1.24,0.756c0.287,0.264,0.479,0.634,0.621,0.969c0.144,0.333,0.206,1.107,0.206,1.466
	C138.786,72.445,138.572,72.844,138.412,73.162z"/>
<path d="M204.57,72.997c0-5.285-4.283-9.571-9.569-9.571c-5.287,0-9.572,4.286-9.572,9.571c0,2.104,0.687,4.046,1.839,5.626
	l-0.035,0.045l7.768,9.965l7.766-9.965l-0.035-0.045C203.882,77.043,204.57,75.102,204.57,72.997z M195.001,77.781
	c-2.644,0-4.787-2.143-4.787-4.784s2.144-4.785,4.787-4.785c2.641,0,4.785,2.144,4.785,4.785S197.642,77.781,195.001,77.781z"/>
<path d="M264.57,72.997c0-5.285-4.283-9.571-9.569-9.571c-5.287,0-9.572,4.286-9.572,9.571c0,2.104,0.687,4.046,1.839,5.626
	l-0.035,0.045l7.768,9.965l7.766-9.965l-0.035-0.045C263.882,77.043,264.57,75.102,264.57,72.997z M255.001,77.781
	c-2.644,0-4.787-2.143-4.787-4.784s2.144-4.785,4.787-4.785c2.641,0,4.785,2.144,4.785,4.785S257.642,77.781,255.001,77.781z"/>
<path d="M318.638,66.076h-7.273c-0.384,0.156-0.753,0.338-1.111,0.541h9.498C319.392,66.414,319.021,66.232,318.638,66.076z
	 M323.277,70.075h-16.554c-0.105,0.178-0.208,0.356-0.302,0.542h17.159C323.485,70.432,323.385,70.253,323.277,70.075z
	 M321.699,68.076h-13.396c-0.179,0.172-0.348,0.355-0.512,0.54h14.421C322.046,68.432,321.876,68.248,321.699,68.076z
	 M324.186,72.076h-18.371c-0.057,0.177-0.101,0.359-0.146,0.54h18.664C324.286,72.436,324.244,72.253,324.186,72.076z
	 M307.995,76.359c-1.451,0-2.627,1.178-2.627,2.627c0,1.453,1.176,2.629,2.627,2.629c1.452,0,2.629-1.176,2.629-2.629
	C310.624,77.537,309.447,76.359,307.995,76.359z M322.006,76.359c-1.45,0-2.627,1.178-2.627,2.627c0,1.453,1.177,2.629,2.627,2.629
	s2.628-1.176,2.628-2.629C324.634,77.537,323.456,76.359,322.006,76.359z M315.001,61.5c-7.456,0-13.5,6.045-13.5,13.5
	c0,7.456,6.044,13.501,13.5,13.501c7.455,0,13.5-6.045,13.5-13.501C328.501,67.545,322.456,61.5,315.001,61.5z M315.001,85.797
	c-5.963,0-10.797-4.834-10.797-10.797s4.834-10.797,10.797-10.797c5.962,0,10.796,4.834,10.796,10.797
	S320.963,85.797,315.001,85.797z M318.734,77.073h-7.499c-0.119,0-0.218,0.098-0.218,0.219v3.392c0,0.119,0.099,0.217,0.218,0.217
	h3.271v-2.592h0.99V80.9h3.238c0.119,0,0.219-0.099,0.219-0.217v-3.393C318.953,77.171,318.854,77.073,318.734,77.073z"/>
<path d="M365.867,86.934c0.138-0.004,0.284-0.035,0.44-0.104c0.982-0.402,1.688-0.863,2.195-1.32
	c0.729-3.281,1.188-7.918,1.198-13.062l-3.834,0.508V86.934z M378.98,70.805c2.627-8.402-0.577-7.912-0.577-7.912l-0.005,0.051
	c-0.01-0.01-0.015-0.02-0.022-0.026c-1.274,5.837-4.236,9.946-7.979,10.235c-0.021,0-0.038-0.002-0.06-0.002v10.69
	c2,0.812,4.425,1.291,7.045,1.291c1.384,0,2.708-0.137,3.948-0.383c1.692-2.171,3.039-5.729,3.523-9.912
	c0.103-0.882,0.148-1.739,0.166-2.584C383.317,71.468,381.236,70.975,378.98,70.805z"/>
<path d="M436.071,76.407l11.004-11.003c-0.225-0.225-0.535-0.364-0.878-0.364H423.8c-0.347,0-0.658,0.144-0.884,0.372l10.997,10.995
	C434.509,77.003,435.476,77.003,436.071,76.407z M436.604,78.086c-0.891,0.891-2.334,0.891-3.225,0l-10.821-10.82v16.416
	c0,0.685,0.558,1.241,1.242,1.241h22.397c0.688,0,1.242-0.558,1.242-1.241V67.248L436.604,78.086z"/>
<path d="M482.995,81c0.489,1.411,1.7,2.38,3.12,2.38h17.769c1.42,0,2.631-0.969,3.119-2.38H482.995z M492.933,76.971
	c1.158,1.124,3.036,1.124,4.194,0l8.963-8.705c0.336-0.326,0.55-0.711,0.68-1.119c-1.163-0.236-2.365-0.444-3.618-0.609
	l-0.922,0.895c-0.015,0.017-0.017,0.037-0.031,0.053l-6.787,6.593c-0.212,0.206-0.557,0.206-0.771,0l-6.787-6.593
	c-0.017-0.017-0.019-0.037-0.031-0.055l-0.919-0.893c-1.25,0.166-2.45,0.373-3.612,0.609c0.128,0.406,0.343,0.793,0.679,1.119
	L492.933,76.971z"/>
<path d="M547.871,84.143c0.806-0.216,1.499-0.646,2.048-1.211c0.172-1.01,0.109-2.23-0.229-3.492
	c-0.77-2.871-2.679-4.854-4.266-4.43c-1.589,0.426-2.251,3.1-1.48,5.971c0.338,1.26,0.896,2.348,1.549,3.138
	C546.251,84.334,547.065,84.355,547.871,84.143z M550.791,75.22c0.405,2.208,1.464,3.788,2.711,3.788c1.244,0,2.303-1.58,2.71-3.788
	c-0.839-0.202-1.752-0.313-2.71-0.313C552.542,74.905,551.631,75.018,550.791,75.22z M548.211,85.41
	c-0.787,0.211-1.511,0.504-2.155,0.855c0.819,1.726,2.034,2.785,3.059,2.512c1.021-0.271,1.544-1.803,1.392-3.705
	C549.771,85.091,548.997,85.198,548.211,85.41z M564.877,79.048c-0.002-0.004-0.007-0.004-0.011-0.009
	c-0.031-0.033-0.054-0.04-0.074-0.047c0.019-0.012,0.031-0.014,0.06-0.042h-0.003l2.353-2.354c-0.179-0.695-0.438-1.318-0.747-1.867
	l-2.963,2.963l-2.95-2.949c-0.311,0.55-0.568,1.175-0.745,1.873l2.318,2.318c0.002,0.004,0.007,0.006,0.012,0.012
	c0.033,0.031,0.054,0.037,0.073,0.045c-0.017,0.009-0.031,0.014-0.057,0.042v0.003l-2.35,2.35c0.177,0.702,0.434,1.334,0.747,1.885
	l2.961-2.961l2.961,2.959c0.312-0.554,0.568-1.185,0.745-1.89L564.877,79.048z M553.502,62.236c-1.934,0-3.5,2.836-3.5,6.334
	c0,1.533,0.302,2.939,0.803,4.037c0.797,0.476,1.715,0.75,2.697,0.75c0.979,0,1.899-0.274,2.696-0.75
	c0.502-1.098,0.804-2.504,0.804-4.037C557.002,65.072,555.433,62.236,553.502,62.236z"/>
<path d="M618.308,66.951c0.374,0.156,0.794,0.101,1.204-0.106l1.606-3.836c-0.14-0.435-0.395-0.776-0.767-0.934
	c-0.363-0.152-0.772-0.104-1.17,0.088l-1.632,3.89C617.692,66.471,617.945,66.797,618.308,66.951z M606.053,72.432
	c0.419-0.142,0.745-0.395,0.899-0.757c0.157-0.373,0.099-0.796-0.107-1.204l-3.835-1.607c-0.436,0.14-0.777,0.395-0.935,0.769
	c-0.152,0.362-0.104,0.771,0.088,1.168L606.053,72.432z M606.035,77.555l-3.851,1.576c-0.21,0.406-0.271,0.828-0.117,1.203
	c0.147,0.363,0.473,0.619,0.891,0.766l3.902-1.598c0.196-0.396,0.249-0.805,0.102-1.17
	C606.809,77.959,606.469,77.699,606.035,77.555z M611.652,66.96c0.373-0.153,0.631-0.491,0.773-0.926l-1.576-3.851
	c-0.403-0.209-0.828-0.271-1.2-0.117c-0.365,0.147-0.62,0.473-0.767,0.891l1.596,3.902C610.878,67.057,611.285,67.109,611.652,66.96
	z M611.675,83.031c-0.372-0.156-0.795-0.102-1.204,0.104l-1.606,3.837c0.139,0.436,0.395,0.778,0.766,0.936
	c0.365,0.152,0.774,0.102,1.173-0.09l1.629-3.889C612.292,83.512,612.037,83.184,611.675,83.031z M623.947,72.426l3.849-1.574
	c0.211-0.406,0.271-0.828,0.119-1.203c-0.147-0.364-0.473-0.619-0.889-0.766l-3.905,1.598c-0.194,0.396-0.248,0.806-0.102,1.17
	C623.175,72.025,623.513,72.284,623.947,72.426z M627.818,79.182l-3.888-1.631c-0.421,0.141-0.748,0.395-0.898,0.756
	c-0.157,0.371-0.103,0.797,0.104,1.205l3.836,1.605c0.438-0.139,0.778-0.393,0.937-0.764
	C628.061,79.99,628.011,79.578,627.818,79.182z M618.332,83.02c-0.376,0.154-0.633,0.492-0.776,0.929l1.575,3.848
	c0.405,0.211,0.828,0.272,1.202,0.119c0.364-0.146,0.622-0.474,0.766-0.89l-1.596-3.901
	C619.106,82.926,618.697,82.873,618.332,83.02z M615,68c-3.871,0-7,3.127-7,7s3.129,7,7,7c3.874,0,6.99-3.127,6.99-7
	S618.874,68,615,68z"/>
<path d="M675.013,61.464c-7.458,0-13.504,6.06-13.504,13.536s6.046,13.537,13.503,13.537c7.459,0,13.504-6.061,13.504-13.537
	C688.517,67.523,682.472,61.464,675.013,61.464z M675,86.011c-6.081,0-11.01-4.931-11.01-11.011s4.929-11.01,11.01-11.01
	c3.045,0,5.8,1.234,7.794,3.232l-7.783,7.768h10.999C686.008,81.066,681.079,86.011,675,86.011z"/>
<path d="M738.908,71.951c-0.021,0-0.044,0.002-0.066,0.002v-7.484c0-0.855-0.695-1.469-1.554-1.469h-11.662
	c-0.857,0-1.626,0.613-1.626,1.469v19.908c0,0.854,0.769,1.623,1.626,1.623h8.006c1.41,1.234,3.253,1.918,5.275,1.918
	c4.418,0,7.999-3.573,7.999-7.984C746.907,75.525,743.326,71.951,738.908,71.951z M732.038,84.725c0,0.109-0.09,0.199-0.2,0.199
	h-1.6c-0.11,0-0.2-0.09-0.2-0.199v-1.598c0-0.109,0.09-0.197,0.2-0.197h1.257c0.153,0.377,0.337,0.734,0.543,1.08V84.725z
	 M737.172,72.145c-3.582,0.791-6.122,3.976-6.122,7.789C731.05,81,731,82,731.179,82h-4.47C726.36,82,726,81.68,726,81.334V65.548
	c0-0.347,0.36-0.629,0.708-0.629h9.834c0.347,0,0.629,0.282,0.629,0.629L737.172,72.145L737.172,72.145z M738.237,75.266
	C738.43,75.074,738.696,75,739,75c0.3,0,0.531,0.074,0.729,0.266C739.925,75.456,740,75.729,740,76c0,0.281-0.075,0.477-0.271,0.668
	C739.531,76.859,739.3,77,739,77c-0.304,0-0.57-0.141-0.763-0.332S738,76.281,738,76C738,75.729,738.045,75.456,738.237,75.266z
	 M740.055,84.984h-2.138v-7.039h2.138V84.984z"/>
<path d="M794.999,73.09c3.048,0,5.517-2.47,5.517-5.516c0-3.047-2.469-5.518-5.517-5.518c-3.046,0-5.515,2.471-5.515,5.518
	C789.484,70.62,791.953,73.09,794.999,73.09z M794.999,78.083c-1.611,0-2.918,1.308-2.918,2.918s1.307,2.919,2.918,2.919
	s2.918-1.309,2.918-2.919S796.61,78.083,794.999,78.083z M804.662,80.654c0-0.002,0-0.002,0-0.002c0-3.726-4.325-6.745-9.663-6.745
	c-5.336,0-9.661,3.021-9.661,6.745c0,0,0,0,0,0.002h-0.007c0,2.677,0.532,5.166,1.438,7.294h16.458
	c0.907-2.128,1.439-4.617,1.439-7.294H804.662z M799.698,83.906l-0.38-0.184c-0.239-0.115-0.718,0.113-1.1,0.496
	c-0.383,0.383-0.61,0.859-0.497,1.1l0.185,0.383c-0.499,0.309-1.056,0.531-1.642,0.671l-0.137-0.394
	c-0.09-0.252-0.589-0.427-1.13-0.427c-0.539,0-1.041,0.175-1.128,0.427l-0.143,0.401c-0.586-0.139-1.137-0.373-1.636-0.68
	l0.185-0.384c0.113-0.238-0.114-0.717-0.497-1.099c-0.383-0.383-0.859-0.61-1.1-0.497l-0.383,0.185
	c-0.309-0.497-0.53-1.052-0.671-1.64l0.394-0.139c0.251-0.09,0.427-0.589,0.427-1.128c0-0.541-0.175-1.043-0.427-1.128l-0.401-0.145
	c0.139-0.586,0.38-1.132,0.688-1.631l0.374,0.18c0.239,0.113,0.717-0.114,1.1-0.498c0.383-0.381,0.61-0.86,0.497-1.098l-0.18-0.371
	c0.499-0.31,1.043-0.552,1.631-0.689l0.143,0.4c0.087,0.248,0.589,0.426,1.128,0.426c0.541,0,1.04-0.178,1.13-0.426l0.139-0.4
	c0.589,0.139,1.141,0.371,1.64,0.681l-0.185,0.38c-0.114,0.237,0.114,0.717,0.497,1.1c0.382,0.383,0.859,0.611,1.1,0.496
	l0.383-0.184c0.309,0.499,0.529,1.055,0.669,1.641l-0.393,0.14c-0.251,0.085-0.426,0.587-0.426,1.128
	c0,0.539,0.175,1.038,0.426,1.128l0.4,0.14C800.24,82.855,800.008,83.407,799.698,83.906z"/>
<path d="M855,73c3.046,0,5.517-2.325,5.517-5.372c0-3.046-2.471-5.628-5.517-5.628s-5.516,2.582-5.516,5.628
	C849.484,70.675,851.954,73,855,73z M864.663,80.709c0,0,0,0,0-0.002c0-2.668-2.225-4.969-5.447-6.062l-4.214,4.217l-4.217-4.217
	c-3.222,1.092-5.447,3.394-5.447,6.062c0,0.002,0,0.002,0,0.002h-0.006c0,2.677,0.533,5.17,1.439,7.291h16.457
	c0.905-2.121,1.438-4.614,1.438-7.291H864.663z"/>
<path d="M908.75,70.75h12.5v2.945l1.576-1.576v-2.524c0-0.327-0.268-0.595-0.596-0.595h-14.637c-0.328,0-0.594,0.268-0.594,0.595
	v10.623c0,0.329,0.266,0.595,0.594,0.595h6.54l1.562-1.562h-6.946V70.75z M916.46,80.709h1.794l-1.794-1.798V80.709z M922.23,80.812
	c0.327,0,0.596-0.269,0.596-0.598v-1.438l-2.034,2.035H922.23z M925.295,72.094c-0.555-0.557-1.236-0.777-1.52-0.494l-6.812,6.811
	l2.014,2.012l6.812-6.808C926.074,73.33,925.852,72.65,925.295,72.094z M910,73.5c0,0.828,0.672,1.5,1.5,1.5s1.5-0.672,1.5-1.5
	s-0.672-1.5-1.5-1.5S910,72.672,910,73.5z"/>
<path d="M975.001,69.225c-3.191,0-5.776,2.586-5.776,5.775s2.584,5.775,5.776,5.775c3.189,0,5.776-2.586,5.776-5.775
	S978.19,69.225,975.001,69.225z M984.135,65h-18.277c-1.656,0-2.857,1.293-2.857,2.95v14.101c0,1.656,1.201,2.949,2.857,2.949H985
	c1.658,0,2-1.293,2-2.949V67.95C987,66.293,985.793,65,984.135,65z M975.003,82.198c-3.975,0-7.197-3.224-7.197-7.198
	s3.224-7.198,7.197-7.198s7.2,3.224,7.2,7.198S978.979,82.198,975.003,82.198z"/>
<path d="M1041.053,79.305c-0.574,0.415-1.156,0.807-1.748,1.131l-0.021-0.021c-1.255,0.573-3.987-0.749-6.465-3.228
	c-2.477-2.475-3.798-5.207-3.229-6.463l-0.02-0.021c0.324-0.59,0.716-1.171,1.134-1.747l-4.887-5.521
	c-1.008,1.166-1.831,2.429-2.453,3.76c0.656,3.527,3.279,8.045,7.338,12.104c4.06,4.061,8.583,6.686,12.112,7.336
	c1.329-0.619,2.589-1.445,3.753-2.447L1041.053,79.305z"/>
<path d="M1086.051,86c-2.429,0-3.421-1.721-2.204-3.822l8.628-15.893c1.218-2.104,3.246-2.125,4.508-0.051l9.133,15.992
	c1.264,2.075,0.309,3.773-2.119,3.773H1086.051z"/>
<path d="M1168.126,82.555l-10.249-18.113c-0.532-0.896-1.764-1.941-2.865-1.941c-1.273,0-2.266,1.114-2.833,1.934l-10.302,18.154
	l0.008,0.012c-0.497,0.916-0.535,2.062,0.016,3.033c0.55,0.971,1.544,1.824,2.572,1.844l21.052-0.021
	c1.028-0.019,2.024-0.871,2.572-1.845c0.553-0.971,0.515-2.118,0.018-3.03L1168.126,82.555z M1166.372,84.898
	c-0.464,0.815-1.667,0.957-2.53,0.973l-0.018,0.029h-17.661l-0.006-0.012c-0.861-0.017-1.911-0.188-2.375-1.003
	c-0.463-0.815-0.215-2.061,0.203-2.829l-0.006-0.011l8.588-15.157c0.378-0.951,1.382-2.25,2.45-2.25c0.927,0,2.005,1.514,2.45,2.268
	l8.56,15.111l-0.01,0.021C1166.434,82.809,1166.835,84.084,1166.372,84.898z M1156.377,79L1157,68h-4l0.585,11H1156.377z
	 M1156.512,81.447c-0.408-0.41-0.906-0.615-1.5-0.615c-0.592,0-1.095,0.205-1.513,0.615c-0.413,0.408-0.62,0.908-0.62,1.49
	c0,0.586,0.207,1.08,0.62,1.479c0.417,0.401,0.92,0.603,1.513,0.603c0.594,0,1.092-0.199,1.5-0.603
	c0.404-0.399,0.609-0.896,0.609-1.479C1157.121,82.355,1156.916,81.855,1156.512,81.447z"/>
<path d="M1225.646,77.859c-3.597,3.597-9.429,3.597-13.024,0c-3.597-3.596-3.597-9.428,0-13.023c0.026-0.027,0.059-0.05,0.085-0.078
	c-1.896,0.445-3.699,1.396-5.179,2.875c-4.231,4.23-4.231,11.092,0,15.323c4.229,4.229,11.092,4.229,15.32,0
	c1.481-1.481,2.432-3.286,2.876-5.185C1225.698,77.802,1225.674,77.831,1225.646,77.859z"/>
<path d="M1276.841,74.938l4.314-4.263c0.956-0.942,0.956-2.472,0-3.416L1273.809,60v11.941l-5.529-5.465
	c-0.046-0.043-0.096-0.076-0.144-0.115h-0.042v-0.034c-0.053-0.042-0.104-0.093-0.158-0.129c-0.302,0.839-0.571,1.721-0.81,2.641
	l6.177,6.103l-6.17,6.096c0.238,0.918,0.51,1.799,0.812,2.635c0.053-0.035,0.1-0.082,0.149-0.122v-0.041h0.049
	c0.045-0.036,0.094-0.067,0.137-0.108l5.529-5.467v11.94l7.348-7.257c0.956-0.942,0.956-2.473,0-3.417L1276.841,74.938z
	 M1276.349,66.01l2.396,2.368c0.007,0.007,0.016,0.011,0.021,0.019c0.312,0.306,0.317,0.793,0.031,1.11l0.002,0.004l-2.45,2.421
	V66.01z M1278.799,81.45l-2.45,2.422V77.95l2.396,2.368c0.007,0.007,0.016,0.011,0.021,0.018c0.312,0.307,0.317,0.794,0.031,1.109
	L1278.799,81.45z"/>
<path d="M1348.593,75.482c0-1.014-0.081-1.963-0.222-2.783h-1.779c-0.292-1.704-0.841-2.854-1.471-2.854
	c-0.062,0-0.124,0.013-0.187,0.035h-22.183c-0.061-0.022-0.123-0.035-0.185-0.035c-0.934,0-1.689,2.524-1.689,5.64
	c0,3.113,0.756,5.638,1.689,5.638c0.054,0,0.107-0.011,0.161-0.027v0.063h22.552v-0.062c0.554-0.173,1.028-1.236,1.298-2.758h1.781
	C1348.507,77.5,1348.593,76.525,1348.593,75.482z"/>
<path d="M1395.878,82.617c0.126,0.311,0.199,0.691,0.199,1.099c0,1.06-0.819,1.916-1.093,1.916c-0.274,0-1.096-0.858-1.096-1.916
	c0-0.407,0.074-0.788,0.199-1.099h-1.267c-0.148,0.548-0.232,1.16-0.232,1.811c0,2.327,1.81,4.217,2.411,4.217
	s2.411-1.89,2.41-4.217c0-0.648-0.084-1.263-0.232-1.811H1395.878z M1400.553,71.423c-1.021-5.018-4.02-10.075-5.552-10.075
	c-1.533,0-4.53,5.058-5.553,10.075l-3.446,3.446v8.999h2.402l3.35-3.351c0.342,0.359,0.72,0.659,1.125,0.898h4.237
	c0.407-0.236,0.788-0.539,1.13-0.898l3.35,3.351h2.401v-8.999L1400.553,71.423z M1395.049,69.732c-0.739,0-1.448,0.074-2.109,0.203
	c0.586-1.803,1.529-3.312,2.065-3.312c0.533,0,1.474,1.5,2.06,3.293C1396.429,69.799,1395.754,69.732,1395.049,69.732z"/>
<path d="M1455,64.467c-5.803,0-10.507,4.717-10.507,10.533c0,5.82,4.704,10.533,10.507,10.533s10.507-4.713,10.507-10.533
	C1465.507,69.184,1460.803,64.467,1455,64.467z M1454.99,83.568c-4.73,0-8.566-3.836-8.566-8.568c0-4.73,3.836-8.566,8.566-8.566
	c2.369,0,4.513,0.963,6.062,2.516l-6.054,5.951h8.557C1463.556,79.629,1459.72,83.568,1454.99,83.568z"/>
<path d="M1514.999,64.484c-5.79,0-10.479,4.693-10.479,10.483c0,5.789,4.689,10.482,10.479,10.482
	c5.789,0,10.482-4.693,10.482-10.482C1525.48,69.178,1520.788,64.484,1514.999,64.484z M1520.01,72.465l-6.414,7.623
	c-0.496,0.497-1.253,0.568-1.831,0.227l-2.894-3.896l1.05-1.233l2.245,3.051c0.002,0.003,0.006,0.01,0.011,0.012
	c0.188,0.191,0.492,0.197,0.691,0.018l0.002,0.006l7.14-8.371V72.465z"/>
<path d="M1579.344,72.872l-6.337-7.437c-0.358-0.47-2.166-0.513-2.166-0.513h-1.437l4.039,8.101
	c-2.135,0.25-4.513,0.686-5.797,1.216l-2.248-3.11c-0.286-0.5-0.813-0.5-0.813-0.5h-1.496l1.946,4.57l-1.945,4.572h1.495
	c0,0,0.527,0,0.812-0.5l2.458-3.401c1.307,0.483,3.507,0.878,5.504,1.114l-3.952,7.936h2.768c0,0,0.478-0.045,0.836-0.515
	l6.179-7.253c4.297-0.248,7.474-1.114,7.474-2.146C1586.662,73.986,1583.562,73.13,1579.344,72.872z"/>
<path d="M1647.876,71.371c0-1.032-5.765-1.871-12.875-1.871s-12.875,0.839-12.875,1.871c0,0.863,4.028,1.587,9.496,1.803
	c0.3,0.66,0.626,1.35,0.991,2.07c-0.293,0.48-0.584,0.971-0.877,1.477c-3.555,6.159-5.611,11.629-4.59,12.215
	c0.979,0.565,4.436-3.571,7.854-9.348c3.42,5.775,6.875,9.913,7.854,9.348c1.021-0.586-1.033-6.056-4.589-12.215
	c-0.293-0.506-0.586-0.996-0.877-1.477c0.365-0.723,0.689-1.41,0.991-2.07C1643.848,72.958,1647.876,72.234,1647.876,71.371z
	 M1635.001,68.248c2.07,0,3.749-1.68,3.749-3.748c0-2.07-1.679-3.749-3.749-3.749s-3.748,1.679-3.748,3.749
	C1631.253,66.568,1632.931,68.248,1635.001,68.248z"/>
</svg>
